SplineFontDB: 3.2
FontName: fontbottonsmusic
FullName: font bottons music
FamilyName: font bottons music
Weight: Book
Copyright: Typeface (c) (elharrak fonts). <www.elharrakfonts.com>. All Rights Reserved
Version: 1.00;April 6, 2019;elharrak fonts : https://www.elharrakfonts.com/
ItalicAngle: 0
UnderlinePosition: -292
UnderlineWidth: 150
Ascent: 1638
Descent: 410
InvalidEm: 0
sfntRevision: 0x00010000
LayerCount: 2
Layer: 0 1 "Back" 1
Layer: 1 1 "Fore" 0
XUID: [1021 130 1601842980 5708155]
StyleMap: 0x0040
FSType: 0
OS2Version: 3
OS2_WeightWidthSlopeOnly: 0
OS2_UseTypoMetrics: 0
CreationTime: 1554577595
ModificationTime: 1627308088
PfmFamily: 17
TTFWeight: 400
TTFWidth: 5
LineGap: 222
VLineGap: 0
Panose: 2 0 5 0 0 0 0 0 0 0
OS2TypoAscent: 1434
OS2TypoAOffset: 0
OS2TypoDescent: -410
OS2TypoDOffset: 0
OS2TypoLinegap: 205
OS2WinAscent: 1716
OS2WinAOffset: 0
OS2WinDescent: 418
OS2WinDOffset: 0
HheadAscent: 1716
HheadAOffset: 0
HheadDescent: -418
HheadDOffset: 0
OS2SubXSize: 1434
OS2SubYSize: 1331
OS2SubXOff: 0
OS2SubYOff: 283
OS2SupXSize: 1434
OS2SupYSize: 1331
OS2SupXOff: 0
OS2SupYOff: 977
OS2StrikeYSize: 102
OS2StrikeYPos: 530
OS2CapHeight: 1434
OS2XHeight: 1024
OS2Vendor: 'HL  '
OS2CodePages: 20000001.00000000
OS2UnicodeRanges: 00000003.10000000.00000000.00000000
DEI: 91125
TtTable: prep
SVTCA[y-axis]
MPPEM
PUSHW_1
 200
GT
IF
PUSHB_2
 1
 1
INSTCTRL
EIF
PUSHB_1
 1
PUSHW_2
 2048
 2048
MUL
WCVTF
PUSHB_2
 0
 7
WS
PUSHB_3
 19
 1
 0
LOOPCALL
PUSHB_2
 0
 7
WS
PUSHB_4
 12
 6
 1
 10
LOOPCALL
PUSHB_2
 0
 7
WS
PUSHB_4
 18
 4
 1
 10
LOOPCALL
PUSHB_2
 0
 8
WS
PUSHW_3
 832
 1
 11
LOOPCALL
PUSHB_2
 0
 9
WS
PUSHW_3
 64
 1
 11
LOOPCALL
PUSHW_2
 3
 0
WCVTP
PUSHB_2
 36
 1
GETINFO
LTEQ
IF
PUSHB_1
 64
GETINFO
IF
PUSHW_2
 3
 100
WCVTP
PUSHB_2
 40
 1
GETINFO
LTEQ
IF
PUSHW_1
 2048
GETINFO
IF
PUSHW_2
 3
 0
WCVTP
EIF
ELSE
PUSHB_2
 39
 1
GETINFO
LTEQ
IF
PUSHW_3
 2176
 1
 1088
GETINFO
MUL
EQ
IF
PUSHW_2
 3
 0
WCVTP
EIF
EIF
EIF
EIF
EIF
PUSHB_4
 14
 4
 1
 14
LOOPCALL
PUSHW_1
 511
SCANCTRL
PUSHB_1

StartChar: .notdef
Encoding: 65536 -1 0
Width: 2000
Flags: W
LayerCount: 2
Fore
SplineSet
1509 1473 m 1,0,1
 1506 1418 1506 1418 1498 1377 c 0,2,3
 1491 1335 1491 1335 1472 1290 c 0,4,5
 1452 1244 1452 1244 1415 1207 c 0,6,7
 1376 1169 1376 1169 1330 1150 c 256,8,9
 1284 1131 1284 1131 1243 1122 c 0,10,11
 1203 1113 1203 1113 1146 1112 c 1,12,13
 1148 1166 1148 1166 1157 1208 c 0,14,15
 1165 1249 1165 1249 1185 1295 c 0,16,17
 1205 1342 1205 1342 1242 1380 c 0,18,19
 1280 1416 1280 1416 1325 1435 c 0,20,21
 1370 1456 1370 1456 1413 1463 c 0,22,23
 1454 1472 1454 1472 1509 1473 c 1,24,-1
 1509 1473 l 1,0,1
1643 1027 m 1,25,26
 1678 1003 1678 1003 1717 966 c 1,27,28
 1678 928 1678 928 1643 904 c 0,29,30
 1608 879 1608 879 1562 861 c 0,31,32
 1515 844 1515 844 1463 844 c 0,33,34
 1410 844 1410 844 1363 861 c 0,35,36
 1318 879 1318 879 1282 904 c 0,37,38
 1247 928 1247 928 1206 966 c 1,39,40
 1247 1003 1247 1003 1282 1027 c 0,41,42
 1318 1052 1318 1052 1363 1070 c 0,43,44
 1410 1088 1410 1088 1463 1088 c 0,45,46
 1515 1088 1515 1088 1562 1070 c 0,47,48
 1608 1052 1608 1052 1643 1027 c 1,49,-1
 1643 1027 l 1,25,26
1105 1526 m 1,50,51
 1123 1478 1123 1478 1123 1426 c 0,52,53
 1123 1375 1123 1375 1105 1328 c 0,54,55
 1086 1281 1086 1281 1062 1246 c 0,56,57
 1038 1210 1038 1210 1000 1171 c 1,58,59
 964 1210 964 1210 939 1246 c 0,60,61
 915 1281 915 1281 897 1328 c 0,62,63
 878 1375 878 1375 878 1426 c 0,64,65
 878 1478 878 1478 897 1526 c 0,66,67
 915 1573 915 1573 939 1608 c 0,68,69
 964 1643 964 1643 1000 1683 c 1,70,71
 1038 1643 1038 1643 1062 1608 c 256,72,73
 1086 1573 1086 1573 1105 1526 c 1,74,-1
 1105 1526 l 1,50,51
720 1027 m 1,75,76
 755 1003 755 1003 796 966 c 1,77,78
 755 928 755 928 720 904 c 0,79,80
 685 879 685 879 638 861 c 0,81,82
 591 844 591 844 540 844 c 0,83,84
 487 844 487 844 441 861 c 0,85,86
 394 879 394 879 358 904 c 0,87,88
 323 928 323 928 284 966 c 1,89,90
 323 1003 323 1003 358 1027 c 0,91,92
 394 1052 394 1052 441 1070 c 0,93,94
 487 1088 487 1088 540 1088 c 0,95,96
 591 1088 591 1088 638 1070 c 256,97,98
 685 1052 685 1052 720 1027 c 1,99,-1
 720 1027 l 1,75,76
1498 554 m 1,100,101
 1506 513 1506 513 1509 457 c 1,102,103
 1454 460 1454 460 1413 467 c 0,104,105
 1370 475 1370 475 1325 495 c 256,106,107
 1280 515 1280 515 1242 552 c 0,108,109
 1205 591 1205 591 1185 637 c 0,110,111
 1165 682 1165 682 1157 724 c 0,112,113
 1148 764 1148 764 1146 820 c 1,114,115
 1203 817 1203 817 1243 810 c 0,116,117
 1284 802 1284 802 1330 782 c 256,118,119
 1376 762 1376 762 1415 725 c 0,120,121
 1452 687 1452 687 1472 642 c 0,122,123
 1491 596 1491 596 1498 554 c 1,124,-1
 1498 554 l 1,100,101
1117 1081 m 1,125,126
 1165 1033 1165 1033 1165 966 c 0,127,128
 1165 897 1165 897 1117 849 c 0,129,130
 1070 802 1070 802 1000 802 c 0,131,132
 933 802 933 802 884 849 c 0,133,134
 836 897 836 897 836 966 c 0,135,136
 836 1033 836 1033 884 1081 c 0,137,138
 933 1131 933 1131 1000 1131 c 0,139,140
 1070 1131 1070 1131 1117 1081 c 1,141,-1
 1117 1081 l 1,125,126
855 820 m 1,142,143
 854 764 854 764 845 724 c 0,144,145
 836 682 836 682 817 637 c 0,146,147
 798 591 798 591 760 552 c 0,148,149
 722 515 722 515 677 495 c 0,150,151
 631 475 631 475 590 467 c 0,152,153
 548 460 548 460 494 457 c 1,154,155
 495 513 495 513 503 554 c 0,156,157
 511 596 511 596 530 642 c 0,158,159
 551 687 551 687 587 725 c 0,160,161
 625 762 625 762 672 782 c 0,162,163
 717 802 717 802 759 810 c 0,164,165
 800 817 800 817 855 820 c 1,166,-1
 855 820 l 1,142,143
845 1208 m 1,167,168
 854 1166 854 1166 855 1112 c 1,169,170
 800 1113 800 1113 759 1122 c 0,171,172
 717 1131 717 1131 672 1150 c 0,173,174
 625 1169 625 1169 587 1207 c 0,175,176
 551 1244 551 1244 530 1290 c 0,177,178
 511 1335 511 1335 503 1377 c 0,179,180
 495 1418 495 1418 494 1473 c 1,181,182
 548 1472 548 1472 590 1463 c 0,183,184
 631 1456 631 1456 677 1435 c 0,185,186
 722 1416 722 1416 760 1380 c 0,187,188
 798 1342 798 1342 817 1295 c 0,189,190
 836 1249 836 1249 845 1208 c 1,191,-1
 845 1208 l 1,167,168
1105 602 m 1,192,193
 1123 557 1123 557 1123 503 c 0,194,195
 1123 452 1123 452 1105 405 c 0,196,197
 1086 358 1086 358 1062 323 c 0,198,199
 1038 289 1038 289 1000 249 c 1,200,201
 964 289 964 289 939 323 c 0,202,203
 915 358 915 358 897 405 c 0,204,205
 878 452 878 452 878 503 c 0,206,207
 878 557 878 557 897 602 c 0,208,209
 915 649 915 649 939 685 c 0,210,211
 964 720 964 720 1000 759 c 1,212,213
 1038 720 1038 720 1062 685 c 0,214,215
 1086 649 1086 649 1105 602 c 1,216,-1
 1105 602 l 1,192,193
184 -52 m 1,217,-1
 217 -52 l 1,218,-1
 217 -27 l 2,219,220
 217 -17 217 -17 211 -12 c 0,221,222
 207 -8 207 -8 200 -8 c 0,223,224
 194 -8 194 -8 191 -11 c 128,-1,225
 188 -14 188 -14 185 -18 c 0,226,227
 184 -22 184 -22 184 -27 c 2,228,-1
 184 -52 l 1,229,-1
 184 -52 l 1,217,-1
259 -98 m 1,230,-1
 259 -118 l 2,231,232
 257 -145 257 -145 235 -157 c 0,233,234
 222 -165 222 -165 199 -165 c 0,235,236
 178 -165 178 -165 166 -158 c 128,-1,237
 154 -151 154 -151 149 -141 c 0,238,239
 142 -131 142 -131 141 -118 c 2,240,-1
 141 -27 l 2,241,242
 142 -2 142 -2 166 13 c 0,243,244
 178 20 178 20 200 20 c 256,245,246
 222 20 222 20 234 13 c 128,-1,247
 246 6 246 6 251 -3 c 0,248,249
 257 -13 257 -13 259 -26 c 2,250,-1
 259 -79 l 1,251,-1
 184 -79 l 1,252,-1
 184 -118 l 2,253,254
 184 -128 184 -128 190 -133 c 0,255,256
 194 -136 194 -136 200 -136 c 0,257,258
 213 -136 213 -136 214 -127 c 0,259,260
 217 -123 217 -123 217 -118 c 2,261,-1
 217 -98 l 1,262,-1
 259 -98 l 1,263,-1
 259 -98 l 1,230,-1
289 -162 m 1,264,-1
 289 79 l 1,265,-1
 334 79 l 1,266,-1
 334 -162 l 1,267,-1
 289 -162 l 1,268,-1
 289 -162 l 1,264,-1
417 -162 m 1,269,-1
 371 -162 l 1,270,-1
 371 79 l 1,271,-1
 417 79 l 1,272,-1
 417 2 l 1,273,274
 418 3 418 3 422 6 c 0,275,276
 429 12 429 12 442 18 c 0,277,278
 447 20 447 20 453 20 c 0,279,280
 471 20 471 20 480 8 c 0,281,282
 487 -3 487 -3 487 -14 c 2,283,-1
 487 -162 l 1,284,-1
 442 -162 l 1,285,-1
 442 -19 l 2,286,287
 442 -14 442 -14 439 -13 c 128,-1,288
 436 -12 436 -12 430 -12 c 0,289,290
 427 -12 427 -12 425 -13 c 128,-1,291
 423 -14 423 -14 420 -16 c 0,292,293
 418 -18 418 -18 417 -21 c 2,294,-1
 417 -162 l 1,295,-1
 417 -162 l 1,269,-1
588 -75 m 1,296,297
 572 -81 572 -81 564.5 -92 c 128,-1,298
 557 -103 557 -103 557 -115 c 0,299,300
 557 -117 557 -117 557.5 -120 c 128,-1,301
 558 -123 558 -123 559 -126 c 0,302,303
 562 -132 562 -132 570 -132 c 0,304,305
 577 -132 577 -132 582.5 -129 c 128,-1,306
 588 -126 588 -126 588 -122 c 2,307,-1
 588 -75 l 1,308,-1
 588 -75 l 1,296,297
588 -24 m 1,309,310
 588 -23 588 -23 588 -20 c 128,-1,311
 588 -17 588 -17 587 -14 c 0,312,313
 585 -8 585 -8 576 -8 c 0,314,315
 571 -8 571 -8 567.5 -11 c 128,-1,316
 564 -14 564 -14 564 -18 c 0,317,318
 563 -22 563 -22 563 -27 c 0,319,320
 563 -31 563 -31 563 -36 c 1,321,-1
 518 -36 l 1,322,-1
 518 -28 l 2,323,324
 518 -8 518 -8 535 6 c 0,325,326
 553 20 553 20 578 20 c 0,327,328
 601 20 601 20 618 8 c 0,329,330
 634 -3 634 -3 634 -21 c 2,331,-1
 634 -131 l 2,332,333
 634 -143 634 -143 635 -150 c 128,-1,334
 636 -157 636 -157 638 -162 c 1,335,-1
 594 -162 l 2,336,337
 591 -161 591 -161 590.5 -158 c 128,-1,338
 590 -155 590 -155 589 -152.5 c 128,-1,339
 588 -150 588 -150 588 -148 c 1,340,-1
 586 -148 l 1,341,342
 582 -153 582 -153 573 -158 c 0,343,344
 563 -165 563 -165 549 -165 c 0,345,346
 544 -165 544 -165 538 -163 c 128,-1,347
 532 -161 532 -161 527 -157 c 0,348,349
 513 -148 513 -148 513 -121 c 0,350,351
 513 -90 513 -90 532 -76 c 0,352,353
 549 -61 549 -61 567 -56 c 0,354,355
 568 -55 568 -55 570 -55 c 0,356,357
 586 -50 586 -50 588 -45 c 2,358,-1
 588 -24 l 1,359,-1
 588 -24 l 1,309,310
755 -17 m 1,360,361
 749 -16 749 -16 743 -16 c 0,362,363
 731 -16 731 -16 720 -21 c 0,364,365
 714 -24 714 -24 712 -28.5 c 128,-1,366
 710 -33 710 -33 710 -37 c 2,367,-1
 710 -162 l 1,368,-1
 664 -162 l 1,369,-1
 664 17 l 1,370,-1
 710 17 l 1,371,-1
 710 -2 l 1,372,373
 710 0 710 0 712.5 3.5 c 128,-1,374
 715 7 715 7 720 11 c 0,375,376
 730 20 730 20 755 20 c 1,377,-1
 755 -17 l 1,378,-1
 755 -17 l 1,360,361
867 -17 m 1,379,380
 860 -16 860 -16 854 -16 c 0,381,382
 843 -16 843 -16 831 -21 c 0,383,384
 825 -24 825 -24 823 -28.5 c 128,-1,385
 821 -33 821 -33 821 -37 c 2,386,-1
 821 -162 l 1,387,-1
 776 -162 l 1,388,-1
 776 17 l 1,389,-1
 821 17 l 1,390,-1
 821 -2 l 1,391,392
 821 0 821 0 823.5 3.5 c 128,-1,393
 826 7 826 7 831 11 c 0,394,395
 841 20 841 20 867 20 c 1,396,-1
 867 -17 l 1,397,-1
 867 -17 l 1,379,380
951 -75 m 1,398,399
 935 -81 935 -81 927.5 -92 c 128,-1,400
 920 -103 920 -103 920 -115 c 0,401,402
 920 -117 920 -117 920.5 -120 c 128,-1,403
 921 -123 921 -123 922 -126 c 0,404,405
 925 -132 925 -132 932 -132 c 0,406,407
 940 -132 940 -132 945.5 -129 c 128,-1,408
 951 -126 951 -126 951 -122 c 2,409,-1
 951 -75 l 1,410,-1
 951 -75 l 1,398,399
951 -24 m 1,411,412
 951 -23 951 -23 951 -20 c 128,-1,413
 951 -17 951 -17 950 -14 c 0,414,415
 947 -8 947 -8 939 -8 c 0,416,417
 933 -8 933 -8 930 -11 c 128,-1,418
 927 -14 927 -14 927 -18 c 0,419,420
 926 -22 926 -22 926 -27 c 0,421,422
 926 -31 926 -31 926 -36 c 1,423,-1
 880 -36 l 1,424,-1
 880 -28 l 2,425,426
 880 -8 880 -8 898 6 c 0,427,428
 915 20 915 20 941 20 c 0,429,430
 964 20 964 20 980 8 c 0,431,432
 997 -3 997 -3 997 -21 c 2,433,-1
 997 -131 l 2,434,435
 997 -143 997 -143 998 -150 c 128,-1,436
 999 -157 999 -157 1000 -162 c 1,437,-1
 955 -162 l 2,438,439
 954 -161 954 -161 952.5 -158 c 128,-1,440
 951 -155 951 -155 951 -152.5 c 128,-1,441
 951 -150 951 -150 951 -148 c 1,442,-1
 949 -148 l 1,443,444
 945 -153 945 -153 936 -158 c 0,445,446
 925 -165 925 -165 912 -165 c 0,447,448
 907 -165 907 -165 900.5 -163 c 128,-1,449
 894 -161 894 -161 889 -157 c 0,450,451
 875 -148 875 -148 875 -121 c 0,452,453
 875 -90 875 -90 894 -76 c 0,454,455
 912 -61 912 -61 930 -56 c 0,456,457
 931 -55 931 -55 932 -55 c 0,458,459
 949 -50 949 -50 951 -45 c 2,460,-1
 951 -24 l 1,461,-1
 951 -24 l 1,411,412
1074 79 m 1,462,-1
 1074 -36 l 1,463,-1
 1076 -36 l 1,464,-1
 1079 -30 l 1,465,-1
 1100 17 l 1,466,-1
 1142 17 l 1,467,-1
 1109 -41 l 1,468,-1
 1150 -162 l 1,469,-1
 1107 -162 l 1,470,-1
 1084 -90 l 1,471,-1
 1083 -86 l 1,472,-1
 1081 -86 l 1,473,-1
 1079 -90 l 1,474,-1
 1074 -100 l 1,475,-1
 1074 -162 l 1,476,-1
 1028 -162 l 1,477,-1
 1028 79 l 1,478,-1
 1074 79 l 1,479,-1
 1074 79 l 1,462,-1
1248 -162 m 1,480,-1
 1248 -12 l 1,481,-1
 1225 -12 l 1,482,-1
 1225 17 l 1,483,-1
 1248 17 l 1,484,-1
 1248 22 l 2,485,486
 1248 30 1248 30 1249.5 40 c 128,-1,487
 1251 50 1251 50 1255 59 c 0,488,489
 1260 68 1260 68 1270.5 74 c 128,-1,490
 1281 80 1281 80 1300 80 c 0,491,492
 1311 80 1311 80 1316 79 c 2,493,-1
 1322 79 l 1,494,-1
 1322 50 l 1,495,496
 1320 50 1320 50 1319 50 c 2,497,498
 1319 50 1319 50 1318 50 c 0,499,500
 1313 51 1313 51 1308 51 c 256,501,502
 1303 51 1303 51 1299.5 48 c 128,-1,503
 1296 45 1296 45 1295 40 c 256,504,505
 1294 35 1294 35 1294 30 c 256,506,507
 1294 25 1294 25 1294 22 c 2,508,-1
 1294 17 l 1,509,-1
 1316 17 l 1,510,-1
 1316 -12 l 1,511,-1
 1294 -12 l 1,512,-1
 1294 -162 l 1,513,-1
 1248 -162 l 1,514,-1
 1248 -162 l 1,480,-1
1413 -27 m 1,515,516
 1414 -17 1414 -17 1407 -12 c 0,517,518
 1404 -8 1404 -8 1397 -8 c 0,519,520
 1391 -8 1391 -8 1388 -11 c 128,-1,521
 1385 -14 1385 -14 1383 -18 c 256,522,523
 1381 -22 1381 -22 1382 -27 c 2,524,-1
 1382 -118 l 2,525,526
 1382 -128 1382 -128 1388 -133 c 0,527,528
 1391 -136 1391 -136 1397 -136 c 0,529,530
 1410 -136 1410 -136 1411 -127 c 0,531,532
 1414 -123 1414 -123 1413 -118 c 2,533,-1
 1413 -27 l 1,534,-1
 1413 -27 l 1,515,516
1455 -118 m 1,535,536
 1454 -145 1454 -145 1431 -157 c 0,537,538
 1420 -165 1420 -165 1397 -165 c 0,539,540
 1376 -165 1376 -165 1364 -158 c 128,-1,541
 1352 -151 1352 -151 1347 -141 c 0,542,543
 1340 -131 1340 -131 1339 -118 c 2,544,-1
 1339 -27 l 2,545,546
 1340 -2 1340 -2 1363 13 c 0,547,548
 1375 20 1375 20 1397 20 c 256,549,550
 1419 20 1419 20 1431.5 13 c 128,-1,551
 1444 6 1444 6 1449 -3 c 0,552,553
 1455 -13 1455 -13 1455 -26 c 2,554,-1
 1455 -118 l 1,555,-1
 1455 -118 l 1,535,536
1533 -162 m 1,556,-1
 1487 -162 l 1,557,-1
 1487 17 l 1,558,-1
 1533 17 l 1,559,-1
 1533 2 l 1,560,561
 1534 3 1534 3 1538 6 c 0,562,563
 1545 12 1545 12 1558 18 c 0,564,565
 1563 20 1563 20 1569 20 c 0,566,567
 1588 20 1588 20 1596 8 c 0,568,569
 1603 -3 1603 -3 1603 -14 c 2,570,-1
 1603 -162 l 1,571,-1
 1558 -162 l 1,572,-1
 1558 -19 l 2,573,574
 1558 -14 1558 -14 1555 -13 c 128,-1,575
 1552 -12 1552 -12 1548 -12 c 256,576,577
 1544 -12 1544 -12 1541.5 -13 c 128,-1,578
 1539 -14 1539 -14 1536 -16 c 1,579,580
 1536 -16 1536 -16 1536 -16 c 1,581,582
 1535 -18 1535 -18 1533 -21 c 2,583,-1
 1533 -162 l 1,584,-1
 1533 -162 l 1,556,-1
1692 63 m 1,585,-1
 1692 17 l 1,586,-1
 1722 17 l 1,587,-1
 1722 -12 l 1,588,-1
 1692 -12 l 1,589,-1
 1692 -102 l 2,590,591
 1692 -110 1692 -110 1693 -121 c 0,592,593
 1694 -126 1694 -126 1697.5 -129 c 128,-1,594
 1701 -132 1701 -132 1706 -132 c 0,595,596
 1708 -132 1708 -132 1711.5 -131.5 c 128,-1,597
 1715 -131 1715 -131 1717 -131 c 0,598,599
 1718 -131 1718 -131 1720 -131 c 0,600,601
 1721 -131 1721 -131 1722 -131 c 1,602,-1
 1722 -162 l 2,603,604
 1721 -164 1721 -164 1720 -164 c 0,605,606
 1717 -164 1717 -164 1716 -164 c 0,607,608
 1710 -165 1710 -165 1698 -165 c 0,609,610
 1678 -165 1678 -165 1667 -158.5 c 128,-1,611
 1656 -152 1656 -152 1653 -142 c 0,612,613
 1648 -133 1648 -133 1647 -122.5 c 128,-1,614
 1646 -112 1646 -112 1646 -104 c 2,615,-1
 1646 -12 l 1,616,-1
 1622 -12 l 1,617,-1
 1622 17 l 1,618,-1
 1646 17 l 1,619,-1
 1646 63 l 1,620,-1
 1692 63 l 1,621,-1
 1692 63 l 1,585,-1
1816 -28 m 1,622,623
 1816 -22 1816 -22 1814 -14 c 0,624,625
 1812 -12 1812 -12 1809.5 -9.5 c 128,-1,626
 1807 -7 1807 -7 1801 -7 c 0,627,628
 1792 -7 1792 -7 1789 -14 c 0,629,630
 1788 -18 1788 -18 1787.5 -22 c 128,-1,631
 1787 -26 1787 -26 1787 -28 c 0,632,633
 1787 -37 1787 -37 1797 -45 c 0,634,635
 1806 -54 1806 -54 1817 -61 c 0,636,637
 1818 -61 1818 -61 1819 -62 c 0,638,639
 1833 -73 1833 -73 1845 -84 c 0,640,641
 1859 -98 1859 -98 1859 -115 c 0,642,643
 1859 -133 1859 -133 1846 -148 c 0,644,645
 1833 -165 1833 -165 1801 -165 c 0,646,647
 1780 -165 1780 -165 1767 -159 c 128,-1,648
 1754 -153 1754 -153 1747 -145 c 0,649,650
 1741 -136 1741 -136 1739 -126.5 c 128,-1,651
 1737 -117 1737 -117 1737 -110 c 1,652,-1
 1779 -110 l 1,653,654
 1779 -114 1779 -114 1779.5 -118.5 c 128,-1,655
 1780 -123 1780 -123 1783 -127 c 0,656,657
 1787 -137 1787 -137 1801 -137 c 0,658,659
 1811 -137 1811 -137 1813.5 -130 c 128,-1,660
 1816 -123 1816 -123 1816 -115 c 0,661,662
 1816 -108 1816 -108 1807.5 -99.5 c 128,-1,663
 1799 -91 1799 -91 1788 -84 c 0,664,665
 1787 -83 1787 -83 1785 -81 c 0,666,667
 1770 -73 1770 -73 1759 -60 c 0,668,669
 1745 -48 1745 -48 1745 -28 c 0,670,671
 1745 -13 1745 -13 1756 3 c 0,672,673
 1768 18 1768 18 1801 20 c 0,674,675
 1838 20 1838 20 1849 3 c 0,676,677
 1855 -3 1855 -3 1857 -12 c 128,-1,678
 1859 -21 1859 -21 1859 -28 c 1,679,-1
 1816 -28 l 1,680,-1
 1816 -28 l 1,622,623
227 -390 m 1,681,-1
 217 -340 l 1,682,-1
 216 -334 l 1,683,-1
 214 -334 l 1,684,-1
 213 -340 l 1,685,-1
 203 -390 l 1,686,-1
 182 -390 l 1,687,-1
 160 -286 l 1,688,-1
 184 -286 l 1,689,-1
 193 -340 l 1,690,-1
 193 -346 l 1,691,-1
 195 -346 l 1,692,-1
 197 -340 l 1,693,-1
 207 -286 l 1,694,-1
 222 -286 l 1,695,-1
 233 -340 l 1,696,-1
 235 -346 l 1,697,-1
 236 -346 l 1,698,-1
 237 -340 l 1,699,-1
 246 -286 l 1,700,-1
 270 -286 l 1,701,-1
 248 -390 l 1,702,-1
 227 -390 l 1,703,-1
 227 -390 l 1,681,-1
341 -390 m 1,704,-1
 331 -340 l 1,705,-1
 329 -334 l 1,706,-1
 329 -334 l 1,707,-1
 328 -340 l 1,708,-1
 318 -390 l 1,709,-1
 295 -390 l 1,710,-1
 275 -286 l 1,711,-1
 299 -286 l 1,712,-1
 307 -340 l 1,713,-1
 308 -346 l 1,714,-1
 309 -346 l 1,715,-1
 310 -340 l 1,716,-1
 322 -286 l 1,717,-1
 337 -286 l 1,718,-1
 348 -340 l 1,719,-1
 350 -346 l 1,720,-1
 351 -346 l 1,721,-1
 352 -340 l 1,722,-1
 360 -286 l 1,723,-1
 384 -286 l 1,724,-1
 363 -390 l 1,725,-1
 341 -390 l 1,726,-1
 341 -390 l 1,704,-1
456 -390 m 1,727,-1
 446 -340 l 1,728,-1
 444 -334 l 1,729,-1
 443 -334 l 1,730,-1
 442 -340 l 1,731,-1
 432 -390 l 1,732,-1
 410 -390 l 1,733,-1
 389 -286 l 1,734,-1
 413 -286 l 1,735,-1
 422 -340 l 1,736,-1
 423 -346 l 1,737,-1
 424 -346 l 1,738,-1
 425 -340 l 1,739,-1
 436 -286 l 1,740,-1
 452 -286 l 1,741,-1
 462 -340 l 1,742,-1
 463 -346 l 1,743,-1
 466 -346 l 1,744,-1
 466 -340 l 1,745,-1
 475 -286 l 1,746,-1
 499 -286 l 1,747,-1
 477 -390 l 1,748,-1
 456 -390 l 1,749,-1
 456 -390 l 1,727,-1
508 -368 m 1,750,-1
 535 -368 l 1,751,-1
 535 -390 l 1,752,-1
 508 -390 l 1,753,-1
 508 -368 l 1,754,-1
 508 -368 l 1,750,-1
575 -327 m 1,755,-1
 594 -327 l 1,756,-1
 594 -311 l 2,757,758
 594 -305 594 -305 590 -303 c 0,759,760
 587 -301 587 -301 585 -301 c 0,761,762
 581 -301 581 -301 579 -302.5 c 128,-1,763
 577 -304 577 -304 576 -306 c 0,764,765
 575 -309 575 -309 575 -311 c 2,766,-1
 575 -327 l 1,767,-1
 575 -327 l 1,755,-1
618 -352 m 1,768,-1
 618 -364 l 2,769,770
 618 -378 618 -378 604 -387 c 0,771,772
 596 -391 596 -391 583 -391 c 0,773,774
 571 -391 571 -391 564 -386.5 c 128,-1,775
 557 -382 557 -382 554 -377 c 0,776,777
 551 -371 551 -371 551 -363 c 2,778,-1
 551 -311 l 2,779,780
 551 -296 551 -296 564 -289 c 0,781,782
 571 -285 571 -285 585 -285 c 0,783,784
 597 -285 597 -285 604 -288.5 c 128,-1,785
 611 -292 611 -292 614 -297 c 0,786,787
 618 -304 618 -304 618 -311 c 2,788,-1
 618 -342 l 1,789,-1
 575 -342 l 1,790,-1
 575 -363 l 2,791,792
 575 -370 575 -370 578 -372 c 0,793,794
 581 -375 581 -375 585 -375 c 0,795,796
 591 -375 591 -375 592 -370 c 0,797,798
 594 -367 594 -367 594 -363 c 2,799,-1
 594 -352 l 1,800,-1
 618 -352 l 1,801,-1
 618 -352 l 1,768,-1
635 -390 m 1,802,-1
 635 -251 l 1,803,-1
 662 -251 l 1,804,-1
 662 -390 l 1,805,-1
 635 -390 l 1,806,-1
 635 -390 l 1,802,-1
709 -390 m 1,807,-1
 682 -390 l 1,808,-1
 682 -251 l 1,809,-1
 709 -251 l 1,810,-1
 709 -295 l 1,811,812
 709 -294 709 -294 711 -292 c 0,813,814
 716 -289 716 -289 722 -286 c 0,815,816
 726 -285 726 -285 730 -285 c 0,817,818
 740 -285 740 -285 744 -291 c 0,819,820
 749 -297 749 -297 749 -305 c 2,821,-1
 749 -390 l 1,822,-1
 722 -390 l 1,823,-1
 722 -308 l 2,824,825
 722 -305 722 -305 720.5 -304 c 128,-1,826
 719 -303 719 -303 717 -303 c 256,827,828
 715 -303 715 -303 713.5 -303.5 c 128,-1,829
 712 -304 712 -304 711 -305 c 1,830,831
 711 -305 711 -305 711 -305 c 1,832,833
 710 -306 710 -306 709 -308 c 2,834,-1
 709 -390 l 1,835,-1
 709 -390 l 1,807,-1
807 -339 m 1,836,837
 789 -348 789 -348 789 -362 c 0,838,839
 789 -363 789 -363 789 -365 c 128,-1,840
 789 -367 789 -367 791 -368 c 0,841,842
 792 -372 792 -372 797 -372 c 0,843,844
 801 -372 801 -372 804 -370 c 128,-1,845
 807 -368 807 -368 807 -366 c 2,846,-1
 807 -339 l 1,847,-1
 807 -339 l 1,836,837
807 -310 m 1,848,849
 807 -309 807 -309 807 -307 c 128,-1,850
 807 -305 807 -305 807 -304 c 0,851,852
 806 -301 806 -301 801 -301 c 0,853,854
 797 -301 797 -301 795 -302.5 c 128,-1,855
 793 -304 793 -304 793 -306 c 0,856,857
 793 -309 793 -309 793 -311 c 0,858,859
 793 -314 793 -314 793 -316 c 1,860,-1
 767 -316 l 1,861,-1
 767 -311 l 2,862,863
 767 -300 767 -300 777 -292 c 0,864,865
 787 -285 787 -285 802 -285 c 0,866,867
 815 -285 815 -285 824 -291 c 0,868,869
 834 -297 834 -297 834 -308 c 2,870,-1
 834 -371 l 2,871,872
 834 -378 834 -378 834.5 -382 c 128,-1,873
 835 -386 835 -386 835 -390 c 1,874,-1
 810 -390 l 2,875,876
 808 -388 808 -388 807.5 -386.5 c 128,-1,877
 807 -385 807 -385 807 -383.5 c 128,-1,878
 807 -382 807 -382 807 -381 c 1,879,-1
 806 -381 l 2,880,881
 803 -383 803 -383 798 -387 c 0,882,883
 792 -391 792 -391 784 -391 c 0,884,885
 782 -391 782 -391 779 -389.5 c 128,-1,886
 776 -388 776 -388 772 -386 c 0,887,888
 764 -381 764 -381 764 -366 c 0,889,890
 764 -348 764 -348 774 -339 c 0,891,892
 784 -332 784 -332 794 -328 c 0,893,894
 796 -328 796 -328 797 -328 c 0,895,896
 806 -324 806 -324 807 -321 c 2,897,-1
 807 -310 l 1,898,-1
 807 -310 l 1,848,849
903 -305 m 1,899,900
 899 -305 899 -305 896 -305 c 0,901,902
 889 -305 889 -305 883 -308 c 0,903,904
 879 -310 879 -310 878 -312.5 c 128,-1,905
 877 -315 877 -315 877 -318 c 2,906,-1
 877 -390 l 1,907,-1
 851 -390 l 1,908,-1
 851 -286 l 1,909,-1
 877 -286 l 1,910,-1
 877 -297 l 1,911,912
 877 -296 877 -296 878.5 -294 c 128,-1,913
 880 -292 880 -292 883 -290 c 0,914,915
 889 -285 889 -285 903 -285 c 1,916,-1
 903 -305 l 1,917,-1
 903 -305 l 1,899,900
966 -305 m 1,918,919
 963 -305 963 -305 960 -305 c 0,920,921
 954 -305 954 -305 946 -308 c 0,922,923
 942 -310 942 -310 941.5 -312.5 c 128,-1,924
 941 -315 941 -315 941 -318 c 2,925,-1
 941 -390 l 1,926,-1
 915 -390 l 1,927,-1
 915 -286 l 1,928,-1
 941 -286 l 1,929,-1
 941 -297 l 1,930,931
 941 -296 941 -296 942.5 -294 c 128,-1,932
 944 -292 944 -292 947 -290 c 0,933,934
 952 -285 952 -285 966 -285 c 1,935,-1
 966 -305 l 1,936,-1
 966 -305 l 1,918,919
1016 -339 m 1,937,938
 998 -348 998 -348 998 -362 c 0,939,940
 998 -363 998 -363 998 -365 c 128,-1,941
 998 -367 998 -367 999 -368 c 0,942,943
 1000 -372 1000 -372 1006 -372 c 0,944,945
 1009 -372 1009 -372 1012.5 -370 c 128,-1,946
 1016 -368 1016 -368 1016 -366 c 2,947,-1
 1016 -339 l 1,948,-1
 1016 -339 l 1,937,938
1016 -310 m 1,949,950
 1016 -309 1016 -309 1016 -307 c 128,-1,951
 1016 -305 1016 -305 1016 -304 c 0,952,953
 1013 -301 1013 -301 1008 -301 c 0,954,955
 1006 -301 1006 -301 1004 -302.5 c 128,-1,956
 1002 -304 1002 -304 1002 -306 c 0,957,958
 1000 -309 1000 -309 1000 -311 c 0,959,960
 1000 -314 1000 -314 1000 -316 c 1,961,-1
 975 -316 l 1,962,-1
 975 -311 l 2,963,964
 975 -300 975 -300 985 -292 c 0,965,966
 995 -285 995 -285 1011 -285 c 0,967,968
 1023 -285 1023 -285 1032 -291 c 0,969,970
 1042 -297 1042 -297 1042 -308 c 2,971,-1
 1042 -371 l 2,972,973
 1042 -378 1042 -378 1042.5 -382 c 128,-1,974
 1043 -386 1043 -386 1043 -390 c 1,975,-1
 1018 -390 l 2,976,977
 1017 -388 1017 -388 1016.5 -386.5 c 128,-1,978
 1016 -385 1016 -385 1016 -383.5 c 128,-1,979
 1016 -382 1016 -382 1016 -381 c 1,980,-1
 1014 -381 l 2,981,982
 1012 -383 1012 -383 1007 -387 c 0,983,984
 1000 -391 1000 -391 993 -391 c 0,985,986
 990 -391 990 -391 986.5 -389.5 c 128,-1,987
 983 -388 983 -388 980 -386 c 0,988,989
 971 -381 971 -381 971 -366 c 0,990,991
 971 -348 971 -348 983 -339 c 0,992,993
 993 -332 993 -332 1003 -328 c 0,994,995
 1004 -328 1004 -328 1006 -328 c 0,996,997
 1014 -324 1014 -324 1016 -321 c 2,998,-1
 1016 -310 l 1,999,-1
 1016 -310 l 1,949,950
1086 -251 m 1,1000,-1
 1086 -316 l 1,1001,-1
 1088 -316 l 1,1002,-1
 1089 -313 l 1,1003,-1
 1102 -286 l 1,1004,-1
 1126 -286 l 1,1005,-1
 1107 -319 l 1,1006,-1
 1131 -390 l 1,1007,-1
 1105 -390 l 1,1008,-1
 1091 -348 l 1,1009,-1
 1091 -346 l 1,1010,-1
 1090 -346 l 1,1011,-1
 1089 -348 l 1,1012,-1
 1086 -353 l 1,1013,-1
 1086 -390 l 1,1014,-1
 1060 -390 l 1,1015,-1
 1060 -251 l 1,1016,-1
 1086 -251 l 1,1017,-1
 1086 -251 l 1,1000,-1
1146 -390 m 1,1018,-1
 1146 -303 l 1,1019,-1
 1133 -303 l 1,1020,-1
 1133 -286 l 1,1021,-1
 1146 -286 l 1,1022,-1
 1146 -284 l 2,1023,1024
 1146 -279 1146 -279 1146.5 -273 c 128,-1,1025
 1147 -267 1147 -267 1151 -262 c 0,1026,1027
 1153 -249 1153 -249 1176 -249 c 0,1028,1029
 1182 -249 1182 -249 1185 -251 c 2,1030,-1
 1189 -251 l 1,1031,-1
 1189 -267 l 1,1032,1033
 1188 -267 1188 -267 1188 -267 c 257,1034,1035
 1188 -267 1188 -267 1186 -267 c 256,1036,1037
 1184 -267 1184 -267 1181 -267 c 0,1038,1039
 1177 -267 1177 -267 1175.5 -268.5 c 128,-1,1040
 1174 -270 1174 -270 1174 -273 c 0,1041,1042
 1172 -276 1172 -276 1172 -279 c 0,1043,1044
 1172 -281 1172 -281 1172 -284 c 2,1045,-1
 1172 -286 l 1,1046,-1
 1186 -286 l 1,1047,-1
 1186 -303 l 1,1048,-1
 1172 -303 l 1,1049,-1
 1172 -390 l 1,1050,-1
 1146 -390 l 1,1051,-1
 1146 -390 l 1,1018,-1
1242 -311 m 1,1052,1053
 1242 -306 1242 -306 1238 -303 c 0,1054,1055
 1236 -301 1236 -301 1232 -301 c 256,1056,1057
 1228 -301 1228 -301 1226.5 -302.5 c 128,-1,1058
 1225 -304 1225 -304 1224 -306 c 0,1059,1060
 1223 -309 1223 -309 1223 -311 c 2,1061,-1
 1223 -363 l 2,1062,1063
 1223 -370 1223 -370 1227 -372 c 0,1064,1065
 1229 -375 1229 -375 1232 -375 c 0,1066,1067
 1239 -375 1239 -375 1241 -370 c 0,1068,1069
 1242 -367 1242 -367 1242 -363 c 2,1070,-1
 1242 -311 l 1,1071,-1
 1242 -311 l 1,1052,1053
1266 -364 m 1,1072,1073
 1265 -378 1265 -378 1252 -387 c 0,1074,1075
 1244 -391 1244 -391 1232 -391 c 0,1076,1077
 1219 -391 1219 -391 1212.5 -386.5 c 128,-1,1078
 1206 -382 1206 -382 1203 -377 c 0,1079,1080
 1199 -371 1199 -371 1199 -363 c 2,1081,-1
 1199 -311 l 2,1082,1083
 1200 -296 1200 -296 1213 -289 c 0,1084,1085
 1219 -285 1219 -285 1232 -285 c 0,1086,1087
 1244 -285 1244 -285 1251 -288.5 c 128,-1,1088
 1258 -292 1258 -292 1262 -297 c 0,1089,1090
 1266 -304 1266 -304 1266 -311 c 2,1091,-1
 1266 -364 l 1,1092,-1
 1266 -364 l 1,1072,1073
1310 -390 m 1,1093,-1
 1284 -390 l 1,1094,-1
 1284 -286 l 1,1095,-1
 1310 -286 l 1,1096,-1
 1310 -295 l 1,1097,1098
 1310 -294 1310 -294 1313 -292 c 0,1099,1100
 1318 -289 1318 -289 1324 -286 c 0,1101,1102
 1328 -285 1328 -285 1332 -285 c 0,1103,1104
 1342 -285 1342 -285 1347 -291 c 0,1105,1106
 1351 -297 1351 -297 1351 -305 c 2,1107,-1
 1351 -390 l 1,1108,-1
 1325 -390 l 1,1109,-1
 1325 -308 l 2,1110,1111
 1325 -305 1325 -305 1322.5 -304 c 128,-1,1112
 1320 -303 1320 -303 1319 -303 c 0,1113,1114
 1316 -303 1316 -303 1315 -303.5 c 128,-1,1115
 1314 -304 1314 -304 1313 -305 c 1,1116,1117
 1313 -305 1313 -305 1313 -305 c 1,1118,1119
 1311 -306 1311 -306 1310 -308 c 2,1120,-1
 1310 -390 l 1,1121,-1
 1310 -390 l 1,1093,-1
1401 -261 m 1,1122,-1
 1401 -286 l 1,1123,-1
 1419 -286 l 1,1124,-1
 1419 -303 l 1,1125,-1
 1401 -303 l 1,1126,-1
 1401 -354 l 2,1127,1128
 1401 -359 1401 -359 1402 -366 c 0,1129,1130
 1402 -368 1402 -368 1404 -370 c 128,-1,1131
 1406 -372 1406 -372 1410 -372 c 0,1132,1133
 1411 -372 1411 -372 1413 -371.5 c 128,-1,1134
 1415 -371 1415 -371 1416 -371 c 2,1135,1136
 1416 -371 1416 -371 1418 -371 c 0,1137,1138
 1419 -371 1419 -371 1419 -371 c 1,1139,-1
 1419 -390 l 1,1140,1141
 1418 -390 1418 -390 1418 -390 c 2,1142,1143
 1416 -390 1416 -390 1415 -390 c 0,1144,1145
 1411 -391 1411 -391 1405 -391 c 0,1146,1147
 1382 -391 1382 -391 1378 -378 c 0,1148,1149
 1376 -372 1376 -372 1375.5 -366.5 c 128,-1,1150
 1375 -361 1375 -361 1375 -356 c 2,1151,-1
 1375 -303 l 1,1152,-1
 1362 -303 l 1,1153,-1
 1362 -286 l 1,1154,-1
 1375 -286 l 1,1155,-1
 1375 -261 l 1,1156,-1
 1401 -261 l 1,1157,-1
 1401 -261 l 1,1122,-1
1473 -313 m 1,1158,1159
 1473 -309 1473 -309 1472 -304 c 0,1160,1161
 1471 -303 1471 -303 1469 -301.5 c 128,-1,1162
 1467 -300 1467 -300 1464 -300 c 0,1163,1164
 1459 -300 1459 -300 1458 -304 c 0,1165,1166
 1457 -306 1457 -306 1456 -308 c 128,-1,1167
 1455 -310 1455 -310 1455 -313 c 0,1168,1169
 1455 -318 1455 -318 1462 -321 c 0,1170,1171
 1467 -327 1467 -327 1473 -330 c 0,1172,1173
 1474 -332 1474 -332 1474 -332 c 1,1174,1175
 1483 -338 1483 -338 1490 -344 c 0,1176,1177
 1497 -352 1497 -352 1497 -362 c 256,1178,1179
 1497 -372 1497 -372 1490 -381 c 0,1180,1181
 1482 -391 1482 -391 1464 -391 c 0,1182,1183
 1440 -391 1440 -391 1434 -380 c 0,1184,1185
 1430 -375 1430 -375 1429 -369 c 128,-1,1186
 1428 -363 1428 -363 1428 -359 c 1,1187,-1
 1452 -359 l 1,1188,1189
 1452 -362 1452 -362 1452.5 -364.5 c 128,-1,1190
 1453 -367 1453 -367 1454 -370 c 0,1191,1192
 1455 -375 1455 -375 1464 -375 c 0,1193,1194
 1469 -375 1469 -375 1471 -371 c 128,-1,1195
 1473 -367 1473 -367 1473 -362 c 0,1196,1197
 1473 -358 1473 -358 1468 -353 c 128,-1,1198
 1463 -348 1463 -348 1457 -344 c 0,1199,1200
 1455 -343 1455 -343 1455 -343 c 2,1201,1202
 1447 -338 1447 -338 1440 -330 c 0,1203,1204
 1431 -324 1431 -324 1431 -313 c 0,1205,1206
 1431 -304 1431 -304 1438 -294 c 0,1207,1208
 1445 -285 1445 -285 1463 -285 c 0,1209,1210
 1486 -285 1486 -285 1492 -294 c 0,1211,1212
 1495 -297 1495 -297 1496 -302.5 c 128,-1,1213
 1497 -308 1497 -308 1497 -313 c 1,1214,-1
 1473 -313 l 1,1215,-1
 1473 -313 l 1,1158,1159
1510 -368 m 1,1216,-1
 1536 -368 l 1,1217,-1
 1536 -390 l 1,1218,-1
 1510 -390 l 1,1219,-1
 1510 -368 l 1,1220,-1
 1510 -368 l 1,1216,-1
1578 -366 m 1,1221,1222
 1578 -368 1578 -368 1578.5 -370.5 c 128,-1,1223
 1579 -373 1579 -373 1584 -373 c 256,1224,1225
 1589 -373 1589 -373 1590.5 -372 c 128,-1,1226
 1592 -371 1592 -371 1592 -366 c 2,1227,-1
 1592 -351 l 1,1228,-1
 1619 -351 l 1,1229,-1
 1619 -361 l 2,1230,1231
 1619 -378 1619 -378 1610 -385 c 0,1232,1233
 1602 -391 1602 -391 1584 -391 c 0,1234,1235
 1570 -391 1570 -391 1562 -385 c 0,1236,1237
 1552 -377 1552 -377 1552 -361 c 2,1238,-1
 1552 -315 l 2,1239,1240
 1552 -297 1552 -297 1562 -291 c 0,1241,1242
 1570 -285 1570 -285 1584 -285 c 0,1243,1244
 1602 -285 1602 -285 1610 -291 c 0,1245,1246
 1619 -296 1619 -296 1619 -314 c 2,1247,-1
 1619 -323 l 1,1248,-1
 1592 -323 l 1,1249,-1
 1592 -310 l 2,1250,1251
 1592 -305 1592 -305 1590.5 -303 c 128,-1,1252
 1589 -301 1589 -301 1584 -301 c 256,1253,1254
 1579 -301 1579 -301 1578.5 -303.5 c 128,-1,1255
 1578 -306 1578 -306 1578 -310 c 2,1256,-1
 1578 -366 l 1,1257,-1
 1578 -366 l 1,1221,1222
1675 -311 m 1,1258,1259
 1675 -306 1675 -306 1672 -303 c 0,1260,1261
 1670 -301 1670 -301 1667 -301 c 0,1262,1263
 1663 -301 1663 -301 1661 -302.5 c 128,-1,1264
 1659 -304 1659 -304 1658 -306 c 0,1265,1266
 1658 -309 1658 -309 1658 -311 c 2,1267,-1
 1658 -363 l 2,1268,1269
 1658 -370 1658 -370 1660 -372 c 0,1270,1271
 1663 -375 1663 -375 1667 -375 c 0,1272,1273
 1674 -375 1674 -375 1674 -370 c 0,1274,1275
 1675 -367 1675 -367 1675 -363 c 2,1276,-1
 1675 -311 l 1,1277,-1
 1675 -311 l 1,1258,1259
1699 -364 m 1,1278,1279
 1699 -378 1699 -378 1685 -387 c 0,1280,1281
 1679 -391 1679 -391 1667 -391 c 0,1282,1283
 1654 -391 1654 -391 1647 -386.5 c 128,-1,1284
 1640 -382 1640 -382 1637 -377 c 0,1285,1286
 1634 -371 1634 -371 1632 -363 c 2,1287,-1
 1632 -311 l 2,1288,1289
 1634 -296 1634 -296 1646 -289 c 0,1290,1291
 1654 -285 1654 -285 1667 -285 c 0,1292,1293
 1679 -285 1679 -285 1686 -288.5 c 128,-1,1294
 1693 -292 1693 -292 1696 -297 c 0,1295,1296
 1699 -304 1699 -304 1699 -311 c 2,1297,-1
 1699 -364 l 1,1298,-1
 1699 -364 l 1,1278,1279
1785 -390 m 1,1299,-1
 1761 -390 l 1,1300,-1
 1761 -308 l 2,1301,1302
 1761 -305 1761 -305 1758.5 -304 c 128,-1,1303
 1756 -303 1756 -303 1754 -303 c 0,1304,1305
 1750 -303 1750 -303 1747 -305 c 1,1306,1307
 1747 -305 1747 -305 1747 -305 c 1,1308,1309
 1745 -306 1745 -306 1744 -308 c 2,1310,-1
 1744 -390 l 1,1311,-1
 1718 -390 l 1,1312,-1
 1718 -286 l 1,1313,-1
 1744 -286 l 1,1314,-1
 1744 -295 l 1,1315,1316
 1745 -294 1745 -294 1747 -292 c 0,1317,1318
 1751 -289 1751 -289 1759 -286 c 0,1319,1320
 1763 -285 1763 -285 1766 -285 c 0,1321,1322
 1773 -285 1773 -285 1777.5 -288 c 128,-1,1323
 1782 -291 1782 -291 1783 -296 c 1,1324,1325
 1785 -295 1785 -295 1788 -294 c 2,1326,1327
 1788 -294 1788 -294 1788 -292 c 0,1328,1329
 1793 -289 1793 -289 1801 -286 c 0,1330,1331
 1804 -285 1804 -285 1807 -285 c 0,1332,1333
 1818 -285 1818 -285 1822 -291 c 0,1334,1335
 1827 -297 1827 -297 1827 -305 c 2,1336,-1
 1827 -390 l 1,1337,-1
 1802 -390 l 1,1338,-1
 1802 -308 l 2,1339,1340
 1802 -305 1802 -305 1800 -304 c 128,-1,1341
 1798 -303 1798 -303 1795 -303 c 256,1342,1343
 1792 -303 1792 -303 1788 -305 c 0,1344,1345
 1787 -306 1787 -306 1785 -308 c 2,1346,-1
 1785 -390 l 1,1347,-1
 1785 -390 l 1,1299,-1
EndSplineSet
EndChar

StartChar: exclam
Encoding: 33 33 4
Width: 2002
Flags: W
LayerCount: 2
Fore
SplineSet
998 1638 m 256,0,1
 1247 1638 1247 1638 1483 1510.5 c 128,-1,2
 1719 1383 1719 1383 1853 1145.5 c 128,-1,3
 1987 908 1987 908 1987 649 c 0,4,5
 1987 393 1987 393 1857 158.5 c 128,-1,6
 1727 -76 1727 -76 1491.5 -206.5 c 128,-1,7
 1256 -337 1256 -337 998 -337 c 0,8,9
 743 -337 743 -337 507.5 -206.5 c 128,-1,10
 272 -76 272 -76 142 158.5 c 128,-1,11
 12 393 12 393 12 649 c 0,12,13
 12 908 12 908 145 1145.5 c 128,-1,14
 278 1383 278 1383 513.5 1510.5 c 128,-1,15
 749 1638 749 1638 998 1638 c 256,0,1
587 223 m 0,16,17
 630 184 630 184 665.5 162 c 128,-1,18
 701 140 701 140 708 148 c 0,19,20
 711 151 711 151 711.5 156.5 c 128,-1,21
 712 162 712 162 706 170 c 0,22,23
 697 181 697 181 694.5 221.5 c 128,-1,24
 692 262 692 262 721 315 c 0,25,26
 745 354 745 354 823 452 c 1,27,28
 793 406 793 406 843 360 c 0,29,30
 868 338 868 338 892 333 c 1,31,32
 889 330 889 330 885.5 327.5 c 128,-1,33
 882 325 882 325 879.5 322.5 c 128,-1,34
 877 320 877 320 875 320 c 0,35,36
 874 319 874 319 866 321 c 128,-1,37
 858 323 858 323 849 330 c 0,38,39
 846 331 846 331 841 331 c 128,-1,40
 836 331 836 331 833 331 c 0,41,42
 832 329 832 329 832.5 327.5 c 128,-1,43
 833 326 833 326 834 324 c 0,44,45
 834 323 834 323 835 323 c 0,46,47
 836 321 836 321 843 316 c 128,-1,48
 850 311 850 311 862 305.5 c 128,-1,49
 874 300 874 300 891 301 c 0,50,51
 926 303 926 303 948 330 c 0,52,53
 948 331 948 331 947 333 c 128,-1,54
 946 335 946 335 944 337 c 1,55,56
 942 335 942 335 938.5 333.5 c 128,-1,57
 935 332 935 332 932 332 c 0,58,59
 931 332 931 332 930 333 c 128,-1,60
 929 334 929 334 928 335 c 1,61,62
 940 339 940 339 949 349 c 0,63,64
 950 350 950 350 954 355 c 1,65,66
 963 355 963 355 970.5 362.5 c 128,-1,67
 978 370 978 370 982 374 c 0,68,69
 983 374 983 374 983 375 c 0,70,71
 980 376 980 376 978 374 c 2,72,73
 978 374 978 374 976 373 c 0,74,75
 974 371 974 371 973 370 c 128,-1,76
 972 369 972 369 971 369 c 0,77,78
 968 368 968 368 966 368 c 1,79,80
 998 404 998 404 1056 467.5 c 128,-1,81
 1114 531 1114 531 1162 583 c 1,82,-1
 1209 540 l 2,83,84
 1211 538 1211 538 1216.5 541 c 128,-1,85
 1222 544 1222 544 1228 550 c 0,86,87
 1233 556 1233 556 1235.5 562 c 128,-1,88
 1238 568 1238 568 1236 570 c 2,89,-1
 1217 587 l 2,90,91
 1216 588 1216 588 1216 590 c 128,-1,92
 1216 592 1216 592 1218 594 c 2,93,-1
 1222 598 l 2,94,95
 1223 599 1223 599 1225 599.5 c 128,-1,96
 1227 600 1227 600 1228 599 c 2,97,-1
 1247 582 l 2,98,99
 1249 580 1249 580 1254.5 583 c 128,-1,100
 1260 586 1260 586 1266 592 c 256,101,102
 1272 598 1272 598 1274 604 c 128,-1,103
 1276 610 1276 610 1275 612 c 2,104,-1
 1255 629 l 2,105,106
 1254 630 1254 630 1254.5 632 c 128,-1,107
 1255 634 1255 634 1256 636 c 2,108,-1
 1260 640 l 2,109,110
 1261 642 1261 642 1263 642 c 128,-1,111
 1265 642 1265 642 1266 641 c 2,112,-1
 1285 624 l 2,113,114
 1287 622 1287 622 1293 625 c 128,-1,115
 1299 628 1299 628 1305 635 c 0,116,117
 1310 641 1310 641 1312.5 647 c 128,-1,118
 1315 653 1315 653 1313 654 c 2,119,-1
 1276 688 l 1,120,-1
 1276 688 l 1,121,-1
 1367 788 l 2,122,123
 1386 809 1386 809 1372 832 c 0,124,125
 1373 833 1373 833 1373 833 c 2,126,127
 1381 843 1381 843 1392.5 856.5 c 128,-1,128
 1404 870 1404 870 1411 879 c 0,129,130
 1431 910 1431 910 1424.5 943.5 c 128,-1,131
 1418 977 1418 977 1386 1002 c 0,132,133
 1376 1010 1376 1010 1367 1014 c 1,134,135
 1439 1094 1439 1094 1439 1094 c 1,136,137
 1447 1092 1447 1092 1453 1097 c 128,-1,138
 1459 1102 1459 1102 1462 1106 c 0,139,140
 1464 1108 1464 1108 1465 1108 c 0,141,142
 1468 1107 1468 1107 1470.5 1109 c 128,-1,143
 1473 1111 1473 1111 1475 1113 c 0,144,145
 1476 1114 1476 1114 1477 1114 c 0,146,147
 1478 1115 1478 1115 1480 1114 c 0,148,149
 1482 1114 1482 1114 1484 1114.5 c 128,-1,150
 1486 1115 1486 1115 1488 1116 c 0,151,152
 1489 1117 1489 1117 1492 1119 c 128,-1,153
 1495 1121 1495 1121 1498 1124 c 0,154,155
 1498 1127 1498 1127 1492.5 1135 c 128,-1,156
 1487 1143 1487 1143 1477 1151 c 0,157,158
 1468 1159 1468 1159 1460 1164 c 128,-1,159
 1452 1169 1452 1169 1449 1169 c 0,160,161
 1447 1165 1447 1165 1444.5 1162 c 128,-1,162
 1442 1159 1442 1159 1442 1157 c 0,163,164
 1441 1156 1441 1156 1441 1154 c 128,-1,165
 1441 1152 1441 1152 1441 1149 c 0,166,167
 1441 1148 1441 1148 1441 1147 c 2,168,169
 1441 1147 1441 1147 1440 1145 c 0,170,171
 1438 1142 1438 1142 1436.5 1139.5 c 128,-1,172
 1435 1137 1435 1137 1436 1134 c 2,173,174
 1436 1134 1436 1134 1434 1132 c 0,175,176
 1430 1128 1430 1128 1426 1121 c 128,-1,177
 1422 1114 1422 1114 1424 1107 c 1,178,-1
 1347 1022 l 1,179,180
 1323 1027 1323 1027 1304.5 1021 c 128,-1,181
 1286 1015 1286 1015 1274 1004 c 0,182,183
 1252 983 1252 983 1203.5 933.5 c 128,-1,184
 1155 884 1155 884 1103 828 c 1,185,-1
 1092 838 l 1,186,187
 1095 843 1095 843 1096 846 c 0,188,189
 1096 847 1096 847 1096 847.5 c 128,-1,190
 1096 848 1096 848 1096 848 c 2,191,192
 1096 849 1096 849 1096 849 c 2,193,194
 1096 851 1096 851 1096 851 c 2,195,196
 1097 852 1097 852 1096.5 852.5 c 128,-1,197
 1096 853 1096 853 1096 855 c 2,198,199
 1096 855 1096 855 1096 856 c 2,200,-1
 1092 859 l 2,201,202
 1091 859 1091 859 1090 860 c 1,203,204
 1090 859 1090 859 1089 859.5 c 128,-1,205
 1088 860 1088 860 1087 859 c 0,206,207
 1079 855 1079 855 1071 846 c 0,208,209
 1064 838 1064 838 1060 829 c 0,210,211
 1059 828 1059 828 1059.5 827.5 c 128,-1,212
 1060 827 1060 827 1060 826 c 256,213,214
 1060 825 1060 825 1060 824 c 2,215,-1
 1064 821 l 2,216,217
 1065 821 1065 821 1066 821 c 2,218,219
 1066 821 1066 821 1067 820.5 c 128,-1,220
 1068 820 1068 820 1069 821 c 2,221,222
 1069 821 1069 821 1070 821 c 0,223,224
 1071 822 1071 822 1072 821 c 1,225,226
 1073 822 1073 822 1073.5 822 c 128,-1,227
 1074 822 1074 822 1074 822 c 2,228,229
 1078 823 1078 823 1082 827 c 1,230,-1
 1093 817 l 1,231,232
 1078 801 1078 801 1064 786 c 1,233,-1
 1053 796 l 1,234,235
 1057 800 1057 800 1058 804 c 2,236,237
 1058 804 1058 804 1058 804.5 c 128,-1,238
 1058 805 1058 805 1057 806 c 0,239,240
 1057 807 1057 807 1057 807 c 2,241,242
 1057 808 1057 808 1058 809 c 2,243,244
 1058 809 1058 809 1058 810 c 128,-1,245
 1058 811 1058 811 1058 812 c 0,246,247
 1057 813 1057 813 1058 813 c 1,248,-1
 1054 817 l 2,249,250
 1052 817 1052 817 1052 817 c 2,251,252
 1051 817 1051 817 1050.5 817.5 c 128,-1,253
 1050 818 1050 818 1049 817 c 0,254,255
 1041 813 1041 813 1033 804 c 0,256,257
 1026 796 1026 796 1022 787 c 0,258,259
 1021 786 1021 786 1021.5 785 c 128,-1,260
 1022 784 1022 784 1022 784 c 2,261,262
 1022 783 1022 783 1022 783 c 1,263,-1
 1026 779 l 1,264,265
 1026 779 1026 779 1027 779 c 0,266,267
 1028 778 1028 778 1029 778 c 128,-1,268
 1030 778 1030 778 1031 779 c 0,269,270
 1031 780 1031 780 1032 779 c 1,271,272
 1033 780 1033 780 1033 779 c 1,273,274
 1034 779 1034 779 1034.5 779 c 128,-1,275
 1035 779 1035 779 1036 780 c 0,276,277
 1039 781 1039 781 1044 785 c 1,278,-1
 1054 776 l 1,279,280
 1038 759 1038 759 1025 745 c 1,281,-1
 1015 753 l 1,282,283
 1018 758 1018 758 1019 761 c 0,284,285
 1020 762 1020 762 1020 762.5 c 128,-1,286
 1020 763 1020 763 1019 764 c 0,287,288
 1019 765 1019 765 1019 765 c 2,289,290
 1019 766 1019 766 1020 767 c 2,291,292
 1020 767 1020 767 1020 768 c 128,-1,293
 1020 769 1020 769 1019 770 c 0,294,295
 1019 771 1019 771 1019 771 c 1,296,-1
 1015 775 l 2,297,298
 1014 775 1014 775 1014 775 c 2,299,300
 1013 775 1013 775 1012 775 c 128,-1,301
 1011 775 1011 775 1011 775 c 1,302,303
 1002 770 1002 770 995 762 c 0,304,305
 987 754 987 754 984 745 c 0,306,307
 983 744 983 744 983 743 c 128,-1,308
 983 742 983 742 984 742 c 1,309,310
 983 741 983 741 984 740 c 2,311,-1
 988 737 l 1,312,313
 988 737 988 737 989 737 c 0,314,315
 990 736 990 736 991 736 c 128,-1,316
 992 736 992 736 993 737 c 2,317,318
 993 737 993 737 994 737 c 2,319,320
 994 737 994 737 995 737 c 256,321,322
 996 737 996 737 996.5 737 c 128,-1,323
 997 737 997 737 998 738 c 0,324,325
 1001 739 1001 739 1005 743 c 1,326,-1
 1015 734 l 1,327,328
 987 705 987 705 987 704 c 0,329,330
 983 702 983 702 977 699.5 c 128,-1,331
 971 697 971 697 966.5 694.5 c 128,-1,332
 962 692 962 692 961 691 c 256,333,334
 960 690 960 690 958.5 688.5 c 128,-1,335
 957 687 957 687 955.5 685 c 128,-1,336
 954 683 954 683 953 681 c 0,337,338
 953 680 953 680 955 677.5 c 128,-1,339
 957 675 957 675 959 673 c 0,340,341
 855 558 855 558 763.5 469.5 c 128,-1,342
 672 381 672 381 654 365 c 0,343,344
 622 338 622 338 594.5 331.5 c 128,-1,345
 567 325 567 325 547.5 329 c 128,-1,346
 528 333 528 333 522 336 c 0,347,348
 514 342 514 342 508.5 341 c 128,-1,349
 503 340 503 340 500 337 c 0,350,351
 494 329 494 329 518.5 296.5 c 128,-1,352
 543 264 543 264 587 223 c 0,16,17
1125 748 m 1,353,-1
 1136 760 l 1,354,-1
 1162 736 l 2,355,356
 1163 735 1163 735 1163 733 c 128,-1,357
 1163 731 1163 731 1162 730 c 2,358,-1
 1158 725 l 2,359,360
 1156 724 1156 724 1154.5 723.5 c 128,-1,361
 1153 723 1153 723 1151 724 c 2,362,-1
 1125 748 l 1,353,-1
1190 689 m 1,363,-1
 1173 705 l 2,364,365
 1172 706 1172 706 1172 708 c 128,-1,366
 1172 710 1172 710 1174 711 c 2,367,-1
 1177 716 l 2,368,369
 1178 717 1178 717 1180 717.5 c 128,-1,370
 1182 718 1182 718 1184 716 c 2,371,-1
 1202 700 l 1,372,373
 1200 698 1200 698 1197 696.5 c 128,-1,374
 1194 695 1194 695 1193 694 c 0,375,376
 1192 692 1192 692 1190 689 c 1,363,-1
1175 648 m 1,377,378
 1172 641 1172 641 1167 633 c 1,379,-1
 1135 662 l 2,380,381
 1133 663 1133 663 1133.5 665 c 128,-1,382
 1134 667 1134 667 1135 669 c 2,383,-1
 1139 673 l 2,384,385
 1140 675 1140 675 1142 675 c 128,-1,386
 1144 675 1144 675 1146 674 c 2,387,-1
 1175 648 l 1,377,378
1087 706 m 1,388,-1
 1098 717 l 1,389,-1
 1123 694 l 2,390,391
 1125 693 1125 693 1125 691 c 128,-1,392
 1125 689 1125 689 1124 687 c 2,393,-1
 1120 683 l 2,394,395
 1118 681 1118 681 1116 681 c 128,-1,396
 1114 681 1114 681 1112 682 c 2,397,-1
 1087 706 l 1,388,-1
1303 825 m 2,398,-1
 1261 779 l 1,399,400
 1262 793 1262 793 1255.5 801 c 128,-1,401
 1249 809 1249 809 1242 812.5 c 128,-1,402
 1235 816 1235 816 1231 816 c 1,403,404
 1231 816 1231 816 1231 816 c 1,405,406
 1228 817 1228 817 1227 817.5 c 128,-1,407
 1226 818 1226 818 1225 820 c 1,408,409
 1225 820 1225 820 1225 820 c 1,410,411
 1224 821 1224 821 1223.5 822.5 c 128,-1,412
 1223 824 1223 824 1223.5 825.5 c 128,-1,413
 1224 827 1224 827 1224 828 c 128,-1,414
 1224 829 1224 829 1224 829 c 1,415,-1
 1214 831 l 1,416,417
 1214 831 1214 831 1215 828 c 0,418,419
 1214 827 1214 827 1214 825 c 128,-1,420
 1214 823 1214 823 1214 821 c 0,421,422
 1215 817 1215 817 1218.5 815 c 128,-1,423
 1222 813 1222 813 1225 812 c 0,424,425
 1227 812 1227 812 1232.5 810 c 128,-1,426
 1238 808 1238 808 1243 804 c 128,-1,427
 1248 800 1248 800 1250 793 c 128,-1,428
 1252 786 1252 786 1247 777 c 0,429,430
 1244 771 1244 771 1235.5 766.5 c 128,-1,431
 1227 762 1227 762 1216 766 c 0,432,433
 1203 773 1203 773 1196 781 c 0,434,435
 1192 785 1192 785 1191 785 c 0,436,437
 1186 787 1186 787 1180 785 c 1,438,439
 1180 785 1180 785 1180 785 c 1,440,-1
 1181 775 l 1,441,442
 1181 775 1181 775 1182.5 775.5 c 128,-1,443
 1184 776 1184 776 1185.5 776 c 128,-1,444
 1187 776 1187 776 1189 776 c 0,445,446
 1193 774 1193 774 1194 773 c 1,447,448
 1192 772 1192 772 1189.5 771 c 128,-1,449
 1187 770 1187 770 1187 769 c 2,450,-1
 1200 757 l 1,451,452
 1200 757 1200 757 1201 757.5 c 128,-1,453
 1202 758 1202 758 1204.5 759 c 128,-1,454
 1207 760 1207 760 1210 760 c 0,455,456
 1216 757 1216 757 1224 755.5 c 128,-1,457
 1232 754 1232 754 1240 756 c 1,458,-1
 1222 737 l 1,459,-1
 1164 790 l 2,460,461
 1166 793 1166 793 1169 796 c 0,462,463
 1276 914 1276 914 1351 996 c 1,464,465
 1361 992 1361 992 1373 984 c 0,466,467
 1398 965 1398 965 1402 941 c 128,-1,468
 1406 917 1406 917 1393 896 c 0,469,470
 1390 891 1390 891 1382.5 881 c 128,-1,471
 1375 871 1375 871 1367 861 c 128,-1,472
 1359 851 1359 851 1355 845 c 1,473,474
 1339 850 1339 850 1325.5 842.5 c 128,-1,475
 1312 835 1312 835 1303 825 c 2,398,-1
1249 713 m 1,476,-1
 1243 718 l 1,477,478
 1243 718 1243 718 1244 719 c 0,479,480
 1249 725 1249 725 1262 739 c 128,-1,481
 1275 753 1275 753 1290 770 c 128,-1,482
 1305 787 1305 787 1317 800 c 128,-1,483
 1329 813 1329 813 1331 815 c 0,484,485
 1334 817 1334 817 1336 817 c 128,-1,486
 1338 817 1338 817 1341 817 c 0,487,488
 1342 816 1342 816 1343 816 c 1,489,-1
 1249 713 l 1,476,-1
1189 613 m 1,490,491
 1195 620 1195 620 1200 626 c 1,492,-1
 1210 616 l 2,493,494
 1211 614 1211 614 1211 612 c 128,-1,495
 1211 610 1211 610 1210 609 c 2,496,-1
 1206 605 l 2,497,498
 1204 603 1204 603 1202 602.5 c 128,-1,499
 1200 602 1200 602 1199 604 c 2,500,-1
 1189 613 l 1,490,491
952 396 m 1,501,502
 951 397 951 397 950 398 c 0,503,504
 948 402 948 402 947.5 406 c 128,-1,505
 947 410 947 410 953 417 c 256,506,507
 959 424 959 424 991 458 c 0,508,509
 993 460 993 460 995 459.5 c 128,-1,510
 997 459 997 459 998 458 c 2,511,-1
 1000 457 l 2,512,513
 1001 456 1001 456 1001.5 454 c 128,-1,514
 1002 452 1002 452 1001 449 c 2,515,-1
 952 396 l 1,501,502
849 444 m 0,516,517
 852 447 852 447 912.5 514 c 128,-1,518
 973 581 973 581 1060 676 c 1,519,-1
 1140 603 l 1,520,-1
 1018 469 l 2,521,522
 1016 468 1016 468 1014 468 c 128,-1,523
 1012 468 1012 468 1011 469 c 2,524,-1
 1009 471 l 2,525,526
 1008 472 1008 472 1007.5 474 c 128,-1,527
 1007 476 1007 476 1008 478 c 0,528,529
 1035 507 1035 507 1063 538 c 128,-1,530
 1091 569 1091 569 1110 590 c 128,-1,531
 1129 611 1129 611 1129 611 c 1,532,-1
 1109 630 l 1,533,-1
 1065 582 l 1,534,535
 1066 596 1066 596 1055 606 c 0,536,537
 1046 614 1046 614 1034 614 c 128,-1,538
 1022 614 1022 614 1013 604 c 0,539,540
 1005 595 1005 595 1005.5 582.5 c 128,-1,541
 1006 570 1006 570 1015 562 c 0,542,543
 1026 552 1026 552 1041 555 c 1,544,-1
 928 432 l 2,545,546
 925 428 925 428 921 419 c 128,-1,547
 917 410 917 410 918 398.5 c 128,-1,548
 919 387 919 387 933 375 c 1,549,-1
 930 373 l 2,550,551
 928 374 928 374 925 375.5 c 128,-1,552
 922 377 922 377 921 379 c 1,553,554
 921 378 921 378 920 378 c 0,555,556
 919 375 919 375 919 371.5 c 128,-1,557
 919 368 919 368 921 364 c 1,558,559
 920 364 920 364 919 363 c 1,560,561
 915 368 915 368 910 376 c 128,-1,562
 905 384 905 384 902 389 c 1,563,564
 901 388 901 388 899.5 387 c 128,-1,565
 898 386 898 386 897 385 c 128,-1,566
 896 384 896 384 896 384 c 2,567,568
 896 381 896 381 900 374.5 c 128,-1,569
 904 368 904 368 909 359 c 1,570,571
 886 357 886 357 859 382 c 0,572,573
 826 419 826 419 849 444 c 0,516,517
1052 569 m 256,574,575
 1046 562 1046 562 1036.5 561.5 c 128,-1,576
 1027 561 1027 561 1020 567 c 256,577,578
 1013 573 1013 573 1013 583 c 128,-1,579
 1013 593 1013 593 1018 599 c 0,580,581
 1025 606 1025 606 1034.5 606.5 c 128,-1,582
 1044 607 1044 607 1050 601 c 0,583,584
 1057 594 1057 594 1057.5 585 c 128,-1,585
 1058 576 1058 576 1052 569 c 256,574,575
EndSplineSet
EndChar

StartChar: quotedbl
Encoding: 34 34 5
Width: 2002
Flags: W
LayerCount: 2
Fore
SplineSet
998 1638 m 256,0,1
 1247 1638 1247 1638 1483 1510.5 c 128,-1,2
 1719 1383 1719 1383 1853 1145.5 c 128,-1,3
 1987 908 1987 908 1987 649 c 0,4,5
 1987 393 1987 393 1857 158.5 c 128,-1,6
 1727 -76 1727 -76 1491.5 -206.5 c 128,-1,7
 1256 -337 1256 -337 998 -337 c 0,8,9
 743 -337 743 -337 507.5 -206.5 c 128,-1,10
 272 -76 272 -76 142 158.5 c 128,-1,11
 12 393 12 393 12 649 c 0,12,13
 12 908 12 908 145 1145.5 c 128,-1,14
 278 1383 278 1383 513.5 1510.5 c 128,-1,15
 749 1638 749 1638 998 1638 c 256,0,1
1592 743 m 0,16,17
 1583 750 1583 750 1524.5 788 c 128,-1,18
 1466 826 1466 826 1385 869.5 c 128,-1,19
 1304 913 1304 913 1229 938 c 0,20,21
 1226 939 1226 939 1222.5 938 c 128,-1,22
 1219 937 1219 937 1219.5 933 c 128,-1,23
 1220 929 1220 929 1226 922 c 0,24,25
 1229 918 1229 918 1235 913 c 0,26,27
 1250 898 1250 898 1268 877.5 c 128,-1,28
 1286 857 1286 857 1293 844 c 0,29,30
 1298 830 1298 830 1296 811.5 c 128,-1,31
 1294 793 1294 793 1290 774 c 0,32,33
 1289 771 1289 771 1288 767 c 0,34,35
 1288 765 1288 765 1288 762 c 0,36,37
 1282 744 1282 744 1277.5 696.5 c 128,-1,38
 1273 649 1273 649 1286 577 c 1,39,40
 1272 562 1272 562 1272 542 c 1,41,-1
 1254 540 l 2,42,43
 1253 541 1253 541 1251.5 539.5 c 128,-1,44
 1250 538 1250 538 1251 537 c 2,45,-1
 1251 535 l 2,46,47
 1251 534 1251 534 1252.5 533 c 128,-1,48
 1254 532 1254 532 1255 532 c 2,49,-1
 1273 533 l 1,50,51
 1274 527 1274 527 1277 520 c 0,52,53
 1287 501 1287 501 1308 495 c 1,54,55
 1315 475 1315 475 1324 454 c 1,56,57
 1319 442 1319 442 1320 430 c 1,58,-1
 1301 428 l 2,59,60
 1299 428 1299 428 1298.5 427 c 128,-1,61
 1298 426 1298 426 1298 425 c 2,62,-1
 1297 424 l 2,63,64
 1297 422 1297 422 1298.5 421 c 128,-1,65
 1300 420 1300 420 1302 420 c 2,66,-1
 1322 422 l 1,67,68
 1323 417 1323 417 1326 412 c 0,69,70
 1336 393 1336 393 1356 388 c 1,71,72
 1365 373 1365 373 1374 357 c 1,73,74
 1362 343 1362 343 1363 325 c 1,75,-1
 1338 323 l 2,76,77
 1337 322 1337 322 1336 321 c 128,-1,78
 1335 320 1335 320 1335 319 c 2,79,-1
 1335 318 l 2,80,81
 1335 316 1335 316 1336.5 315.5 c 128,-1,82
 1338 315 1338 315 1339 314 c 2,83,-1
 1364 316 l 1,84,85
 1365 310 1365 310 1369 303 c 0,86,87
 1369 301 1369 301 1370 300 c 0,88,89
 1370 299 1370 299 1371 299 c 1,90,91
 1360 288 1360 288 1344 290 c 128,-1,92
 1328 292 1328 292 1316 316 c 0,93,94
 1313 321 1313 321 1306 335 c 0,95,96
 1305 341 1305 341 1302 346 c 0,97,98
 1299 352 1299 352 1293 356 c 0,99,100
 1268 398 1268 398 1226 469 c 0,101,102
 1225 471 1225 471 1223 473 c 0,103,104
 1222 475 1222 475 1220 478 c 0,105,106
 1171 561 1171 561 1110 659 c 1,107,108
 1121 654 1121 654 1131 659 c 1,109,-1
 1140 644 l 1,110,111
 1129 631 1129 631 1137 616 c 0,112,113
 1141 608 1141 608 1149 605 c 128,-1,114
 1157 602 1157 602 1165 605 c 1,115,-1
 1295 388 l 2,116,117
 1296 386 1296 386 1297.5 386 c 128,-1,118
 1299 386 1299 386 1300 387 c 2,119,-1
 1303 388 l 2,120,121
 1304 390 1304 390 1304 391 c 128,-1,122
 1304 392 1304 392 1304 393 c 2,123,-1
 1174 608 l 1,124,125
 1181 615 1181 615 1182.5 623.5 c 128,-1,126
 1184 632 1184 632 1180 639 c 0,127,128
 1175 648 1175 648 1166 651 c 128,-1,129
 1157 654 1157 654 1149 650 c 1,130,-1
 1140 665 l 1,131,132
 1151 679 1151 679 1143 693 c 0,133,134
 1139 702 1139 702 1129 705 c 128,-1,135
 1119 708 1119 708 1110 703 c 0,136,137
 1098 696 1098 696 1097 681 c 1,138,139
 1090 693 1090 693 1083 704 c 1,140,141
 1091 710 1091 710 1093.5 719 c 128,-1,142
 1096 728 1096 728 1092 737 c 0,143,144
 1087 746 1087 746 1077.5 749 c 128,-1,145
 1068 752 1068 752 1059 747 c 0,146,147
 1058 747 1058 747 1058 747 c 257,148,149
 1058 747 1058 747 1058 747 c 1,150,151
 1057 748 1057 748 1055 749 c 0,152,153
 1054 752 1054 752 1052 755 c 0,154,155
 1057 759 1057 759 1058.5 764.5 c 128,-1,156
 1060 770 1060 770 1057 776 c 256,157,158
 1054 782 1054 782 1047.5 784 c 128,-1,159
 1041 786 1041 786 1036 783 c 1,160,161
 1033 786 1033 786 1032 789 c 0,162,163
 1031 790 1031 790 1031 791 c 0,164,165
 1039 796 1039 796 1041.5 805.5 c 128,-1,166
 1044 815 1044 815 1040 824 c 0,167,168
 1035 833 1035 833 1025 835.5 c 128,-1,169
 1015 838 1015 838 1006 833 c 1,170,171
 1006 833 1006 833 1005 833 c 1,172,173
 1005 833 1005 833 1005 833 c 1,174,175
 1001 839 1001 839 997 845 c 1,176,177
 1006 851 1006 851 1008 860 c 128,-1,178
 1010 869 1010 869 1006 878 c 0,179,180
 1001 887 1001 887 991.5 889.5 c 128,-1,181
 982 892 982 892 973 888 c 0,182,183
 972 887 972 887 972 887 c 257,184,185
 972 887 972 887 972 887 c 1,186,187
 903 999 903 999 854.5 1079 c 128,-1,188
 806 1159 806 1159 794 1177 c 0,189,190
 778 1199 778 1199 759.5 1206 c 128,-1,191
 741 1213 741 1213 723.5 1211 c 128,-1,192
 706 1209 706 1209 697 1204 c 0,193,194
 695 1203 695 1203 693 1202 c 0,195,196
 683 1197 683 1197 673 1188 c 128,-1,197
 663 1179 663 1179 649 1152 c 0,198,199
 642 1137 642 1137 625 1119 c 128,-1,200
 608 1101 608 1101 573 1094 c 1,201,-1
 579 1075 l 1,202,-1
 571 1098 l 1,203,-1
 539 1088 l 1,204,-1
 519 1082 l 1,205,-1
 503 1078 l 1,206,207
 503 1078 503 1078 504 1077 c 1,208,-1
 488 1073 l 1,209,-1
 488 1073 l 1,210,-1
 473 1068 l 1,211,212
 473 1068 473 1068 465.5 1059 c 128,-1,213
 458 1050 458 1050 446.5 1037 c 128,-1,214
 435 1024 435 1024 422.5 1013.5 c 128,-1,215
 410 1003 410 1003 399 998 c 1,216,-1
 401 992 l 1,217,-1
 585 1058 l 1,218,-1
 583 1063 l 1,219,220
 586 1063 586 1063 597 1066.5 c 128,-1,221
 608 1070 608 1070 621 1075.5 c 128,-1,222
 634 1081 634 1081 644 1091 c 0,223,224
 656 1105 656 1105 664 1115.5 c 128,-1,225
 672 1126 672 1126 678 1137 c 0,226,227
 684 1150 684 1150 700.5 1157 c 128,-1,228
 717 1164 717 1164 733 1149 c 0,229,230
 745 1134 745 1134 816.5 1001 c 128,-1,231
 888 868 888 868 979 697 c 128,-1,232
 1070 526 1070 526 1139 394 c 0,233,234
 1189 298 1189 298 1207 265 c 0,235,236
 1232 218 1232 218 1263.5 192.5 c 128,-1,237
 1295 167 1295 167 1328 160 c 1,238,239
 1328 149 1328 149 1334 138 c 0,240,241
 1345 117 1345 117 1367.5 110 c 128,-1,242
 1390 103 1390 103 1410 114 c 0,243,244
 1428 124 1428 124 1435.5 143 c 128,-1,245
 1443 162 1443 162 1437 181 c 1,246,247
 1483 212 1483 212 1500.5 267 c 128,-1,248
 1518 322 1518 322 1485 383 c 0,249,250
 1456 438 1456 438 1433.5 520.5 c 128,-1,251
 1411 603 1411 603 1437 677 c 0,252,253
 1445 700 1445 700 1457.5 712 c 128,-1,254
 1470 724 1470 724 1500 727 c 128,-1,255
 1530 730 1530 730 1589 726 c 0,256,257
 1598 726 1598 726 1599 730.5 c 128,-1,258
 1600 735 1600 735 1592 743 c 0,16,17
EndSplineSet
EndChar

StartChar: numbersign
Encoding: 35 35 6
Width: 2002
Flags: W
LayerCount: 2
Fore
SplineSet
998 1638 m 256,0,1
 1247 1638 1247 1638 1483 1510.5 c 128,-1,2
 1719 1383 1719 1383 1853 1145.5 c 128,-1,3
 1987 908 1987 908 1987 649 c 0,4,5
 1987 393 1987 393 1857 158.5 c 128,-1,6
 1727 -76 1727 -76 1491.5 -206.5 c 128,-1,7
 1256 -337 1256 -337 998 -337 c 0,8,9
 743 -337 743 -337 507.5 -206.5 c 128,-1,10
 272 -76 272 -76 142 158.5 c 128,-1,11
 12 393 12 393 12 649 c 0,12,13
 12 908 12 908 145 1145.5 c 128,-1,14
 278 1383 278 1383 513.5 1510.5 c 128,-1,15
 749 1638 749 1638 998 1638 c 256,0,1
421 376 m 1,16,-1
 421 376 l 1,17,18
 412 376 412 376 405.5 369.5 c 128,-1,19
 399 363 399 363 399 354 c 2,20,-1
 399 240 l 2,21,22
 399 230 399 230 405.5 223.5 c 128,-1,23
 412 217 412 217 421 217 c 2,24,-1
 599 217 l 2,25,26
 609 217 609 217 615.5 223.5 c 128,-1,27
 622 230 622 230 622 240 c 2,28,-1
 622 354 l 2,29,30
 622 363 622 363 615.5 369.5 c 128,-1,31
 609 376 609 376 599 376 c 1,32,33
 599 376 599 376 599 376 c 1,34,-1
 421 376 l 1,16,-1
666 376 m 1,35,-1
 666 376 l 1,36,37
 657 376 657 376 650 369.5 c 128,-1,38
 643 363 643 363 643 354 c 2,39,-1
 643 240 l 2,40,41
 643 230 643 230 650 223.5 c 128,-1,42
 657 217 657 217 666 217 c 2,43,-1
 844 217 l 2,44,45
 853 217 853 217 860 223.5 c 128,-1,46
 867 230 867 230 867 240 c 2,47,-1
 867 354 l 2,48,49
 867 363 867 363 860 369.5 c 128,-1,50
 853 376 853 376 844 376 c 1,51,52
 844 376 844 376 844 376 c 1,53,-1
 666 376 l 1,35,-1
911 376 m 1,54,-1
 911 376 l 1,55,56
 901 376 901 376 894.5 369.5 c 128,-1,57
 888 363 888 363 888 354 c 2,58,-1
 888 240 l 2,59,60
 888 230 888 230 894.5 223.5 c 128,-1,61
 901 217 901 217 911 217 c 2,62,-1
 1088 217 l 2,63,64
 1098 217 1098 217 1104.5 223.5 c 128,-1,65
 1111 230 1111 230 1111 240 c 2,66,-1
 1111 354 l 2,67,68
 1111 363 1111 363 1104.5 369.5 c 128,-1,69
 1098 376 1098 376 1088 376 c 1,70,71
 1088 376 1088 376 1088 376 c 1,72,-1
 911 376 l 1,54,-1
1155 376 m 1,73,-1
 1155 376 l 1,74,75
 1146 376 1146 376 1139.5 369.5 c 128,-1,76
 1133 363 1133 363 1133 354 c 2,77,-1
 1133 240 l 2,78,79
 1133 230 1133 230 1139.5 223.5 c 128,-1,80
 1146 217 1146 217 1155 217 c 2,81,-1
 1333 217 l 2,82,83
 1343 217 1343 217 1349.5 223.5 c 128,-1,84
 1356 230 1356 230 1356 240 c 2,85,-1
 1356 354 l 2,86,87
 1356 363 1356 363 1349.5 369.5 c 128,-1,88
 1343 376 1343 376 1333 376 c 1,89,90
 1333 376 1333 376 1333 376 c 1,91,-1
 1155 376 l 1,73,-1
1400 376 m 1,92,-1
 1400 376 l 1,93,94
 1391 376 1391 376 1384 369.5 c 128,-1,95
 1377 363 1377 363 1377 354 c 2,96,-1
 1377 240 l 2,97,98
 1377 230 1377 230 1384 223.5 c 128,-1,99
 1391 217 1391 217 1400 217 c 2,100,-1
 1578 217 l 2,101,102
 1587 217 1587 217 1594 223.5 c 128,-1,103
 1601 230 1601 230 1601 240 c 2,104,-1
 1601 354 l 2,105,106
 1601 363 1601 363 1594 369.5 c 128,-1,107
 1587 376 1587 376 1578 376 c 1,108,109
 1578 376 1578 376 1578 376 c 1,110,-1
 1400 376 l 1,92,-1
666 557 m 1,111,-1
 666 557 l 1,112,113
 657 557 657 557 650 550.5 c 128,-1,114
 643 544 643 544 643 534 c 2,115,-1
 643 421 l 2,116,117
 643 411 643 411 650 404.5 c 128,-1,118
 657 398 657 398 666 398 c 2,119,-1
 844 398 l 2,120,121
 853 398 853 398 860 404.5 c 128,-1,122
 867 411 867 411 867 421 c 2,123,-1
 867 534 l 2,124,125
 867 544 867 544 860 550.5 c 128,-1,126
 853 557 853 557 844 557 c 1,127,128
 844 557 844 557 844 557 c 1,129,-1
 666 557 l 1,111,-1
911 557 m 1,130,-1
 911 557 l 1,131,132
 901 557 901 557 894.5 550.5 c 128,-1,133
 888 544 888 544 888 534 c 2,134,-1
 888 421 l 2,135,136
 888 411 888 411 894.5 404.5 c 128,-1,137
 901 398 901 398 911 398 c 2,138,-1
 1088 398 l 2,139,140
 1098 398 1098 398 1104.5 404.5 c 128,-1,141
 1111 411 1111 411 1111 421 c 2,142,-1
 1111 534 l 2,143,144
 1111 544 1111 544 1104.5 550.5 c 128,-1,145
 1098 557 1098 557 1088 557 c 1,146,147
 1088 557 1088 557 1088 557 c 1,148,-1
 911 557 l 1,130,-1
1155 557 m 1,149,-1
 1155 557 l 1,150,151
 1146 557 1146 557 1139.5 550.5 c 128,-1,152
 1133 544 1133 544 1133 534 c 2,153,-1
 1133 421 l 2,154,155
 1133 411 1133 411 1139.5 404.5 c 128,-1,156
 1146 398 1146 398 1155 398 c 2,157,-1
 1333 398 l 2,158,159
 1343 398 1343 398 1349.5 404.5 c 128,-1,160
 1356 411 1356 411 1356 421 c 2,161,-1
 1356 534 l 2,162,163
 1356 544 1356 544 1349.5 550.5 c 128,-1,164
 1343 557 1343 557 1333 557 c 1,165,166
 1333 557 1333 557 1333 557 c 1,167,-1
 1155 557 l 1,149,-1
1400 557 m 1,168,-1
 1400 557 l 1,169,170
 1391 557 1391 557 1384 550.5 c 128,-1,171
 1377 544 1377 544 1377 534 c 2,172,-1
 1377 421 l 2,173,174
 1377 411 1377 411 1384 404.5 c 128,-1,175
 1391 398 1391 398 1400 398 c 2,176,-1
 1578 398 l 2,177,178
 1587 398 1587 398 1594 404.5 c 128,-1,179
 1601 411 1601 411 1601 421 c 2,180,-1
 1601 534 l 2,181,182
 1601 544 1601 544 1594 550.5 c 128,-1,183
 1587 557 1587 557 1578 557 c 1,184,185
 1578 557 1578 557 1578 557 c 1,186,-1
 1400 557 l 1,168,-1
666 738 m 1,187,-1
 666 738 l 1,188,189
 657 738 657 738 650 731.5 c 128,-1,190
 643 725 643 725 643 715 c 2,191,-1
 643 601 l 2,192,193
 643 592 643 592 650 585.5 c 128,-1,194
 657 579 657 579 666 579 c 2,195,-1
 844 579 l 2,196,197
 853 579 853 579 860 585.5 c 128,-1,198
 867 592 867 592 867 601 c 2,199,-1
 867 715 l 2,200,201
 867 725 867 725 860 731.5 c 128,-1,202
 853 738 853 738 844 738 c 1,203,204
 844 738 844 738 844 738 c 1,205,-1
 666 738 l 1,187,-1
911 738 m 1,206,-1
 911 738 l 1,207,208
 901 738 901 738 894.5 731.5 c 128,-1,209
 888 725 888 725 888 715 c 2,210,-1
 888 601 l 2,211,212
 888 592 888 592 894.5 585.5 c 128,-1,213
 901 579 901 579 911 579 c 2,214,-1
 1088 579 l 2,215,216
 1098 579 1098 579 1104.5 585.5 c 128,-1,217
 1111 592 1111 592 1111 601 c 2,218,-1
 1111 715 l 2,219,220
 1111 725 1111 725 1104.5 731.5 c 128,-1,221
 1098 738 1098 738 1088 738 c 1,222,223
 1088 738 1088 738 1088 738 c 1,224,-1
 911 738 l 1,206,-1
1155 738 m 1,225,-1
 1155 738 l 1,226,227
 1146 738 1146 738 1139.5 731.5 c 128,-1,228
 1133 725 1133 725 1133 715 c 2,229,-1
 1133 601 l 2,230,231
 1133 592 1133 592 1139.5 585.5 c 128,-1,232
 1146 579 1146 579 1155 579 c 2,233,-1
 1333 579 l 2,234,235
 1343 579 1343 579 1349.5 585.5 c 128,-1,236
 1356 592 1356 592 1356 601 c 2,237,-1
 1356 715 l 2,238,239
 1356 725 1356 725 1349.5 731.5 c 128,-1,240
 1343 738 1343 738 1333 738 c 1,241,242
 1333 738 1333 738 1333 738 c 1,243,-1
 1155 738 l 1,225,-1
911 919 m 1,244,-1
 911 919 l 1,245,246
 901 919 901 919 894.5 912 c 128,-1,247
 888 905 888 905 888 896 c 2,248,-1
 888 782 l 2,249,250
 888 773 888 773 894.5 766 c 128,-1,251
 901 759 901 759 911 759 c 2,252,-1
 1088 759 l 2,253,254
 1098 759 1098 759 1104.5 766 c 128,-1,255
 1111 773 1111 773 1111 782 c 2,256,-1
 1111 896 l 2,257,258
 1111 905 1111 905 1104.5 912 c 128,-1,259
 1098 919 1098 919 1088 919 c 1,260,261
 1088 919 1088 919 1088 919 c 1,262,-1
 911 919 l 1,244,-1
1155 919 m 1,263,-1
 1155 919 l 1,264,265
 1146 919 1146 919 1139.5 912 c 128,-1,266
 1133 905 1133 905 1133 896 c 2,267,-1
 1133 782 l 2,268,269
 1133 773 1133 773 1139.5 766 c 128,-1,270
 1146 759 1146 759 1155 759 c 2,271,-1
 1333 759 l 2,272,273
 1343 759 1343 759 1349.5 766 c 128,-1,274
 1356 773 1356 773 1356 782 c 2,275,-1
 1356 896 l 2,276,277
 1356 905 1356 905 1349.5 912 c 128,-1,278
 1343 919 1343 919 1333 919 c 1,279,280
 1333 919 1333 919 1333 919 c 1,281,-1
 1155 919 l 1,263,-1
911 1100 m 1,282,-1
 911 1100 l 1,283,284
 901 1100 901 1100 894.5 1093 c 128,-1,285
 888 1086 888 1086 888 1077 c 2,286,-1
 888 963 l 2,287,288
 888 954 888 954 894.5 947 c 128,-1,289
 901 940 901 940 911 940 c 2,290,-1
 1088 940 l 2,291,292
 1098 940 1098 940 1104.5 947 c 128,-1,293
 1111 954 1111 954 1111 963 c 2,294,-1
 1111 1077 l 2,295,296
 1111 1086 1111 1086 1104.5 1093 c 128,-1,297
 1098 1100 1098 1100 1088 1100 c 1,298,299
 1088 1100 1088 1100 1088 1100 c 1,300,-1
 911 1100 l 1,282,-1
EndSplineSet
EndChar

StartChar: dollar
Encoding: 36 36 7
Width: 2002
Flags: W
LayerCount: 2
Fore
SplineSet
998 1638 m 256,0,1
 1247 1638 1247 1638 1483 1510.5 c 128,-1,2
 1719 1383 1719 1383 1853 1145.5 c 128,-1,3
 1987 908 1987 908 1987 649 c 0,4,5
 1987 393 1987 393 1857 158.5 c 128,-1,6
 1727 -76 1727 -76 1491.5 -206.5 c 128,-1,7
 1256 -337 1256 -337 998 -337 c 0,8,9
 743 -337 743 -337 507.5 -206.5 c 128,-1,10
 272 -76 272 -76 142 158.5 c 128,-1,11
 12 393 12 393 12 649 c 0,12,13
 12 908 12 908 145 1145.5 c 128,-1,14
 278 1383 278 1383 513.5 1510.5 c 128,-1,15
 749 1638 749 1638 998 1638 c 256,0,1
959 227 m 0,16,17
 976 258 976 258 988 271.5 c 128,-1,18
 1000 285 1000 285 1000 285 c 1,19,20
 990 277 990 277 975.5 285.5 c 128,-1,21
 961 294 961 294 959 318 c 128,-1,22
 957 342 957 342 984 382 c 0,23,24
 1001 406 1001 406 1014.5 420 c 128,-1,25
 1028 434 1028 434 1039 439.5 c 128,-1,26
 1050 445 1050 445 1057 445.5 c 128,-1,27
 1064 446 1064 446 1069.5 442.5 c 128,-1,28
 1075 439 1075 439 1078 434.5 c 128,-1,29
 1081 430 1081 430 1082.5 426.5 c 128,-1,30
 1084 423 1084 423 1084 423 c 1,31,32
 1090 456 1090 456 1112.5 479 c 128,-1,33
 1135 502 1135 502 1156 517 c 0,34,35
 1166 524 1166 524 1173 529 c 0,36,37
 1222 577 1222 577 1219 623.5 c 128,-1,38
 1216 670 1216 670 1191 704 c 128,-1,39
 1166 738 1166 738 1152 747 c 1,40,-1
 1152 747 l 1,41,-1
 1338 980 l 1,42,-1
 1345 974 l 1,43,-1
 1366 1002 l 1,44,-1
 1384 990 l 1,45,46
 1376 972 1376 972 1389 961 c 0,47,48
 1397 954 1397 954 1407.5 956.5 c 128,-1,49
 1418 959 1418 959 1426 969 c 0,50,51
 1433 978 1433 978 1433.5 989 c 128,-1,52
 1434 1000 1434 1000 1426 1006 c 0,53,54
 1419 1012 1419 1012 1410.5 1011 c 128,-1,55
 1402 1010 1402 1010 1394 1004 c 1,56,-1
 1378 1016 l 1,57,-1
 1411 1058 l 1,58,-1
 1428 1045 l 1,59,60
 1421 1026 1421 1026 1434 1016 c 0,61,62
 1442 1009 1442 1009 1452.5 1011 c 128,-1,63
 1463 1013 1463 1013 1471 1023 c 0,64,65
 1478 1033 1478 1033 1478.5 1043.5 c 128,-1,66
 1479 1054 1479 1054 1471 1061 c 0,67,68
 1464 1067 1464 1067 1455.5 1066 c 128,-1,69
 1447 1065 1447 1065 1439 1058 c 1,70,-1
 1422 1072 l 1,71,-1
 1442 1098 l 1,72,-1
 1449 1097 l 1,73,-1
 1451 1102 l 1,74,75
 1458 1096 1458 1096 1463 1093 c 128,-1,76
 1468 1090 1468 1090 1471 1089.5 c 128,-1,77
 1474 1089 1474 1089 1474 1089 c 1,78,-1
 1474 1089 l 1,79,-1
 1482 1084 l 1,80,-1
 1498 1109 l 1,81,-1
 1483 1122 l 1,82,-1
 1487 1138 l 1,83,-1
 1472 1146 l 1,84,-1
 1483 1170 l 2,85,86
 1482 1171 1482 1171 1481.5 1172.5 c 128,-1,87
 1481 1174 1481 1174 1480.5 1174.5 c 128,-1,88
 1480 1175 1480 1175 1479 1175 c 128,-1,89
 1478 1175 1478 1175 1477 1174.5 c 128,-1,90
 1476 1174 1476 1174 1476 1174 c 1,91,92
 1476 1177 1476 1177 1475.5 1178 c 128,-1,93
 1475 1179 1475 1179 1474 1179 c 128,-1,94
 1473 1179 1473 1179 1472 1179.5 c 128,-1,95
 1471 1180 1471 1180 1470.5 1180 c 128,-1,96
 1470 1180 1470 1180 1470 1180 c 1,97,98
 1471 1181 1471 1181 1470 1182.5 c 128,-1,99
 1469 1184 1469 1184 1468.5 1184 c 128,-1,100
 1468 1184 1468 1184 1467 1184 c 128,-1,101
 1466 1184 1466 1184 1465 1184.5 c 128,-1,102
 1464 1185 1464 1185 1464 1185 c 1,103,104
 1465 1187 1465 1187 1464 1188 c 128,-1,105
 1463 1189 1463 1189 1462.5 1189.5 c 128,-1,106
 1462 1190 1462 1190 1461 1190 c 128,-1,107
 1460 1190 1460 1190 1459 1190 c 128,-1,108
 1458 1190 1458 1190 1458 1190 c 1,109,110
 1458 1192 1458 1192 1457.5 1193 c 128,-1,111
 1457 1194 1457 1194 1456 1195 c 128,-1,112
 1455 1196 1455 1196 1454 1196 c 128,-1,113
 1453 1196 1453 1196 1452.5 1196 c 128,-1,114
 1452 1196 1452 1196 1452 1196 c 1,115,116
 1453 1198 1453 1198 1452 1199 c 128,-1,117
 1451 1200 1451 1200 1450 1200.5 c 128,-1,118
 1449 1201 1449 1201 1448 1201.5 c 128,-1,119
 1447 1202 1447 1202 1446 1201 c 2,120,-1
 1425 1187 l 1,121,-1
 1414 1201 l 1,122,-1
 1398 1194 l 1,123,-1
 1385 1206 l 1,124,-1
 1363 1186 l 1,125,-1
 1368 1181 l 1,126,-1
 1368 1181 l 1,127,128
 1368 1181 1368 1181 1369 1177.5 c 128,-1,129
 1370 1174 1370 1174 1373.5 1169.5 c 128,-1,130
 1377 1165 1377 1165 1385 1160 c 1,131,-1
 1380 1157 l 1,132,133
 1380 1157 1380 1157 1381 1154.5 c 128,-1,134
 1382 1152 1382 1152 1383 1149 c 2,135,-1
 1361 1125 l 1,136,-1
 1345 1138 l 1,137,138
 1349 1147 1349 1147 1348.5 1156 c 128,-1,139
 1348 1165 1348 1165 1342 1171 c 0,140,141
 1334 1177 1334 1177 1323.5 1175.5 c 128,-1,142
 1313 1174 1313 1174 1304 1165 c 0,143,144
 1296 1156 1296 1156 1295.5 1145 c 128,-1,145
 1295 1134 1295 1134 1302 1127 c 0,146,147
 1316 1116 1316 1116 1333 1126 c 1,148,-1
 1348 1112 l 1,149,-1
 1348 1112 l 1,150,-1
 1312 1072 l 1,151,-1
 1297 1086 l 1,152,153
 1302 1094 1302 1094 1301.5 1103 c 128,-1,154
 1301 1112 1301 1112 1295 1118 c 0,155,156
 1287 1125 1287 1125 1276 1123 c 128,-1,157
 1265 1121 1265 1121 1257 1112 c 0,158,159
 1249 1102 1249 1102 1248.5 1091.5 c 128,-1,160
 1248 1081 1248 1081 1256 1074 c 0,161,162
 1269 1063 1269 1063 1285 1073 c 1,163,-1
 1300 1059 l 1,164,-1
 1276 1032 l 1,165,-1
 1283 1027 l 1,166,-1
 1264 1007 l 1,167,-1
 1083 806 l 1,168,169
 1071 820 1071 820 1034 838.5 c 128,-1,170
 997 857 997 857 951 853 c 128,-1,171
 905 849 905 849 867 793 c 0,172,173
 861 785 861 785 856 775 c 0,174,175
 844 752 844 752 825 726 c 128,-1,176
 806 700 806 700 775 689 c 1,177,178
 775 689 775 689 778.5 688.5 c 128,-1,179
 782 688 782 688 787 685.5 c 128,-1,180
 792 683 792 683 795.5 678 c 128,-1,181
 799 673 799 673 800.5 665.5 c 128,-1,182
 802 658 802 658 797.5 647 c 128,-1,183
 793 636 793 636 781 620.5 c 128,-1,184
 769 605 769 605 748 584 c 0,185,186
 713 552 713 552 689 550 c 128,-1,187
 665 548 665 548 655 561.5 c 128,-1,188
 645 575 645 575 650 586 c 1,189,190
 650 586 650 586 639 572 c 128,-1,191
 628 558 628 558 599 536 c 0,192,193
 582 526 582 526 553.5 494.5 c 128,-1,194
 525 463 525 463 507.5 415 c 128,-1,195
 490 367 490 367 507 306.5 c 128,-1,196
 524 246 524 246 604 178 c 0,197,198
 683 110 683 110 745.5 102 c 128,-1,199
 808 94 808 94 852.5 118.5 c 128,-1,200
 897 143 897 143 924 176 c 128,-1,201
 951 209 951 209 959 227 c 0,16,17
847 553 m 0,202,203
 840 547 840 547 835 552 c 0,204,205
 831 554 831 554 831 557.5 c 128,-1,206
 831 561 831 561 833 564 c 0,207,208
 835 566 835 566 839 566.5 c 128,-1,209
 843 567 843 567 846 565 c 0,210,211
 846 564 846 564 847 563 c 1,212,213
 849 572 849 572 843 578 c 128,-1,214
 837 584 837 584 825 582 c 128,-1,215
 813 580 813 580 799 562 c 0,216,217
 795 558 795 558 790 553 c 0,218,219
 769 527 769 527 739.5 497 c 128,-1,220
 710 467 710 467 686 458 c 1,221,222
 660 453 660 453 644 474 c 128,-1,223
 628 495 628 495 646 516 c 0,224,225
 648 519 648 519 652 519 c 128,-1,226
 656 519 656 519 659 517 c 256,227,228
 662 515 662 515 662 511 c 128,-1,229
 662 507 662 507 660 505 c 0,230,231
 657 502 657 502 653.5 501.5 c 128,-1,232
 650 501 650 501 647 504 c 0,233,234
 646 504 646 504 645 505 c 1,235,236
 638 486 638 486 651.5 472 c 128,-1,237
 665 458 665 458 688 469 c 0,238,239
 703 478 703 478 722 497.5 c 128,-1,240
 741 517 741 517 761 538 c 0,241,242
 785 567 785 567 803 582 c 0,243,244
 817 594 817 594 830 589.5 c 128,-1,245
 843 585 843 585 849 574 c 128,-1,246
 855 563 855 563 847 553 c 0,202,203
933 479 m 0,247,248
 941 488 941 488 953 484 c 128,-1,249
 965 480 965 480 971.5 468 c 128,-1,250
 978 456 978 456 968 440 c 0,251,252
 955 420 955 420 931 391 c 0,253,254
 912 369 912 369 896 347.5 c 128,-1,255
 880 326 880 326 874 309 c 0,256,257
 866 285 866 285 882 273.5 c 128,-1,258
 898 262 898 262 915 273 c 1,259,260
 914 274 914 274 914 274 c 2,261,262
 911 277 911 277 910.5 280.5 c 128,-1,263
 910 284 910 284 913 287 c 0,264,265
 915 289 915 289 918.5 290 c 128,-1,266
 922 291 922 291 925 288 c 0,267,268
 928 286 928 286 928 282 c 128,-1,269
 928 278 928 278 926 275 c 0,270,271
 908 254 908 254 885 266.5 c 128,-1,272
 862 279 862 279 863 306 c 1,273,274
 868 332 868 332 893.5 365 c 128,-1,275
 919 398 919 398 942 423 c 0,276,277
 946 428 946 428 950 432 c 0,278,279
 965 450 965 450 965 462 c 128,-1,280
 965 474 965 474 958 479 c 128,-1,281
 951 484 951 484 942 481 c 1,282,283
 944 480 944 480 945 479 c 0,284,285
 947 477 947 477 947 473.5 c 128,-1,286
 947 470 947 470 945 467 c 0,287,288
 943 465 943 465 939.5 464.5 c 128,-1,289
 936 464 936 464 934 466 c 0,290,291
 928 472 928 472 933 479 c 0,247,248
EndSplineSet
EndChar

StartChar: percent
Encoding: 37 37 8
Width: 2002
Flags: W
LayerCount: 2
Fore
SplineSet
998 1638 m 256,0,1
 1247 1638 1247 1638 1483 1510.5 c 128,-1,2
 1719 1383 1719 1383 1853 1145.5 c 128,-1,3
 1987 908 1987 908 1987 649 c 0,4,5
 1987 393 1987 393 1857 158.5 c 128,-1,6
 1727 -76 1727 -76 1491.5 -206.5 c 128,-1,7
 1256 -337 1256 -337 998 -337 c 0,8,9
 743 -337 743 -337 507.5 -206.5 c 128,-1,10
 272 -76 272 -76 142 158.5 c 128,-1,11
 12 393 12 393 12 649 c 0,12,13
 12 908 12 908 145 1145.5 c 128,-1,14
 278 1383 278 1383 513.5 1510.5 c 128,-1,15
 749 1638 749 1638 998 1638 c 256,0,1
846 1053 m 1,16,-1
 1441 1053 l 1,17,-1
 1441 938 l 1,18,-1
 846 938 l 1,19,-1
 846 1053 l 1,16,-1
1498 255 m 2,20,-1
 1498 1206 l 1,21,-1
 789 1206 l 1,22,-1
 789 300 l 1,23,24
 728 341 728 341 663 341 c 0,25,26
 499 341 499 341 499 230 c 0,27,28
 499 109 499 109 661 109 c 0,29,30
 846 109 846 109 846 254 c 2,31,-1
 846 823 l 1,32,-1
 1441 823 l 1,33,-1
 1441 301 l 1,34,35
 1380 342 1380 342 1315 342 c 0,36,37
 1151 342 1151 342 1151 230 c 0,38,39
 1151 109 1151 109 1312 109 c 0,40,41
 1498 109 1498 109 1498 255 c 2,20,-1
EndSplineSet
EndChar

StartChar: ampersand
Encoding: 38 38 9
Width: 2002
Flags: W
LayerCount: 2
Fore
SplineSet
998 1638 m 256,0,1
 1247 1638 1247 1638 1483 1510.5 c 128,-1,2
 1719 1383 1719 1383 1853 1145.5 c 128,-1,3
 1987 908 1987 908 1987 649 c 0,4,5
 1987 393 1987 393 1857 158.5 c 128,-1,6
 1727 -76 1727 -76 1491.5 -206.5 c 128,-1,7
 1256 -337 1256 -337 998 -337 c 0,8,9
 743 -337 743 -337 507.5 -206.5 c 128,-1,10
 272 -76 272 -76 142 158.5 c 128,-1,11
 12 393 12 393 12 649 c 0,12,13
 12 908 12 908 145 1145.5 c 128,-1,14
 278 1383 278 1383 513.5 1510.5 c 128,-1,15
 749 1638 749 1638 998 1638 c 256,0,1
612 1085 m 0,16,17
 568 1083 568 1083 540 1050 c 0,18,19
 399 870 399 870 399 664.5 c 128,-1,20
 399 459 399 459 540 279 c 1,21,22
 708 89 708 89 947 68 c 128,-1,23
 1186 47 1186 47 1385 205 c 1,24,25
 1576 373 1576 373 1596.5 612 c 128,-1,26
 1617 851 1617 851 1459 1050 c 0,27,28
 1424 1094 1424 1094 1367 1087 c 1,29,30
 1312 1076 1312 1076 1292 1023 c 0,31,32
 1275 969 1275 969 1312 927 c 0,33,34
 1421 790 1421 790 1407 628.5 c 128,-1,35
 1393 467 1393 467 1262 351 c 1,36,37
 1126 243 1126 243 964 257 c 128,-1,38
 802 271 802 271 687 402 c 1,39,40
 491 665 491 665 687 927 c 0,41,42
 724 975 724 975 700 1030 c 0,43,44
 673 1084 673 1084 612 1085 c 0,16,17
997 1248 m 0,45,46
 958 1248 958 1248 930 1219 c 256,47,48
 902 1190 902 1190 902 1151 c 2,49,-1
 902 535 l 2,50,51
 904 480 904 480 950 451 c 0,52,53
 998 425 998 425 1047 451 c 1,54,55
 1093 480 1093 480 1094 535 c 2,56,-1
 1094 1151 l 2,57,58
 1094 1191 1094 1191 1067 1220 c 0,59,60
 1037 1248 1037 1248 997 1248 c 0,45,46
EndSplineSet
EndChar

StartChar: quotesingle
Encoding: 39 39 10
Width: 2002
Flags: W
LayerCount: 2
Fore
SplineSet
998 1638 m 256,0,1
 1247 1638 1247 1638 1483 1510.5 c 128,-1,2
 1719 1383 1719 1383 1853 1145.5 c 128,-1,3
 1987 908 1987 908 1987 649 c 0,4,5
 1987 393 1987 393 1857 158.5 c 128,-1,6
 1727 -76 1727 -76 1491.5 -206.5 c 128,-1,7
 1256 -337 1256 -337 998 -337 c 0,8,9
 743 -337 743 -337 507.5 -206.5 c 128,-1,10
 272 -76 272 -76 142 158.5 c 128,-1,11
 12 393 12 393 12 649 c 0,12,13
 12 908 12 908 145 1145.5 c 128,-1,14
 278 1383 278 1383 513.5 1510.5 c 128,-1,15
 749 1638 749 1638 998 1638 c 256,0,1
981 648 m 0,16,17
 934 647 934 647 903 615.5 c 128,-1,18
 872 584 872 584 872 539 c 0,19,20
 872 507 872 507 890 480 c 1,21,-1
 890 50 l 2,22,23
 890 32 890 32 900 19.5 c 128,-1,24
 910 7 910 7 924 7 c 2,25,-1
 973 7 l 2,26,27
 987 7 987 7 997.5 19.5 c 128,-1,28
 1008 32 1008 32 1008 50 c 2,29,-1
 1008 434 l 1,30,31
 1043 444 1043 444 1066.5 472.5 c 128,-1,32
 1090 501 1090 501 1090 539 c 0,33,34
 1090 557 1090 557 1084 573 c 1,35,36
 1092 551 1092 551 1092 527 c 1,37,38
 1159 561 1159 561 1174 638 c 2,39,-1
 1252 1108 l 1,40,41
 1262 1220 1262 1220 1164.5 1271 c 128,-1,42
 1067 1322 1067 1322 957.5 1302 c 128,-1,43
 848 1282 848 1282 824 1178 c 1,44,-1
 819 1151 l 1,45,-1
 1100 1120 l 2,46,47
 1103 1119 1103 1119 1106 1114.5 c 128,-1,48
 1109 1110 1109 1110 1108 1103 c 0,49,50
 1107 1097 1107 1097 1104 1093 c 128,-1,51
 1101 1089 1101 1089 1096 1089 c 2,52,-1
 814 1120 l 1,53,-1
 810 1094 l 1,54,-1
 1088 1064 l 2,55,56
 1092 1063 1092 1063 1094.5 1058.5 c 128,-1,57
 1097 1054 1097 1054 1097 1048 c 0,58,59
 1096 1041 1096 1041 1092.5 1037 c 128,-1,60
 1089 1033 1089 1033 1085 1034 c 2,61,-1
 804 1063 l 1,62,-1
 800 1036 l 1,63,-1
 1079 1007 l 2,64,65
 1084 1006 1084 1006 1086.5 1001 c 128,-1,66
 1089 996 1089 996 1089 990 c 0,67,68
 1088 983 1088 983 1084.5 979 c 128,-1,69
 1081 975 1081 975 1077 976 c 2,70,-1
 795 1006 l 1,71,-1
 792 987 l 1,72,-1
 1072 957 l 2,73,74
 1076 956 1076 956 1078.5 951.5 c 128,-1,75
 1081 947 1081 947 1080 941 c 0,76,77
 1079 934 1079 934 1076 930 c 128,-1,78
 1073 926 1073 926 1068 927 c 2,79,-1
 787 956 l 1,80,-1
 746 708 l 2,81,82
 738 654 738 654 764.5 608.5 c 128,-1,83
 791 563 791 563 841 543 c 1,84,85
 842 546 842 546 842 550 c 0,86,87
 852 602 852 602 892.5 631 c 128,-1,88
 933 660 933 660 986 654 c 0,89,90
 1021 647 1021 647 1046 626 c 1,91,92
 1017 648 1017 648 981 648 c 0,16,17
EndSplineSet
EndChar

StartChar: parenleft
Encoding: 40 40 11
Width: 2002
Flags: W
LayerCount: 2
Fore
SplineSet
998 1638 m 256,0,1
 1247 1638 1247 1638 1483 1510.5 c 128,-1,2
 1719 1383 1719 1383 1853 1145.5 c 128,-1,3
 1987 908 1987 908 1987 649 c 0,4,5
 1987 393 1987 393 1857 158.5 c 128,-1,6
 1727 -76 1727 -76 1491.5 -206.5 c 128,-1,7
 1256 -337 1256 -337 998 -337 c 0,8,9
 743 -337 743 -337 507.5 -206.5 c 128,-1,10
 272 -76 272 -76 142 158.5 c 128,-1,11
 12 393 12 393 12 649 c 0,12,13
 12 908 12 908 145 1145.5 c 128,-1,14
 278 1383 278 1383 513.5 1510.5 c 128,-1,15
 749 1638 749 1638 998 1638 c 256,0,1
1640 1090 m 0,16,17
 1633 1103 1633 1103 1617.5 1114.5 c 128,-1,18
 1602 1126 1602 1126 1591 1124 c 1,19,-1
 1538 1090 l 1,20,-1
 1534 1096 l 1,21,-1
 1533 1095 l 1,22,23
 1533 1098 1533 1098 1532 1099 c 0,24,25
 1529 1104 1529 1104 1524.5 1105.5 c 128,-1,26
 1520 1107 1520 1107 1516 1104 c 0,27,28
 1512 1102 1512 1102 1511.5 1097.5 c 128,-1,29
 1511 1093 1511 1093 1513 1089 c 0,30,31
 1515 1084 1515 1084 1519.5 1083 c 128,-1,32
 1524 1082 1524 1082 1529 1083 c 1,33,-1
 1500 1064 l 1,34,-1
 1496 1071 l 1,35,-1
 1495 1071 l 1,36,37
 1495 1073 1495 1073 1493 1075 c 0,38,39
 1491 1079 1491 1079 1486.5 1080.5 c 128,-1,40
 1482 1082 1482 1082 1478 1080 c 0,41,42
 1475 1077 1475 1077 1474 1072.5 c 128,-1,43
 1473 1068 1473 1068 1475 1064 c 0,44,45
 1478 1059 1478 1059 1482.5 1057.5 c 128,-1,46
 1487 1056 1487 1056 1490 1059 c 1,47,-1
 1464 1041 l 1,48,-1
 1460 1047 l 1,49,-1
 1459 1046 l 1,50,51
 1459 1049 1459 1049 1457 1050 c 0,52,53
 1455 1055 1455 1055 1450.5 1056.5 c 128,-1,54
 1446 1058 1446 1058 1442 1056 c 256,55,56
 1438 1054 1438 1054 1437 1049.5 c 128,-1,57
 1436 1045 1436 1045 1440 1040 c 0,58,59
 1442 1036 1442 1036 1446.5 1034.5 c 128,-1,60
 1451 1033 1451 1033 1454 1035 c 1,61,-1
 1425 1015 l 1,62,-1
 1423 1009 l 1,63,-1
 1418 1000 l 1,64,-1
 1416 998 l 1,65,-1
 1452 937 l 1,66,-1
 1455 939 l 1,67,-1
 1465 938 l 1,68,-1
 1471 936 l 1,69,-1
 1503 953 l 1,70,71
 1499 951 1499 951 1498.5 946.5 c 128,-1,72
 1498 942 1498 942 1500 937 c 0,73,74
 1502 933 1502 933 1506.5 931.5 c 128,-1,75
 1511 930 1511 930 1515 932 c 0,76,77
 1520 935 1520 935 1520.5 939.5 c 128,-1,78
 1521 944 1521 944 1519 948 c 0,79,80
 1517 950 1517 950 1515 952 c 1,81,-1
 1516 952 l 1,82,-1
 1513 958 l 1,83,-1
 1541 974 l 1,84,85
 1538 971 1538 971 1537 966.5 c 128,-1,86
 1536 962 1536 962 1538 957 c 0,87,88
 1541 953 1541 953 1545.5 951.5 c 128,-1,89
 1550 950 1550 950 1554 952 c 0,90,91
 1557 955 1557 955 1558 959.5 c 128,-1,92
 1559 964 1559 964 1556 969 c 0,93,94
 1555 970 1555 970 1554 972 c 1,95,-1
 1555 972 l 1,96,-1
 1551 979 l 1,97,-1
 1581 995 l 1,98,99
 1578 993 1578 993 1577 988.5 c 128,-1,100
 1576 984 1576 984 1578 979 c 0,101,102
 1581 975 1581 975 1585.5 973 c 128,-1,103
 1590 971 1590 971 1594 974 c 0,104,105
 1598 976 1598 976 1599 980.5 c 128,-1,106
 1600 985 1600 985 1596 990 c 0,107,108
 1596 992 1596 992 1594 993 c 1,109,-1
 1595 993 l 1,110,-1
 1591 1000 l 1,111,-1
 1647 1029 l 1,112,113
 1654 1039 1654 1039 1651 1058 c 128,-1,114
 1648 1077 1648 1077 1640 1090 c 0,16,17
1567 1084 m 256,115,116
 1569 1082 1569 1082 1568.5 1079 c 128,-1,117
 1568 1076 1568 1076 1564 1073 c 2,118,-1
 1552 1065 l 1,119,-1
 1544 1080 l 1,120,-1
 1555 1086 l 2,121,122
 1558 1089 1558 1089 1561.5 1087.5 c 128,-1,123
 1565 1086 1565 1086 1567 1084 c 256,115,116
1600 1029 m 0,124,125
 1601 1026 1601 1026 1600.5 1022.5 c 128,-1,126
 1600 1019 1600 1019 1596 1016 c 2,127,-1
 1585 1010 l 1,128,-1
 1577 1024 l 1,129,-1
 1589 1031 l 2,130,131
 1593 1033 1593 1033 1595.5 1032 c 128,-1,132
 1598 1031 1598 1031 1600 1029 c 0,124,125
1534 1073 m 1,133,-1
 1543 1059 l 1,134,-1
 1515 1040 l 1,135,-1
 1506 1055 l 1,136,-1
 1534 1073 l 1,133,-1
1567 1019 m 1,137,-1
 1575 1005 l 1,138,-1
 1545 988 l 1,139,-1
 1536 1004 l 1,140,-1
 1567 1019 l 1,137,-1
1497 1049 m 1,141,-1
 1506 1033 l 1,142,-1
 1479 1016 l 1,143,-1
 1470 1031 l 1,144,-1
 1497 1049 l 1,141,-1
1526 998 m 1,145,-1
 1535 984 l 1,146,-1
 1507 968 l 1,147,-1
 1498 984 l 1,148,-1
 1526 998 l 1,145,-1
1461 1025 m 1,149,-1
 1470 1010 l 1,150,-1
 1467 1008 l 2,151,152
 1461 1004 1461 1004 1456.5 1006.5 c 128,-1,153
 1452 1009 1452 1009 1451 1013.5 c 128,-1,154
 1450 1018 1450 1018 1457 1023 c 2,155,-1
 1461 1025 l 1,149,-1
1488 979 m 1,156,-1
 1498 963 l 1,157,-1
 1493 961 l 2,158,159
 1486 957 1486 957 1482.5 960 c 128,-1,160
 1479 963 1479 963 1479 968.5 c 128,-1,161
 1479 974 1479 974 1485 977 c 2,162,-1
 1488 979 l 1,156,-1
1408 994 m 1,163,-1
 1000 762 l 1,164,165
 947 832 947 832 899.5 845 c 128,-1,166
 852 858 852 858 814 838 c 0,167,168
 772 814 772 814 744 778 c 0,169,170
 722 752 722 752 706 743 c 0,171,172
 674 730 674 730 627 736 c 0,173,174
 588 741 588 741 540 736.5 c 128,-1,175
 492 732 492 732 436 698 c 1,176,177
 338 628 338 628 347 536.5 c 128,-1,178
 356 445 356 445 410 361 c 1,179,180
 458 273 458 273 533.5 221 c 128,-1,181
 609 169 609 169 718 222 c 1,182,183
 774 255 774 255 801.5 295 c 128,-1,184
 829 335 829 335 843 371 c 0,185,186
 860 416 860 416 887 437 c 0,187,188
 903 447 903 447 936 454 c 0,189,190
 981 462 981 462 1022 486 c 0,191,192
 1058 510 1058 510 1069.5 558 c 128,-1,193
 1081 606 1081 606 1045 685 c 1,194,-1
 1444 932 l 1,195,-1
 1436 927 l 1,196,-1
 1400 989 l 1,197,-1
 1408 994 l 1,163,-1
1337 952 m 1,198,-1
 1374 890 l 1,199,-1
 1365 884 l 1,200,-1
 1328 948 l 1,201,-1
 1337 952 l 1,198,-1
1261 910 m 1,202,-1
 1301 844 l 1,203,-1
 1291 838 l 1,204,-1
 1252 904 l 1,205,-1
 1261 910 l 1,202,-1
1192 871 m 1,206,-1
 1233 802 l 1,207,-1
 1223 797 l 1,208,-1
 1182 865 l 1,209,-1
 1192 871 l 1,206,-1
1132 837 m 1,210,-1
 1174 765 l 1,211,-1
 1165 761 l 1,212,-1
 1123 832 l 1,213,-1
 1132 837 l 1,210,-1
1076 805 m 1,214,-1
 1119 732 l 1,215,-1
 1110 726 l 1,216,-1
 1067 800 l 1,217,-1
 1076 805 l 1,214,-1
1026 777 m 1,218,-1
 1070 702 l 1,219,-1
 1061 696 l 1,220,-1
 1016 771 l 1,221,-1
 1026 777 l 1,218,-1
983 752 m 1,222,-1
 1029 676 l 1,223,-1
 1019 670 l 1,224,-1
 973 747 l 1,225,-1
 983 752 l 1,222,-1
943 730 m 1,226,-1
 990 651 l 1,227,-1
 980 645 l 1,228,-1
 933 725 l 1,229,-1
 943 730 l 1,226,-1
908 710 m 1,230,-1
 955 630 l 1,231,-1
 945 624 l 1,232,-1
 898 704 l 1,233,-1
 908 710 l 1,230,-1
877 693 m 1,234,-1
 925 611 l 1,235,-1
 916 606 l 1,236,-1
 868 687 l 1,237,-1
 877 693 l 1,234,-1
907 601 m 1,238,239
 905 554 905 554 864 527 c 0,240,241
 831 509 831 509 797 517.5 c 128,-1,242
 763 526 763 526 743 558 c 0,243,244
 724 591 724 591 733 625 c 128,-1,245
 742 659 742 659 774 679 c 0,246,247
 816 703 816 703 859 682 c 1,248,-1
 838 671 l 1,249,250
 810 679 810 679 783 663 c 0,251,252
 758 648 758 648 751 620.5 c 128,-1,253
 744 593 744 593 758 568 c 0,254,255
 774 543 774 543 801.5 536 c 128,-1,256
 829 529 829 529 854 543 c 0,257,258
 881 560 881 560 887 588 c 1,259,-1
 907 601 l 1,238,239
874 636 m 2,260,261
 874 635 874 635 874 634 c 1,262,263
 874 634 874 634 874 634 c 1,264,265
 875 633 875 633 875 632 c 1,266,267
 876 632 876 632 876 632 c 1,268,-1
 876 632 l 1,269,270
 877 630 877 630 878 628 c 2,271,-1
 878 627 l 2,272,273
 879 625 879 625 879 623 c 0,274,275
 882 617 882 617 883 609 c 0,276,277
 883 606 883 606 883 603 c 0,278,279
 883 598 883 598 882 593 c 0,280,281
 882 592 882 592 881 590 c 0,282,283
 880 587 880 587 879 583 c 1,284,-1
 879 583 l 1,285,286
 872 561 872 561 852 548 c 0,287,288
 828 535 828 535 803 541 c 128,-1,289
 778 547 778 547 763 571 c 0,290,291
 750 595 750 595 756.5 619.5 c 128,-1,292
 763 644 763 644 786 658 c 0,293,294
 807 671 807 671 830 666 c 1,295,-1
 830 666 l 1,296,297
 832 666 832 666 834 666 c 0,298,299
 835 665 835 665 837 664 c 0,300,301
 843 663 843 663 849 659 c 0,302,303
 851 658 851 658 852 658 c 0,304,305
 853 657 853 657 855 656 c 2,306,-1
 856 656 l 1,307,308
 856 655 856 655 858 654 c 0,309,310
 861 651 861 651 865 647 c 1,311,-1
 865 647 l 1,312,313
 866 645 866 645 868 645 c 1,314,315
 868 644 868 644 869 643 c 2,316,-1
 869 642 l 1,317,-1
 870 641 l 2,318,319
 871 640 871 640 872 639 c 1,320,321
 872 639 872 639 872 639 c 1,322,323
 872 638 872 638 873 637 c 256,324,325
 874 636 874 636 874 636 c 2,260,261
561 601 m 2,326,-1
 692 378 l 2,327,328
 693 376 693 376 692 373 c 128,-1,329
 691 370 691 370 687 368 c 2,330,-1
 661 353 l 2,331,332
 658 351 658 351 654.5 351 c 128,-1,333
 651 351 651 351 649 353 c 2,334,-1
 518 575 l 2,335,336
 517 578 517 578 518.5 580.5 c 128,-1,337
 520 583 520 583 523 586 c 2,338,-1
 549 601 l 2,339,340
 553 603 553 603 556 603 c 128,-1,341
 559 603 559 603 561 601 c 2,326,-1
EndSplineSet
EndChar

StartChar: parenright
Encoding: 41 41 12
Width: 2002
Flags: W
LayerCount: 2
Fore
SplineSet
998 1638 m 256,0,1
 1247 1638 1247 1638 1483 1510.5 c 128,-1,2
 1719 1383 1719 1383 1853 1145.5 c 128,-1,3
 1987 908 1987 908 1987 649 c 0,4,5
 1987 393 1987 393 1857 158.5 c 128,-1,6
 1727 -76 1727 -76 1491.5 -206.5 c 128,-1,7
 1256 -337 1256 -337 998 -337 c 0,8,9
 743 -337 743 -337 507.5 -206.5 c 128,-1,10
 272 -76 272 -76 142 158.5 c 128,-1,11
 12 393 12 393 12 649 c 0,12,13
 12 908 12 908 145 1145.5 c 128,-1,14
 278 1383 278 1383 513.5 1510.5 c 128,-1,15
 749 1638 749 1638 998 1638 c 256,0,1
1174 1278 m 1,16,-1
 791 893 l 1,17,-1
 399 892 l 1,18,-1
 403 419 l 1,19,-1
 784 416 l 1,20,-1
 1173 29 l 1,21,-1
 1174 1278 l 1,16,-1
1243 901 m 1,22,-1
 1232 831 l 1,23,24
 1278 817 1278 817 1306.5 770.5 c 128,-1,25
 1335 724 1335 724 1337 660 c 0,26,27
 1338 596 1338 596 1312 547 c 128,-1,28
 1286 498 1286 498 1242 479 c 1,29,-1
 1256 409 l 1,30,31
 1326 434 1326 434 1367.5 503 c 128,-1,32
 1409 572 1409 572 1408 662 c 0,33,34
 1404 752 1404 752 1359 817.5 c 128,-1,35
 1314 883 1314 883 1243 901 c 1,36,-1
 1243 901 l 1,22,-1
1269 1102 m 1,37,-1
 1260 1034 l 1,38,39
 1377 1009 1377 1009 1451 909 c 128,-1,40
 1525 809 1525 809 1530 671 c 1,41,42
 1530 532 1530 532 1459.5 429 c 128,-1,43
 1389 326 1389 326 1273 295 c 1,44,-1
 1273 295 l 1,45,-1
 1285 227 l 1,46,47
 1427 263 1427 263 1513 385.5 c 128,-1,48
 1599 508 1599 508 1599 672 c 1,49,50
 1593 837 1593 837 1502.5 955 c 128,-1,51
 1412 1073 1412 1073 1269 1102 c 1,52,-1
 1269 1102 l 1,37,-1
EndSplineSet
EndChar

StartChar: asterisk
Encoding: 42 42 13
Width: 2002
Flags: W
LayerCount: 2
Fore
SplineSet
998 1638 m 256,0,1
 1247 1638 1247 1638 1483 1510.5 c 128,-1,2
 1719 1383 1719 1383 1853 1145.5 c 128,-1,3
 1987 908 1987 908 1987 649 c 0,4,5
 1987 393 1987 393 1857 158.5 c 128,-1,6
 1727 -76 1727 -76 1491.5 -206.5 c 128,-1,7
 1256 -337 1256 -337 998 -337 c 0,8,9
 743 -337 743 -337 507.5 -206.5 c 128,-1,10
 272 -76 272 -76 142 158.5 c 128,-1,11
 12 393 12 393 12 649 c 0,12,13
 12 908 12 908 145 1145.5 c 128,-1,14
 278 1383 278 1383 513.5 1510.5 c 128,-1,15
 749 1638 749 1638 998 1638 c 256,0,1
955 1268 m 1,16,-1
 948 1262 l 1,17,-1
 948 244 l 1,18,19
 872 298 872 298 791 298 c 2,20,-1
 772 298 l 1,21,22
 592 278 592 278 592 171 c 0,23,24
 592 33 592 33 797 33 c 2,25,-1
 845 33 l 1,26,27
 1035 71 1035 71 1035 195 c 2,28,-1
 1035 1072 l 1,29,30
 1056 1051 1056 1051 1134 1016 c 1,31,32
 1327 958 1327 958 1327 900 c 0,33,34
 1327 830 1327 830 1275 791 c 1,35,-1
 1301 764 l 1,36,-1
 1304 764 l 1,37,38
 1407 843 1407 843 1407 963 c 0,39,40
 1407 1076 1407 1076 1204 1135 c 1,41,42
 1058 1186 1058 1186 1035 1230 c 1,43,-1
 1035 1262 l 1,44,-1
 1028 1268 l 1,45,-1
 955 1268 l 1,16,-1
EndSplineSet
EndChar

StartChar: plus
Encoding: 43 43 14
Width: 2002
Flags: W
LayerCount: 2
Fore
SplineSet
998 1638 m 256,0,1
 1247 1638 1247 1638 1483 1510.5 c 128,-1,2
 1719 1383 1719 1383 1853 1145.5 c 128,-1,3
 1987 908 1987 908 1987 649 c 0,4,5
 1987 393 1987 393 1857 158.5 c 128,-1,6
 1727 -76 1727 -76 1491.5 -206.5 c 128,-1,7
 1256 -337 1256 -337 998 -337 c 0,8,9
 743 -337 743 -337 507.5 -206.5 c 128,-1,10
 272 -76 272 -76 142 158.5 c 128,-1,11
 12 393 12 393 12 649 c 0,12,13
 12 908 12 908 145 1145.5 c 128,-1,14
 278 1383 278 1383 513.5 1510.5 c 128,-1,15
 749 1638 749 1638 998 1638 c 256,0,1
399 888 m 1,16,-1
 399 434 l 1,17,-1
 740 434 l 1,18,-1
 1093 44 l 1,19,-1
 1093 1274 l 1,20,-1
 744 888 l 1,21,-1
 399 888 l 1,16,-1
1599 589 m 1,22,-1
 1599 734 l 1,23,-1
 1164 734 l 1,24,-1
 1164 589 l 1,25,-1
 1599 589 l 1,22,-1
EndSplineSet
EndChar

StartChar: comma
Encoding: 44 44 15
Width: 2002
Flags: W
LayerCount: 2
Fore
SplineSet
998 1638 m 256,0,1
 1247 1638 1247 1638 1483 1510.5 c 128,-1,2
 1719 1383 1719 1383 1853 1145.5 c 128,-1,3
 1987 908 1987 908 1987 649 c 0,4,5
 1987 393 1987 393 1857 158.5 c 128,-1,6
 1727 -76 1727 -76 1491.5 -206.5 c 128,-1,7
 1256 -337 1256 -337 998 -337 c 0,8,9
 743 -337 743 -337 507.5 -206.5 c 128,-1,10
 272 -76 272 -76 142 158.5 c 128,-1,11
 12 393 12 393 12 649 c 0,12,13
 12 908 12 908 145 1145.5 c 128,-1,14
 278 1383 278 1383 513.5 1510.5 c 128,-1,15
 749 1638 749 1638 998 1638 c 256,0,1
399 885 m 1,16,-1
 399 432 l 1,17,-1
 738 432 l 1,18,-1
 1091 43 l 1,19,-1
 1091 1269 l 1,20,-1
 742 885 l 1,21,-1
 399 885 l 1,16,-1
1455 729 m 1,22,-1
 1455 872 l 1,23,-1
 1311 872 l 1,24,-1
 1311 728 l 1,25,-1
 1167 726 l 1,26,-1
 1167 583 l 1,27,-1
 1311 583 l 1,28,-1
 1311 440 l 1,29,-1
 1455 440 l 1,30,-1
 1455 585 l 1,31,-1
 1599 586 l 1,32,-1
 1598 730 l 1,33,-1
 1455 729 l 1,22,-1
EndSplineSet
EndChar

StartChar: hyphen
Encoding: 45 45 16
AltUni2: 0000ad.ffffffff.0
Width: 2002
Flags: W
LayerCount: 2
Fore
SplineSet
998 1638 m 256,0,1
 1247 1638 1247 1638 1483 1510.5 c 128,-1,2
 1719 1383 1719 1383 1853 1145.5 c 128,-1,3
 1987 908 1987 908 1987 649 c 0,4,5
 1987 393 1987 393 1857 158.5 c 128,-1,6
 1727 -76 1727 -76 1491.5 -206.5 c 128,-1,7
 1256 -337 1256 -337 998 -337 c 0,8,9
 743 -337 743 -337 507.5 -206.5 c 128,-1,10
 272 -76 272 -76 142 158.5 c 128,-1,11
 12 393 12 393 12 649 c 0,12,13
 12 908 12 908 145 1145.5 c 128,-1,14
 278 1383 278 1383 513.5 1510.5 c 128,-1,15
 749 1638 749 1638 998 1638 c 256,0,1
399 449 m 0,16,17
 399 396 399 396 416.5 349 c 128,-1,18
 434 302 434 302 466 264.5 c 128,-1,19
 498 227 498 227 541 202 c 1,20,-1
 541 697 l 1,21,22
 498 672 498 672 466 634 c 128,-1,23
 434 596 434 596 416.5 548.5 c 128,-1,24
 399 501 399 501 399 449 c 0,16,17
1304 1072 m 1,25,26
 1147 1157 1147 1157 998.5 1157 c 128,-1,27
 850 1157 850 1157 693 1072 c 0,28,29
 666 1058 666 1058 640.5 1035 c 128,-1,30
 615 1012 615 1012 594.5 983.5 c 128,-1,31
 574 955 574 955 561.5 922.5 c 128,-1,32
 549 890 549 890 549 855 c 2,33,-1
 549 202 l 1,34,-1
 628 202 l 1,35,-1
 628 855 l 2,36,37
 628 879 628 879 640 904.5 c 128,-1,38
 652 930 652 930 672.5 953.5 c 128,-1,39
 693 977 693 977 718 996 c 128,-1,40
 743 1015 743 1015 768 1025 c 0,41,42
 854 1061 854 1061 926.5 1073 c 128,-1,43
 999 1085 999 1085 1071.5 1073 c 128,-1,44
 1144 1061 1144 1061 1229 1025 c 0,45,46
 1254 1015 1254 1015 1279 996 c 128,-1,47
 1304 977 1304 977 1324.5 953.5 c 128,-1,48
 1345 930 1345 930 1357.5 904.5 c 128,-1,49
 1370 879 1370 879 1370 855 c 2,50,-1
 1370 202 l 1,51,-1
 1448 202 l 1,52,-1
 1448 855 l 2,53,54
 1448 890 1448 890 1436 922.5 c 128,-1,55
 1424 955 1424 955 1403 983.5 c 128,-1,56
 1382 1012 1382 1012 1356.5 1035 c 128,-1,57
 1331 1058 1331 1058 1304 1072 c 1,58,-1
 1304 1072 l 1,25,26
1456 697 m 1,59,-1
 1456 202 l 1,60,61
 1499 227 1499 227 1531 264.5 c 128,-1,62
 1563 302 1563 302 1581 349 c 128,-1,63
 1599 396 1599 396 1599 449 c 0,64,65
 1598 502 1598 502 1580.5 549 c 128,-1,66
 1563 596 1563 596 1531 634 c 128,-1,67
 1499 672 1499 672 1456 697 c 1,59,-1
709 738 m 2,68,-1
 664 738 l 2,69,70
 651 738 651 738 642.5 729 c 128,-1,71
 634 720 634 720 634 708 c 2,72,-1
 634 190 l 2,73,74
 634 177 634 177 642.5 168 c 128,-1,75
 651 159 651 159 664 159 c 2,76,-1
 709 159 l 2,77,78
 721 159 721 159 730 168 c 128,-1,79
 739 177 739 177 739 190 c 2,80,-1
 739 708 l 2,81,82
 739 720 739 720 730 729 c 128,-1,83
 721 738 721 738 709 738 c 2,68,-1
1332 738 m 2,84,-1
 1288 738 l 2,85,86
 1275 738 1275 738 1266 729 c 128,-1,87
 1257 720 1257 720 1257 708 c 2,88,-1
 1257 190 l 2,89,90
 1257 177 1257 177 1266 168 c 128,-1,91
 1275 159 1275 159 1288 159 c 2,92,-1
 1332 159 l 2,93,94
 1345 159 1345 159 1354 168 c 128,-1,95
 1363 177 1363 177 1363 190 c 2,96,-1
 1363 708 l 2,97,98
 1363 720 1363 720 1354 729 c 128,-1,99
 1345 738 1345 738 1332 738 c 2,84,-1
EndSplineSet
EndChar

StartChar: period
Encoding: 46 46 17
Width: 2002
Flags: W
LayerCount: 2
Fore
SplineSet
998 1638 m 256,0,1
 1247 1638 1247 1638 1483 1510.5 c 128,-1,2
 1719 1383 1719 1383 1853 1145.5 c 128,-1,3
 1987 908 1987 908 1987 649 c 0,4,5
 1987 393 1987 393 1857 158.5 c 128,-1,6
 1727 -76 1727 -76 1491.5 -206.5 c 128,-1,7
 1256 -337 1256 -337 998 -337 c 0,8,9
 743 -337 743 -337 507.5 -206.5 c 128,-1,10
 272 -76 272 -76 142 158.5 c 128,-1,11
 12 393 12 393 12 649 c 0,12,13
 12 908 12 908 145 1145.5 c 128,-1,14
 278 1383 278 1383 513.5 1510.5 c 128,-1,15
 749 1638 749 1638 998 1638 c 256,0,1
1264 89 m 0,17,18
 1264 119 1264 119 1185 141 c 0,19,20
 1116 160 1116 160 1025 163 c 1,21,-1
 1025 318 l 1,22,23
 1095 323 1095 323 1155 358 c 0,24,25
 1224 400 1224 400 1265 469 c 128,-1,26
 1306 538 1306 538 1306 622 c 2,27,-1
 1306 927 l 1,28,-1
 1256 927 l 1,29,-1
 1256 628 l 2,30,31
 1256 558 1256 558 1221.5 500.5 c 128,-1,32
 1187 443 1187 443 1129.5 408.5 c 128,-1,33
 1072 374 1072 374 1001 374 c 0,34,35
 931 374 931 374 873 408.5 c 128,-1,36
 815 443 815 443 781 500.5 c 128,-1,37
 747 558 747 558 747 628 c 2,38,-1
 747 927 l 1,39,-1
 696 927 l 1,40,-1
 696 622 l 2,41,42
 696 538 696 538 737 469 c 128,-1,43
 778 400 778 400 848 358 c 0,44,45
 900 328 900 328 961 319 c 1,46,-1
 961 163 l 1,47,48
 868 160 868 160 800 141 c 0,49,50
 721 119 721 119 721 89 c 0,51,52
 721 83 721 83 723 78 c 0,53,54
 721 72 721 72 721 67 c 0,55,56
 721 36 721 36 800.5 14.5 c 128,-1,57
 880 -7 880 -7 993 -7 c 0,58,59
 1105 -7 1105 -7 1184.5 14.5 c 128,-1,60
 1264 36 1264 36 1264 67 c 0,61,62
 1264 72 1264 72 1262 78 c 0,63,16
 1264 83 1264 83 1264 89 c 0,17,18
1001 409 m 256,64,65
 1063 409 1063 409 1114 439 c 128,-1,66
 1165 469 1165 469 1195 520 c 128,-1,67
 1225 571 1225 571 1225 633 c 2,68,-1
 1225 1082 l 2,69,70
 1225 1144 1225 1144 1195 1194.5 c 128,-1,71
 1165 1245 1165 1245 1114 1276 c 128,-1,72
 1063 1307 1063 1307 1001 1307 c 256,73,74
 939 1307 939 1307 888.5 1276 c 128,-1,75
 838 1245 838 1245 807.5 1194.5 c 128,-1,76
 777 1144 777 1144 777 1082 c 2,77,-1
 777 633 l 2,78,79
 777 571 777 571 807.5 520 c 128,-1,80
 838 469 838 469 888.5 439 c 128,-1,81
 939 409 939 409 1001 409 c 256,64,65
EndSplineSet
EndChar

StartChar: slash
Encoding: 47 47 18
Width: 2002
Flags: W
LayerCount: 2
Fore
SplineSet
998 1638 m 256,0,1
 1247 1638 1247 1638 1483 1510.5 c 128,-1,2
 1719 1383 1719 1383 1853 1145.5 c 128,-1,3
 1987 908 1987 908 1987 649 c 0,4,5
 1987 393 1987 393 1857 158.5 c 128,-1,6
 1727 -76 1727 -76 1491.5 -206.5 c 128,-1,7
 1256 -337 1256 -337 998 -337 c 0,8,9
 743 -337 743 -337 507.5 -206.5 c 128,-1,10
 272 -76 272 -76 142 158.5 c 128,-1,11
 12 393 12 393 12 649 c 0,12,13
 12 908 12 908 145 1145.5 c 128,-1,14
 278 1383 278 1383 513.5 1510.5 c 128,-1,15
 749 1638 749 1638 998 1638 c 256,0,1
999 1245 m 1,16,17
 876 1245 876 1245 768 1198.5 c 128,-1,18
 660 1152 660 1152 578.5 1070.5 c 128,-1,19
 497 989 497 989 451 881 c 128,-1,20
 405 773 405 773 405 650 c 256,21,22
 405 527 405 527 451 419 c 128,-1,23
 497 311 497 311 578.5 229.5 c 128,-1,24
 660 148 660 148 768 102 c 128,-1,25
 876 56 876 56 999 56 c 256,26,27
 1122 56 1122 56 1230 102 c 128,-1,28
 1338 148 1338 148 1419.5 229.5 c 128,-1,29
 1501 311 1501 311 1547.5 419 c 128,-1,30
 1594 527 1594 527 1594 650 c 256,31,32
 1594 773 1594 773 1547.5 881 c 128,-1,33
 1501 989 1501 989 1419.5 1070.5 c 128,-1,34
 1338 1152 1338 1152 1230 1198.5 c 128,-1,35
 1122 1245 1122 1245 999 1245 c 1,36,-1
 999 1245 l 1,16,17
1000 423 m 1,37,38
 937 423 937 423 885 453.5 c 128,-1,39
 833 484 833 484 802.5 536 c 128,-1,40
 772 588 772 588 772 651 c 256,41,42
 772 714 772 714 802.5 766 c 128,-1,43
 833 818 833 818 885 848.5 c 128,-1,44
 937 879 937 879 1000 879 c 256,45,46
 1063 879 1063 879 1115 848.5 c 128,-1,47
 1167 818 1167 818 1197.5 766 c 128,-1,48
 1228 714 1228 714 1228 651 c 256,49,50
 1228 588 1228 588 1197.5 536 c 128,-1,51
 1167 484 1167 484 1115 453.5 c 128,-1,52
 1063 423 1063 423 1000 423 c 1,53,-1
 1000 423 l 1,37,38
1056 651 m 1,54,-1
 1056 651 l 1,55,56
 1056 675 1056 675 1040 691 c 128,-1,57
 1024 707 1024 707 1000 707 c 0,58,59
 977 707 977 707 960.5 691 c 128,-1,60
 944 675 944 675 944 651 c 0,61,62
 944 628 944 628 960.5 611.5 c 128,-1,63
 977 595 977 595 1000 595 c 0,64,65
 1024 595 1024 595 1040 611.5 c 128,-1,66
 1056 628 1056 628 1056 651 c 1,54,-1
EndSplineSet
EndChar

StartChar: zero
Encoding: 48 48 19
Width: 2002
Flags: W
LayerCount: 2
Fore
SplineSet
1000 1160 m 1,0,-1
 1000 1160 l 1,1,2
 789 1160 789 1160 639.5 1010.5 c 128,-1,3
 490 861 490 861 490 651 c 0,4,5
 490 440 490 440 639.5 290.5 c 128,-1,6
 789 141 789 141 1000 141 c 0,7,8
 1210 141 1210 141 1359.5 290.5 c 128,-1,9
 1509 440 1509 440 1509 651 c 0,10,11
 1509 861 1509 861 1359.5 1010.5 c 128,-1,12
 1210 1160 1210 1160 1000 1160 c 1,0,-1
998 1638 m 256,13,14
 1247 1638 1247 1638 1483 1510.5 c 128,-1,15
 1719 1383 1719 1383 1853 1145.5 c 128,-1,16
 1987 908 1987 908 1987 649 c 0,17,18
 1987 393 1987 393 1857 158.5 c 128,-1,19
 1727 -76 1727 -76 1491.5 -206.5 c 128,-1,20
 1256 -337 1256 -337 998 -337 c 0,21,22
 743 -337 743 -337 507.5 -206.5 c 128,-1,23
 272 -76 272 -76 142 158.5 c 128,-1,24
 12 393 12 393 12 649 c 0,25,26
 12 908 12 908 145 1145.5 c 128,-1,27
 278 1383 278 1383 513.5 1510.5 c 128,-1,28
 749 1638 749 1638 998 1638 c 256,13,14
EndSplineSet
EndChar

StartChar: one
Encoding: 49 49 20
Width: 2002
Flags: W
LayerCount: 2
Fore
SplineSet
524 101 m 1,0,-1
 524 101 l 1,1,-1
 1475 651 l 1,2,-1
 524 1200 l 1,3,-1
 524 101 l 1,0,-1
998 1638 m 256,4,5
 1247 1638 1247 1638 1483 1510.5 c 128,-1,6
 1719 1383 1719 1383 1853 1145.5 c 128,-1,7
 1987 908 1987 908 1987 649 c 0,8,9
 1987 393 1987 393 1857 158.5 c 128,-1,10
 1727 -76 1727 -76 1491.5 -206.5 c 128,-1,11
 1256 -337 1256 -337 998 -337 c 0,12,13
 743 -337 743 -337 507.5 -206.5 c 128,-1,14
 272 -76 272 -76 142 158.5 c 128,-1,15
 12 393 12 393 12 649 c 0,16,17
 12 908 12 908 145 1145.5 c 128,-1,18
 278 1383 278 1383 513.5 1510.5 c 128,-1,19
 749 1638 749 1638 998 1638 c 256,4,5
EndSplineSet
EndChar

StartChar: two
Encoding: 50 50 21
Width: 2002
Flags: W
LayerCount: 2
Fore
SplineSet
906 94 m 1,0,-1
 906 1222 l 1,1,-1
 521 1222 l 1,2,-1
 521 94 l 1,3,-1
 906 94 l 1,4,-1
 906 94 l 1,0,-1
1476 94 m 1,5,-1
 1476 1222 l 1,6,-1
 1091 1222 l 1,7,-1
 1091 94 l 1,8,-1
 1476 94 l 1,9,-1
 1476 94 l 1,5,-1
998 1638 m 256,10,11
 1247 1638 1247 1638 1483 1510.5 c 128,-1,12
 1719 1383 1719 1383 1853 1145.5 c 128,-1,13
 1987 908 1987 908 1987 649 c 0,14,15
 1987 393 1987 393 1857 158.5 c 128,-1,16
 1727 -76 1727 -76 1491.5 -206.5 c 128,-1,17
 1256 -337 1256 -337 998 -337 c 0,18,19
 743 -337 743 -337 507.5 -206.5 c 128,-1,20
 272 -76 272 -76 142 158.5 c 128,-1,21
 12 393 12 393 12 649 c 0,22,23
 12 908 12 908 145 1145.5 c 128,-1,24
 278 1383 278 1383 513.5 1510.5 c 128,-1,25
 749 1638 749 1638 998 1638 c 256,10,11
EndSplineSet
EndChar

StartChar: three
Encoding: 51 51 22
Width: 2002
Flags: W
LayerCount: 2
Fore
SplineSet
1004 1134 m 1,0,-1
 1004 651 l 1,1,-1
 356 1134 l 1,2,-1
 356 168 l 1,3,-1
 1004 651 l 1,4,-1
 1004 168 l 1,5,-1
 1652 651 l 1,6,-1
 1004 1134 l 1,7,-1
 1004 1134 l 1,0,-1
998 1638 m 256,8,9
 1247 1638 1247 1638 1483 1510.5 c 128,-1,10
 1719 1383 1719 1383 1853 1145.5 c 128,-1,11
 1987 908 1987 908 1987 649 c 0,12,13
 1987 393 1987 393 1857 158.5 c 128,-1,14
 1727 -76 1727 -76 1491.5 -206.5 c 128,-1,15
 1256 -337 1256 -337 998 -337 c 0,16,17
 743 -337 743 -337 507.5 -206.5 c 128,-1,18
 272 -76 272 -76 142 158.5 c 128,-1,19
 12 393 12 393 12 649 c 0,20,21
 12 908 12 908 145 1145.5 c 128,-1,22
 278 1383 278 1383 513.5 1510.5 c 128,-1,23
 749 1638 749 1638 998 1638 c 256,8,9
EndSplineSet
EndChar

StartChar: four
Encoding: 52 52 23
Width: 2002
Flags: W
LayerCount: 2
Fore
SplineSet
997 659 m 1,0,-1
 997 1143 l 1,1,-1
 346 659 l 1,2,-1
 997 174 l 1,3,-1
 997 659 l 1,4,-1
 1647 174 l 1,5,-1
 1647 1143 l 1,6,-1
 997 659 l 1,7,-1
 997 659 l 1,0,-1
998 1638 m 256,8,9
 1247 1638 1247 1638 1483 1510.5 c 128,-1,10
 1719 1383 1719 1383 1853 1145.5 c 128,-1,11
 1987 908 1987 908 1987 649 c 0,12,13
 1987 393 1987 393 1857 158.5 c 128,-1,14
 1727 -76 1727 -76 1491.5 -206.5 c 128,-1,15
 1256 -337 1256 -337 998 -337 c 0,16,17
 743 -337 743 -337 507.5 -206.5 c 128,-1,18
 272 -76 272 -76 142 158.5 c 128,-1,19
 12 393 12 393 12 649 c 0,20,21
 12 908 12 908 145 1145.5 c 128,-1,22
 278 1383 278 1383 513.5 1510.5 c 128,-1,23
 749 1638 749 1638 998 1638 c 256,8,9
EndSplineSet
EndChar

StartChar: five
Encoding: 53 53 24
Width: 2002
Flags: W
LayerCount: 2
Fore
SplineSet
897 1064 m 1,0,-1
 897 661 l 1,1,-1
 351 1064 l 1,2,-1
 351 258 l 1,3,-1
 897 661 l 1,4,-1
 897 258 l 1,5,-1
 1445 661 l 1,6,-1
 897 1064 l 1,7,-1
 897 1064 l 1,0,-1
1652 1064 m 1,8,-1
 1652 1064 l 1,9,-1
 1454 1064 l 1,10,-1
 1454 258 l 1,11,-1
 1652 258 l 1,12,-1
 1652 1064 l 1,8,-1
998 1638 m 256,13,14
 1247 1638 1247 1638 1483 1510.5 c 128,-1,15
 1719 1383 1719 1383 1853 1145.5 c 128,-1,16
 1987 908 1987 908 1987 649 c 0,17,18
 1987 393 1987 393 1857 158.5 c 128,-1,19
 1727 -76 1727 -76 1491.5 -206.5 c 128,-1,20
 1256 -337 1256 -337 998 -337 c 0,21,22
 743 -337 743 -337 507.5 -206.5 c 128,-1,23
 272 -76 272 -76 142 158.5 c 128,-1,24
 12 393 12 393 12 649 c 0,25,26
 12 908 12 908 145 1145.5 c 128,-1,27
 278 1383 278 1383 513.5 1510.5 c 128,-1,28
 749 1638 749 1638 998 1638 c 256,13,14
EndSplineSet
EndChar

StartChar: six
Encoding: 54 54 25
Width: 2002
Flags: W
LayerCount: 2
Fore
SplineSet
1105 660 m 1,0,-1
 1105 1063 l 1,1,-1
 559 660 l 1,2,-1
 1105 257 l 1,3,-1
 1105 660 l 1,4,-1
 1652 257 l 1,5,-1
 1652 1063 l 1,6,-1
 1105 660 l 1,7,-1
 1105 660 l 1,0,-1
549 257 m 1,8,-1
 549 1063 l 1,9,-1
 351 1063 l 1,10,-1
 351 257 l 1,11,-1
 549 257 l 1,12,-1
 549 257 l 1,8,-1
998 1638 m 256,13,14
 1247 1638 1247 1638 1483 1510.5 c 128,-1,15
 1719 1383 1719 1383 1853 1145.5 c 128,-1,16
 1987 908 1987 908 1987 649 c 0,17,18
 1987 393 1987 393 1857 158.5 c 128,-1,19
 1727 -76 1727 -76 1491.5 -206.5 c 128,-1,20
 1256 -337 1256 -337 998 -337 c 0,21,22
 743 -337 743 -337 507.5 -206.5 c 128,-1,23
 272 -76 272 -76 142 158.5 c 128,-1,24
 12 393 12 393 12 649 c 0,25,26
 12 908 12 908 145 1145.5 c 128,-1,27
 278 1383 278 1383 513.5 1510.5 c 128,-1,28
 749 1638 749 1638 998 1638 c 256,13,14
EndSplineSet
EndChar

StartChar: seven
Encoding: 55 55 26
Width: 2002
Flags: W
LayerCount: 2
Fore
SplineSet
1469 181 m 1,0,-1
 1469 1120 l 1,1,-1
 531 1120 l 1,2,-1
 531 181 l 1,3,-1
 1469 181 l 1,4,-1
 1469 181 l 1,0,-1
998 1638 m 256,5,6
 1247 1638 1247 1638 1483 1510.5 c 128,-1,7
 1719 1383 1719 1383 1853 1145.5 c 128,-1,8
 1987 908 1987 908 1987 649 c 0,9,10
 1987 393 1987 393 1857 158.5 c 128,-1,11
 1727 -76 1727 -76 1491.5 -206.5 c 128,-1,12
 1256 -337 1256 -337 998 -337 c 0,13,14
 743 -337 743 -337 507.5 -206.5 c 128,-1,15
 272 -76 272 -76 142 158.5 c 128,-1,16
 12 393 12 393 12 649 c 0,17,18
 12 908 12 908 145 1145.5 c 128,-1,19
 278 1383 278 1383 513.5 1510.5 c 128,-1,20
 749 1638 749 1638 998 1638 c 256,5,6
EndSplineSet
EndChar

StartChar: eight
Encoding: 56 56 27
Width: 2002
Flags: W
LayerCount: 2
Fore
SplineSet
1561 399 m 1,0,-1
 430 399 l 1,1,-1
 430 184 l 1,2,-1
 1561 184 l 1,3,-1
 1561 399 l 1,4,-1
 1561 399 l 1,0,-1
430 516 m 1,5,-1
 430 516 l 1,6,-1
 1561 516 l 1,7,-1
 996 1141 l 1,8,-1
 430 516 l 1,5,-1
998 1638 m 256,9,10
 1247 1638 1247 1638 1483 1510.5 c 128,-1,11
 1719 1383 1719 1383 1853 1145.5 c 128,-1,12
 1987 908 1987 908 1987 649 c 0,13,14
 1987 393 1987 393 1857 158.5 c 128,-1,15
 1727 -76 1727 -76 1491.5 -206.5 c 128,-1,16
 1256 -337 1256 -337 998 -337 c 0,17,18
 743 -337 743 -337 507.5 -206.5 c 128,-1,19
 272 -76 272 -76 142 158.5 c 128,-1,20
 12 393 12 393 12 649 c 0,21,22
 12 908 12 908 145 1145.5 c 128,-1,23
 278 1383 278 1383 513.5 1510.5 c 128,-1,24
 749 1638 749 1638 998 1638 c 256,9,10
EndSplineSet
EndChar

StartChar: nine
Encoding: 57 57 28
Width: 2000
Flags: W
LayerCount: 2
Fore
SplineSet
998 1638 m 256,0,1
 1247 1638 1247 1638 1483 1510.5 c 128,-1,2
 1719 1383 1719 1383 1853 1145.5 c 128,-1,3
 1987 908 1987 908 1987 649 c 0,4,5
 1987 393 1987 393 1857 158.5 c 128,-1,6
 1727 -76 1727 -76 1491.5 -206.5 c 128,-1,7
 1256 -337 1256 -337 998 -337 c 0,8,9
 743 -337 743 -337 507.5 -206.5 c 128,-1,10
 272 -76 272 -76 142 158.5 c 128,-1,11
 12 393 12 393 12 649 c 0,12,13
 12 908 12 908 145 1145.5 c 128,-1,14
 278 1383 278 1383 513.5 1510.5 c 128,-1,15
 749 1638 749 1638 998 1638 c 256,0,1
857 806 m 1,16,-1
 1425 920 l 1,17,-1
 1425 423 l 1,18,19
 1347 458 1347 458 1244 411 c 1,20,21
 1172 371 1172 371 1150.5 314.5 c 128,-1,22
 1129 258 1129 258 1157 213 c 0,23,24
 1187 168 1187 168 1252.5 156 c 128,-1,25
 1318 144 1318 144 1393 181 c 1,26,27
 1497 242 1497 242 1497 324 c 1,28,-1
 1497 324 l 1,29,-1
 1497 934 l 1,30,-1
 1497 1148 l 1,31,-1
 1497 1218 l 1,32,-1
 787 1076 l 1,33,-1
 787 793 l 1,34,-1
 787 352 l 1,35,36
 708 387 708 387 605 340 c 1,37,38
 533 300 533 300 511.5 244 c 128,-1,39
 490 188 490 188 519 142 c 0,40,41
 548 97 548 97 614 85.5 c 128,-1,42
 680 74 680 74 754 110 c 1,43,44
 858 170 858 170 857 253 c 1,45,-1
 857 253 l 1,46,-1
 857 806 l 1,16,-1
EndSplineSet
EndChar

StartChar: colon
Encoding: 58 58 29
Width: 2000
Flags: W
LayerCount: 2
Fore
SplineSet
998 1638 m 256,0,1
 1247 1638 1247 1638 1483 1510.5 c 128,-1,2
 1719 1383 1719 1383 1853 1145.5 c 128,-1,3
 1987 908 1987 908 1987 649 c 0,4,5
 1987 393 1987 393 1857 158.5 c 128,-1,6
 1727 -76 1727 -76 1491.5 -206.5 c 128,-1,7
 1256 -337 1256 -337 998 -337 c 0,8,9
 743 -337 743 -337 507.5 -206.5 c 128,-1,10
 272 -76 272 -76 142 158.5 c 128,-1,11
 12 393 12 393 12 649 c 0,12,13
 12 908 12 908 145 1145.5 c 128,-1,14
 278 1383 278 1383 513.5 1510.5 c 128,-1,15
 749 1638 749 1638 998 1638 c 256,0,1
1016 141 m 2,16,17
 1139 141 1139 141 1251 211 c 1,18,-1
 1081 504 l 1,19,20
 1044 481 1044 481 1004 481 c 2,21,-1
 998 481 l 2,22,23
 953 481 953 481 914 506 c 1,24,-1
 747 212 l 1,25,26
 859 141 859 141 995 141 c 2,27,-1
 1016 141 l 2,16,17
907 790 m 0,28,29
 913 793 913 793 919 796 c 1,30,-1
 750 1090 l 1,31,32
 735 1080 735 1080 720 1069 c 0,33,34
 490 894 490 894 490 662 c 2,35,-1
 490 650 l 1,36,-1
 830 650 l 1,37,-1
 830 654 l 2,38,39
 830 730 830 730 907 790 c 0,28,29
1430 908 m 1,40,41
 1348 1023 1348 1023 1249 1087 c 1,42,-1
 1080 795 l 1,43,44
 1115 775 1115 775 1142 735 c 0,45,46
 1168 697 1168 697 1168 650 c 1,47,-1
 1509 650 l 1,48,49
 1507 792 1507 792 1430 908 c 1,40,41
996 778 m 0,50,51
 960 778 960 778 928 756 c 0,52,53
 871 711 871 711 871 653 c 2,54,-1
 871 648 l 2,55,56
 871 617 871 617 887 588 c 0,57,58
 932 522 932 522 997 522 c 2,59,-1
 1003 522 l 2,60,61
 1040 522 1040 522 1073 546 c 0,62,63
 1127 590 1127 590 1127 647 c 0,64,65
 1127 684 1127 684 1108 714 c 0,66,67
 1062 778 1062 778 996 778 c 0,50,51
999 1250 m 0,68,69
 847 1250 847 1250 703 1172.5 c 128,-1,70
 559 1095 559 1095 479 951 c 128,-1,71
 399 807 399 807 399 650 c 256,72,73
 399 493 399 493 478 350.5 c 128,-1,74
 557 208 557 208 700 129 c 128,-1,75
 843 50 843 50 999 50 c 256,76,77
 1155 50 1155 50 1298 129 c 128,-1,78
 1441 208 1441 208 1520 350.5 c 128,-1,79
 1599 493 1599 493 1599 650 c 256,80,81
 1599 807 1599 807 1518 951 c 128,-1,82
 1437 1095 1437 1095 1293.5 1172.5 c 128,-1,83
 1150 1250 1150 1250 999 1250 c 0,68,69
460 650 m 256,84,85
 460 791 460 791 532 920.5 c 128,-1,86
 604 1050 604 1050 733 1119.5 c 128,-1,87
 862 1189 862 1189 999 1189 c 0,88,89
 1134 1189 1134 1189 1263 1119.5 c 128,-1,90
 1392 1050 1392 1050 1465 920.5 c 128,-1,91
 1538 791 1538 791 1538 650 c 256,92,93
 1538 509 1538 509 1466.5 381.5 c 128,-1,94
 1395 254 1395 254 1267 182.5 c 128,-1,95
 1139 111 1139 111 999 111 c 256,96,97
 859 111 859 111 731 182.5 c 128,-1,98
 603 254 603 254 531.5 381.5 c 128,-1,99
 460 509 460 509 460 650 c 256,84,85
EndSplineSet
EndChar

StartChar: A
Encoding: 65 65 36
Width: 2002
Flags: W
LayerCount: 2
Fore
SplineSet
15 104 m 1,0,-1
 15 1194 l 2,1,2
 15 1378 15 1378 144.5 1507.5 c 128,-1,3
 274 1637 274 1637 458 1637 c 2,4,-1
 1548 1637 l 2,5,6
 1728 1637 1728 1637 1857.5 1507.5 c 128,-1,7
 1987 1378 1987 1378 1987 1194 c 2,8,-1
 1987 104 l 2,9,10
 1987 -76 1987 -76 1857.5 -205.5 c 128,-1,11
 1728 -335 1728 -335 1548 -335 c 2,12,-1
 458 -335 l 2,13,14
 274 -335 274 -335 144.5 -205.5 c 128,-1,15
 15 -76 15 -76 15 104 c 1,16,-1
 15 104 l 1,0,-1
515 89 m 1,17,-1
 515 89 l 1,18,-1
 1488 651 l 1,19,-1
 515 1213 l 1,20,-1
 515 89 l 1,17,-1
EndSplineSet
EndChar

StartChar: B
Encoding: 66 66 37
Width: 2002
Flags: W
LayerCount: 2
Fore
SplineSet
15 104 m 1,0,-1
 15 1194 l 2,1,2
 15 1378 15 1378 144.5 1507.5 c 128,-1,3
 274 1637 274 1637 458 1637 c 2,4,-1
 1548 1637 l 2,5,6
 1728 1637 1728 1637 1857.5 1507.5 c 128,-1,7
 1987 1378 1987 1378 1987 1194 c 2,8,-1
 1987 104 l 2,9,10
 1987 -76 1987 -76 1857.5 -205.5 c 128,-1,11
 1728 -335 1728 -335 1548 -335 c 2,12,-1
 458 -335 l 2,13,14
 274 -335 274 -335 144.5 -205.5 c 128,-1,15
 15 -76 15 -76 15 104 c 1,16,-1
 15 104 l 1,0,-1
906 94 m 1,17,-1
 906 1222 l 1,18,-1
 521 1222 l 1,19,-1
 521 94 l 1,20,-1
 906 94 l 1,21,-1
 906 94 l 1,17,-1
1476 94 m 1,22,-1
 1476 1222 l 1,23,-1
 1091 1222 l 1,24,-1
 1091 94 l 1,25,-1
 1476 94 l 1,26,-1
 1476 94 l 1,22,-1
EndSplineSet
EndChar

StartChar: C
Encoding: 67 67 38
Width: 2002
Flags: W
LayerCount: 2
Fore
SplineSet
15 104 m 1,0,-1
 15 1194 l 2,1,2
 15 1378 15 1378 144.5 1507.5 c 128,-1,3
 274 1637 274 1637 458 1637 c 2,4,-1
 1548 1637 l 2,5,6
 1728 1637 1728 1637 1857.5 1507.5 c 128,-1,7
 1987 1378 1987 1378 1987 1194 c 2,8,-1
 1987 104 l 2,9,10
 1987 -76 1987 -76 1857.5 -205.5 c 128,-1,11
 1728 -335 1728 -335 1548 -335 c 2,12,-1
 458 -335 l 2,13,14
 274 -335 274 -335 144.5 -205.5 c 128,-1,15
 15 -76 15 -76 15 104 c 1,16,-1
 15 104 l 1,0,-1
1002 1176 m 1,17,-1
 1002 655 l 1,18,-1
 303 1176 l 1,19,-1
 303 135 l 1,20,-1
 1002 655 l 1,21,-1
 1002 135 l 1,22,-1
 1700 655 l 1,23,-1
 1002 1176 l 1,24,-1
 1002 1176 l 1,17,-1
EndSplineSet
EndChar

StartChar: D
Encoding: 68 68 39
Width: 2002
Flags: W
LayerCount: 2
Fore
SplineSet
15 104 m 1,0,-1
 15 1194 l 2,1,2
 15 1378 15 1378 144.5 1507.5 c 128,-1,3
 274 1637 274 1637 458 1637 c 2,4,-1
 1548 1637 l 2,5,6
 1728 1637 1728 1637 1857.5 1507.5 c 128,-1,7
 1987 1378 1987 1378 1987 1194 c 2,8,-1
 1987 104 l 2,9,10
 1987 -76 1987 -76 1857.5 -205.5 c 128,-1,11
 1728 -335 1728 -335 1548 -335 c 2,12,-1
 458 -335 l 2,13,14
 274 -335 274 -335 144.5 -205.5 c 128,-1,15
 15 -76 15 -76 15 104 c 1,16,-1
 15 104 l 1,0,-1
999 657 m 1,17,-1
 999 1179 l 1,18,-1
 298 657 l 1,19,-1
 999 135 l 1,20,-1
 999 657 l 1,21,-1
 1700 135 l 1,22,-1
 1700 1179 l 1,23,-1
 999 657 l 1,24,-1
 999 657 l 1,17,-1
EndSplineSet
EndChar

StartChar: E
Encoding: 69 69 40
Width: 2002
Flags: W
LayerCount: 2
Fore
SplineSet
15 104 m 1,0,-1
 15 1194 l 2,1,2
 15 1378 15 1378 144.5 1507.5 c 128,-1,3
 274 1637 274 1637 458 1637 c 2,4,-1
 1548 1637 l 2,5,6
 1728 1637 1728 1637 1857.5 1507.5 c 128,-1,7
 1987 1378 1987 1378 1987 1194 c 2,8,-1
 1987 104 l 2,9,10
 1987 -76 1987 -76 1857.5 -205.5 c 128,-1,11
 1728 -335 1728 -335 1548 -335 c 2,12,-1
 458 -335 l 2,13,14
 274 -335 274 -335 144.5 -205.5 c 128,-1,15
 15 -76 15 -76 15 104 c 1,16,-1
 15 104 l 1,0,-1
887 1086 m 1,17,-1
 887 651 l 1,18,-1
 298 1086 l 1,19,-1
 298 217 l 1,20,-1
 887 651 l 1,21,-1
 887 217 l 1,22,-1
 1477 651 l 1,23,-1
 887 1086 l 1,24,-1
 887 1086 l 1,17,-1
1700 1086 m 1,25,-1
 1700 1086 l 1,26,-1
 1487 1086 l 1,27,-1
 1487 217 l 1,28,-1
 1700 217 l 1,29,-1
 1700 1086 l 1,25,-1
EndSplineSet
EndChar

StartChar: F
Encoding: 70 70 41
Width: 2002
Flags: W
LayerCount: 2
Fore
SplineSet
15 104 m 1,0,-1
 15 1194 l 2,1,2
 15 1378 15 1378 144.5 1507.5 c 128,-1,3
 274 1637 274 1637 458 1637 c 2,4,-1
 1548 1637 l 2,5,6
 1728 1637 1728 1637 1857.5 1507.5 c 128,-1,7
 1987 1378 1987 1378 1987 1194 c 2,8,-1
 1987 104 l 2,9,10
 1987 -76 1987 -76 1857.5 -205.5 c 128,-1,11
 1728 -335 1728 -335 1548 -335 c 2,12,-1
 458 -335 l 2,13,14
 274 -335 274 -335 144.5 -205.5 c 128,-1,15
 15 -76 15 -76 15 104 c 1,16,-1
 15 104 l 1,0,-1
1113 652 m 1,17,-1
 1113 1085 l 1,18,-1
 526 652 l 1,19,-1
 1113 219 l 1,20,-1
 1113 652 l 1,21,-1
 1700 219 l 1,22,-1
 1700 1085 l 1,23,-1
 1113 652 l 1,24,-1
 1113 652 l 1,17,-1
516 219 m 1,25,-1
 516 1085 l 1,26,-1
 303 1085 l 1,27,-1
 303 219 l 1,28,-1
 516 219 l 1,29,-1
 516 219 l 1,25,-1
EndSplineSet
EndChar

StartChar: G
Encoding: 71 71 42
Width: 2002
Flags: W
LayerCount: 2
Fore
SplineSet
15 104 m 1,0,-1
 15 1194 l 2,1,2
 15 1378 15 1378 144.5 1507.5 c 128,-1,3
 274 1637 274 1637 458 1637 c 2,4,-1
 1548 1637 l 2,5,6
 1728 1637 1728 1637 1857.5 1507.5 c 128,-1,7
 1987 1378 1987 1378 1987 1194 c 2,8,-1
 1987 104 l 2,9,10
 1987 -76 1987 -76 1857.5 -205.5 c 128,-1,11
 1728 -335 1728 -335 1548 -335 c 2,12,-1
 458 -335 l 2,13,14
 274 -335 274 -335 144.5 -205.5 c 128,-1,15
 15 -76 15 -76 15 104 c 1,16,-1
 15 104 l 1,0,-1
1470 182 m 1,17,-1
 1470 1121 l 1,18,-1
 532 1121 l 1,19,-1
 532 182 l 1,20,-1
 1470 182 l 1,21,-1
 1470 182 l 1,17,-1
EndSplineSet
EndChar

StartChar: H
Encoding: 72 72 43
Width: 2002
Flags: W
LayerCount: 2
Fore
SplineSet
15 104 m 1,0,-1
 15 1194 l 2,1,2
 15 1378 15 1378 144.5 1507.5 c 128,-1,3
 274 1637 274 1637 458 1637 c 2,4,-1
 1548 1637 l 2,5,6
 1728 1637 1728 1637 1857.5 1507.5 c 128,-1,7
 1987 1378 1987 1378 1987 1194 c 2,8,-1
 1987 104 l 2,9,10
 1987 -76 1987 -76 1857.5 -205.5 c 128,-1,11
 1728 -335 1728 -335 1548 -335 c 2,12,-1
 458 -335 l 2,13,14
 274 -335 274 -335 144.5 -205.5 c 128,-1,15
 15 -76 15 -76 15 104 c 1,16,-1
 15 104 l 1,0,-1
1598 374 m 1,17,-1
 399 374 l 1,18,-1
 399 146 l 1,19,-1
 1598 146 l 1,20,-1
 1598 374 l 1,21,-1
 1598 374 l 1,17,-1
399 498 m 1,22,-1
 399 498 l 1,23,-1
 1598 498 l 1,24,-1
 999 1161 l 1,25,-1
 399 498 l 1,22,-1
EndSplineSet
EndChar

StartChar: I
Encoding: 73 73 44
Width: 2002
Flags: W
LayerCount: 2
Fore
SplineSet
15 104 m 1,0,-1
 15 1194 l 2,1,2
 15 1378 15 1378 144.5 1507.5 c 128,-1,3
 274 1637 274 1637 458 1637 c 2,4,-1
 1548 1637 l 2,5,6
 1728 1637 1728 1637 1857.5 1507.5 c 128,-1,7
 1987 1378 1987 1378 1987 1194 c 2,8,-1
 1987 104 l 2,9,10
 1987 -76 1987 -76 1857.5 -205.5 c 128,-1,11
 1728 -335 1728 -335 1548 -335 c 2,12,-1
 458 -335 l 2,13,14
 274 -335 274 -335 144.5 -205.5 c 128,-1,15
 15 -76 15 -76 15 104 c 1,16,-1
 15 104 l 1,0,-1
1001 1161 m 1,17,-1
 1001 1161 l 1,18,19
 790 1161 790 1161 641 1011.5 c 128,-1,20
 492 862 492 862 492 651 c 256,21,22
 492 440 492 440 641 291 c 128,-1,23
 790 142 790 142 1001 142 c 256,24,25
 1212 142 1212 142 1361.5 291 c 128,-1,26
 1511 440 1511 440 1511 651 c 256,27,28
 1511 862 1511 862 1361.5 1011.5 c 128,-1,29
 1212 1161 1212 1161 1001 1161 c 1,17,-1
EndSplineSet
EndChar

StartChar: J
Encoding: 74 74 45
Width: 2002
Flags: W
LayerCount: 2
Fore
SplineSet
15 104 m 1,0,-1
 15 104 l 1,1,2
 15 -76 15 -76 144.5 -205.5 c 128,-1,3
 274 -335 274 -335 458 -335 c 2,4,-1
 1548 -335 l 2,5,6
 1728 -335 1728 -335 1857.5 -205.5 c 128,-1,7
 1987 -76 1987 -76 1987 104 c 2,8,-1
 1987 1194 l 2,9,10
 1987 1378 1987 1378 1857.5 1507.5 c 128,-1,11
 1728 1637 1728 1637 1548 1637 c 2,12,-1
 458 1637 l 2,13,14
 274 1637 274 1637 144.5 1507.5 c 128,-1,15
 15 1378 15 1378 15 1194 c 2,16,-1
 15 104 l 1,0,-1
1001 1246 m 1,17,-1
 1001 1246 l 1,18,19
 1124 1246 1124 1246 1232 1199.5 c 128,-1,20
 1340 1153 1340 1153 1421.5 1071.5 c 128,-1,21
 1503 990 1503 990 1549.5 882 c 128,-1,22
 1596 774 1596 774 1596 651 c 256,23,24
 1596 528 1596 528 1549.5 420 c 128,-1,25
 1503 312 1503 312 1421.5 230.5 c 128,-1,26
 1340 149 1340 149 1232 103 c 128,-1,27
 1124 57 1124 57 1001 57 c 256,28,29
 878 57 878 57 770 103 c 128,-1,30
 662 149 662 149 580.5 230.5 c 128,-1,31
 499 312 499 312 453 420 c 128,-1,32
 407 528 407 528 407 651 c 256,33,34
 407 774 407 774 453 882 c 128,-1,35
 499 990 499 990 580.5 1071.5 c 128,-1,36
 662 1153 662 1153 770 1199.5 c 128,-1,37
 878 1246 878 1246 1001 1246 c 1,17,-1
1001 423 m 1,38,-1
 1001 423 l 1,39,40
 1064 423 1064 423 1116 453.5 c 128,-1,41
 1168 484 1168 484 1198.5 536 c 128,-1,42
 1229 588 1229 588 1229 651 c 256,43,44
 1229 714 1229 714 1198.5 766 c 128,-1,45
 1168 818 1168 818 1116 848.5 c 128,-1,46
 1064 879 1064 879 1001 879 c 256,47,48
 938 879 938 879 886 848.5 c 128,-1,49
 834 818 834 818 803.5 766 c 128,-1,50
 773 714 773 714 773 651 c 256,51,52
 773 588 773 588 803.5 536 c 128,-1,53
 834 484 834 484 886 453.5 c 128,-1,54
 938 423 938 423 1001 423 c 1,38,-1
1057 651 m 1,55,56
 1057 628 1057 628 1041 611.5 c 128,-1,57
 1025 595 1025 595 1001 595 c 0,58,59
 978 595 978 595 961.5 611.5 c 128,-1,60
 945 628 945 628 945 651 c 0,61,62
 945 675 945 675 961.5 691 c 128,-1,63
 978 707 978 707 1001 707 c 0,64,65
 1025 707 1025 707 1041 691 c 128,-1,66
 1057 675 1057 675 1057 651 c 1,67,-1
 1057 651 l 1,55,56
EndSplineSet
EndChar

StartChar: K
Encoding: 75 75 46
Width: 2002
Flags: W
LayerCount: 2
Fore
SplineSet
15 104 m 1,0,-1
 15 1194 l 2,1,2
 15 1378 15 1378 144.5 1507.5 c 128,-1,3
 274 1637 274 1637 458 1637 c 2,4,-1
 1548 1637 l 2,5,6
 1728 1637 1728 1637 1857.5 1507.5 c 128,-1,7
 1987 1378 1987 1378 1987 1194 c 2,8,-1
 1987 104 l 2,9,10
 1987 -76 1987 -76 1857.5 -205.5 c 128,-1,11
 1728 -335 1728 -335 1548 -335 c 2,12,-1
 458 -335 l 2,13,14
 274 -335 274 -335 144.5 -205.5 c 128,-1,15
 15 -76 15 -76 15 104 c 1,16,-1
 15 104 l 1,0,-1
1264 89 m 0,18,19
 1264 119 1264 119 1185 141 c 0,20,21
 1116 160 1116 160 1025 163 c 1,22,-1
 1025 318 l 1,23,24
 1095 323 1095 323 1155 358 c 0,25,26
 1224 400 1224 400 1265 469 c 128,-1,27
 1306 538 1306 538 1306 622 c 2,28,-1
 1306 927 l 1,29,-1
 1256 927 l 1,30,-1
 1256 628 l 2,31,32
 1256 558 1256 558 1221.5 500.5 c 128,-1,33
 1187 443 1187 443 1129.5 408.5 c 128,-1,34
 1072 374 1072 374 1001 374 c 0,35,36
 931 374 931 374 873 408.5 c 128,-1,37
 815 443 815 443 781 500.5 c 128,-1,38
 747 558 747 558 747 628 c 2,39,-1
 747 927 l 1,40,-1
 696 927 l 1,41,-1
 696 622 l 2,42,43
 696 538 696 538 737 469 c 128,-1,44
 778 400 778 400 848 358 c 0,45,46
 900 328 900 328 961 319 c 1,47,-1
 961 163 l 1,48,49
 868 160 868 160 800 141 c 0,50,51
 721 119 721 119 721 89 c 0,52,53
 721 83 721 83 723 78 c 0,54,55
 721 72 721 72 721 67 c 0,56,57
 721 36 721 36 800.5 14.5 c 128,-1,58
 880 -7 880 -7 993 -7 c 0,59,60
 1105 -7 1105 -7 1184.5 14.5 c 128,-1,61
 1264 36 1264 36 1264 67 c 0,62,63
 1264 72 1264 72 1262 78 c 0,64,17
 1264 83 1264 83 1264 89 c 0,18,19
1001 409 m 256,65,66
 1063 409 1063 409 1114 439 c 128,-1,67
 1165 469 1165 469 1195 520 c 128,-1,68
 1225 571 1225 571 1225 633 c 2,69,-1
 1225 1082 l 2,70,71
 1225 1144 1225 1144 1195 1194.5 c 128,-1,72
 1165 1245 1165 1245 1114 1276 c 128,-1,73
 1063 1307 1063 1307 1001 1307 c 256,74,75
 939 1307 939 1307 888.5 1276 c 128,-1,76
 838 1245 838 1245 807.5 1194.5 c 128,-1,77
 777 1144 777 1144 777 1082 c 2,78,-1
 777 633 l 2,79,80
 777 571 777 571 807.5 520 c 128,-1,81
 838 469 838 469 888.5 439 c 128,-1,82
 939 409 939 409 1001 409 c 256,65,66
EndSplineSet
EndChar

StartChar: L
Encoding: 76 76 47
Width: 2002
Flags: W
LayerCount: 2
Fore
SplineSet
15 104 m 1,0,-1
 15 1194 l 2,1,2
 15 1378 15 1378 144.5 1507.5 c 128,-1,3
 274 1637 274 1637 458 1637 c 2,4,-1
 1548 1637 l 2,5,6
 1728 1637 1728 1637 1857.5 1507.5 c 128,-1,7
 1987 1378 1987 1378 1987 1194 c 2,8,-1
 1987 104 l 2,9,10
 1987 -76 1987 -76 1857.5 -205.5 c 128,-1,11
 1728 -335 1728 -335 1548 -335 c 2,12,-1
 458 -335 l 2,13,14
 274 -335 274 -335 144.5 -205.5 c 128,-1,15
 15 -76 15 -76 15 104 c 1,16,-1
 15 104 l 1,0,-1
298 414 m 0,17,18
 298 352 298 352 318.5 297 c 128,-1,19
 339 242 339 242 376.5 198 c 128,-1,20
 414 154 414 154 464 125 c 1,21,-1
 464 703 l 1,22,23
 414 674 414 674 376.5 630 c 128,-1,24
 339 586 339 586 318.5 530.5 c 128,-1,25
 298 475 298 475 298 414 c 0,17,18
1355 1142 m 1,26,27
 1172 1241 1172 1241 998.5 1241 c 128,-1,28
 825 1241 825 1241 642 1142 c 0,29,30
 610 1125 610 1125 580 1098.5 c 128,-1,31
 550 1072 550 1072 526 1038.5 c 128,-1,32
 502 1005 502 1005 487.5 967 c 128,-1,33
 473 929 473 929 473 888 c 2,34,-1
 473 125 l 1,35,-1
 565 125 l 1,36,-1
 565 888 l 2,37,38
 565 916 565 916 579.5 946 c 128,-1,39
 594 976 594 976 618 1003.5 c 128,-1,40
 642 1031 642 1031 671 1053 c 128,-1,41
 700 1075 700 1075 729 1087 c 0,42,43
 830 1129 830 1129 914.5 1143 c 128,-1,44
 999 1157 999 1157 1083.5 1143 c 128,-1,45
 1168 1129 1168 1129 1268 1087 c 0,46,47
 1297 1075 1297 1075 1326 1053 c 128,-1,48
 1355 1031 1355 1031 1379 1003.5 c 128,-1,49
 1403 976 1403 976 1418 946 c 128,-1,50
 1433 916 1433 916 1433 888 c 2,51,-1
 1433 125 l 1,52,-1
 1524 125 l 1,53,-1
 1524 888 l 2,54,55
 1524 929 1524 929 1510 967 c 128,-1,56
 1496 1005 1496 1005 1471.5 1038.5 c 128,-1,57
 1447 1072 1447 1072 1417 1098.5 c 128,-1,58
 1387 1125 1387 1125 1355 1142 c 1,59,-1
 1355 1142 l 1,26,27
1533 703 m 1,60,-1
 1533 125 l 1,61,62
 1583 154 1583 154 1620.5 198 c 128,-1,63
 1658 242 1658 242 1679 297 c 128,-1,64
 1700 352 1700 352 1700 414 c 0,65,66
 1699 476 1699 476 1678.5 531 c 128,-1,67
 1658 586 1658 586 1620.5 630 c 128,-1,68
 1583 674 1583 674 1533 703 c 1,60,-1
660 752 m 2,69,-1
 608 752 l 2,70,71
 593 752 593 752 582.5 741.5 c 128,-1,72
 572 731 572 731 572 716 c 2,73,-1
 572 111 l 2,74,75
 572 96 572 96 582.5 85.5 c 128,-1,76
 593 75 593 75 608 75 c 2,77,-1
 660 75 l 2,78,79
 674 75 674 75 684.5 85.5 c 128,-1,80
 695 96 695 96 695 111 c 2,81,-1
 695 716 l 2,82,83
 695 731 695 731 684.5 741.5 c 128,-1,84
 674 752 674 752 660 752 c 2,69,-1
1388 752 m 2,85,-1
 1337 752 l 2,86,87
 1322 752 1322 752 1311.5 741.5 c 128,-1,88
 1301 731 1301 731 1301 716 c 2,89,-1
 1301 111 l 2,90,91
 1301 96 1301 96 1311.5 85.5 c 128,-1,92
 1322 75 1322 75 1337 75 c 2,93,-1
 1388 75 l 2,94,95
 1403 75 1403 75 1413.5 85.5 c 128,-1,96
 1424 96 1424 96 1424 111 c 2,97,-1
 1424 716 l 2,98,99
 1424 731 1424 731 1413.5 741.5 c 128,-1,100
 1403 752 1403 752 1388 752 c 2,85,-1
EndSplineSet
EndChar

StartChar: M
Encoding: 77 77 48
Width: 2002
Flags: W
LayerCount: 2
Fore
SplineSet
15 104 m 1,0,-1
 15 1194 l 2,1,2
 15 1378 15 1378 144.5 1507.5 c 128,-1,3
 274 1637 274 1637 458 1637 c 2,4,-1
 1548 1637 l 2,5,6
 1728 1637 1728 1637 1857.5 1507.5 c 128,-1,7
 1987 1378 1987 1378 1987 1194 c 2,8,-1
 1987 104 l 2,9,10
 1987 -76 1987 -76 1857.5 -205.5 c 128,-1,11
 1728 -335 1728 -335 1548 -335 c 2,12,-1
 458 -335 l 2,13,14
 274 -335 274 -335 144.5 -205.5 c 128,-1,15
 15 -76 15 -76 15 104 c 1,16,-1
 15 104 l 1,0,-1
853 813 m 1,17,-1
 1443 931 l 1,18,-1
 1443 415 l 1,19,20
 1362 451 1362 451 1254 403 c 1,21,22
 1180 361 1180 361 1157.5 302.5 c 128,-1,23
 1135 244 1135 244 1165 197 c 256,24,25
 1195 150 1195 150 1263.5 138 c 128,-1,26
 1332 126 1332 126 1409 163 c 1,27,28
 1518 226 1518 226 1517 312 c 1,29,-1
 1517 312 l 1,30,-1
 1517 945 l 1,31,-1
 1517 1167 l 1,32,-1
 1517 1240 l 1,33,-1
 780 1093 l 1,34,-1
 780 799 l 1,35,-1
 780 341 l 1,36,37
 698 377 698 377 592 328 c 1,38,39
 516 287 516 287 494 228.5 c 128,-1,40
 472 170 472 170 502 123 c 0,41,42
 532 77 532 77 600.5 64.5 c 128,-1,43
 669 52 669 52 746 90 c 1,44,45
 854 152 854 152 853 239 c 1,46,-1
 853 239 l 1,47,-1
 853 813 l 1,17,-1
EndSplineSet
EndChar

StartChar: N
Encoding: 78 78 49
Width: 2002
Flags: W
LayerCount: 2
Fore
SplineSet
15 104 m 1,0,-1
 15 1194 l 2,1,2
 15 1378 15 1378 144.5 1507.5 c 128,-1,3
 274 1637 274 1637 458 1637 c 2,4,-1
 1548 1637 l 2,5,6
 1728 1637 1728 1637 1857.5 1507.5 c 128,-1,7
 1987 1378 1987 1378 1987 1194 c 2,8,-1
 1987 104 l 2,9,10
 1987 -76 1987 -76 1857.5 -205.5 c 128,-1,11
 1728 -335 1728 -335 1548 -335 c 2,12,-1
 458 -335 l 2,13,14
 274 -335 274 -335 144.5 -205.5 c 128,-1,15
 15 -76 15 -76 15 104 c 1,16,-1
 15 104 l 1,0,-1
399 885 m 1,17,-1
 399 432 l 1,18,-1
 738 432 l 1,19,-1
 1091 43 l 1,20,-1
 1091 1269 l 1,21,-1
 742 885 l 1,22,-1
 399 885 l 1,17,-1
1455 729 m 1,23,-1
 1455 872 l 1,24,-1
 1311 872 l 1,25,-1
 1311 728 l 1,26,-1
 1167 726 l 1,27,-1
 1167 583 l 1,28,-1
 1311 583 l 1,29,-1
 1311 440 l 1,30,-1
 1455 440 l 1,31,-1
 1455 585 l 1,32,-1
 1599 586 l 1,33,-1
 1598 730 l 1,34,-1
 1455 729 l 1,23,-1
EndSplineSet
EndChar

StartChar: O
Encoding: 79 79 50
Width: 2002
Flags: W
LayerCount: 2
Fore
SplineSet
15 104 m 1,0,-1
 15 1194 l 2,1,2
 15 1378 15 1378 144.5 1507.5 c 128,-1,3
 274 1637 274 1637 458 1637 c 2,4,-1
 1548 1637 l 2,5,6
 1728 1637 1728 1637 1857.5 1507.5 c 128,-1,7
 1987 1378 1987 1378 1987 1194 c 2,8,-1
 1987 104 l 2,9,10
 1987 -76 1987 -76 1857.5 -205.5 c 128,-1,11
 1728 -335 1728 -335 1548 -335 c 2,12,-1
 458 -335 l 2,13,14
 274 -335 274 -335 144.5 -205.5 c 128,-1,15
 15 -76 15 -76 15 104 c 1,16,-1
 15 104 l 1,0,-1
399 888 m 1,17,-1
 399 434 l 1,18,-1
 740 434 l 1,19,-1
 1093 44 l 1,20,-1
 1093 1274 l 1,21,-1
 744 888 l 1,22,-1
 399 888 l 1,17,-1
1599 589 m 1,23,-1
 1599 734 l 1,24,-1
 1164 734 l 1,25,-1
 1164 589 l 1,26,-1
 1599 589 l 1,23,-1
EndSplineSet
EndChar

StartChar: P
Encoding: 80 80 51
Width: 2002
Flags: W
LayerCount: 2
Fore
SplineSet
15 104 m 1,0,-1
 15 1194 l 2,1,2
 15 1378 15 1378 144.5 1507.5 c 128,-1,3
 274 1637 274 1637 458 1637 c 2,4,-1
 1548 1637 l 2,5,6
 1728 1637 1728 1637 1857.5 1507.5 c 128,-1,7
 1987 1378 1987 1378 1987 1194 c 2,8,-1
 1987 104 l 2,9,10
 1987 -76 1987 -76 1857.5 -205.5 c 128,-1,11
 1728 -335 1728 -335 1548 -335 c 2,12,-1
 458 -335 l 2,13,14
 274 -335 274 -335 144.5 -205.5 c 128,-1,15
 15 -76 15 -76 15 104 c 1,16,-1
 15 104 l 1,0,-1
956 1269 m 1,17,-1
 949 1263 l 1,18,-1
 949 245 l 1,19,20
 874 299 874 299 793 299 c 2,21,-1
 773 299 l 1,22,23
 593 279 593 279 593 171 c 0,24,25
 593 33 593 33 799 33 c 2,26,-1
 847 33 l 1,27,28
 1036 71 1036 71 1036 196 c 2,29,-1
 1036 1073 l 1,30,31
 1058 1051 1058 1051 1136 1016 c 1,32,33
 1328 959 1328 959 1328 901 c 0,34,35
 1328 831 1328 831 1277 791 c 1,36,-1
 1302 765 l 1,37,-1
 1306 765 l 1,38,39
 1409 843 1409 843 1409 963 c 0,40,41
 1409 1077 1409 1077 1206 1135 c 1,42,43
 1060 1186 1060 1186 1036 1231 c 1,44,-1
 1036 1263 l 1,45,-1
 1030 1269 l 1,46,-1
 956 1269 l 1,17,-1
EndSplineSet
EndChar

StartChar: Q
Encoding: 81 81 52
Width: 2002
Flags: W
LayerCount: 2
Fore
SplineSet
15 104 m 1,0,-1
 15 1194 l 2,1,2
 15 1378 15 1378 144.5 1507.5 c 128,-1,3
 274 1637 274 1637 458 1637 c 2,4,-1
 1548 1637 l 2,5,6
 1728 1637 1728 1637 1857.5 1507.5 c 128,-1,7
 1987 1378 1987 1378 1987 1194 c 2,8,-1
 1987 104 l 2,9,10
 1987 -76 1987 -76 1857.5 -205.5 c 128,-1,11
 1728 -335 1728 -335 1548 -335 c 2,12,-1
 458 -335 l 2,13,14
 274 -335 274 -335 144.5 -205.5 c 128,-1,15
 15 -76 15 -76 15 104 c 1,16,-1
 15 104 l 1,0,-1
1174 1278 m 1,17,-1
 791 893 l 1,18,-1
 399 892 l 1,19,-1
 403 419 l 1,20,-1
 784 416 l 1,21,-1
 1173 29 l 1,22,-1
 1174 1278 l 1,17,-1
1243 901 m 1,23,-1
 1232 831 l 1,24,25
 1278 817 1278 817 1306.5 770.5 c 128,-1,26
 1335 724 1335 724 1337 660 c 0,27,28
 1338 596 1338 596 1312 547 c 128,-1,29
 1286 498 1286 498 1242 479 c 1,30,-1
 1256 409 l 1,31,32
 1326 434 1326 434 1367.5 503 c 128,-1,33
 1409 572 1409 572 1408 662 c 0,34,35
 1404 752 1404 752 1359 817.5 c 128,-1,36
 1314 883 1314 883 1243 901 c 1,37,-1
 1243 901 l 1,23,-1
1269 1102 m 1,38,-1
 1260 1034 l 1,39,40
 1377 1009 1377 1009 1451 909 c 128,-1,41
 1525 809 1525 809 1530 671 c 1,42,43
 1530 532 1530 532 1459.5 429 c 128,-1,44
 1389 326 1389 326 1273 295 c 1,45,-1
 1273 295 l 1,46,-1
 1285 227 l 1,47,48
 1427 263 1427 263 1513 385.5 c 128,-1,49
 1599 508 1599 508 1599 672 c 1,50,51
 1593 837 1593 837 1502.5 955 c 128,-1,52
 1412 1073 1412 1073 1269 1102 c 1,53,-1
 1269 1102 l 1,38,-1
EndSplineSet
EndChar

StartChar: R
Encoding: 82 82 53
Width: 2002
Flags: W
LayerCount: 2
Fore
SplineSet
15 104 m 1,0,-1
 15 1194 l 2,1,2
 15 1378 15 1378 144.5 1507.5 c 128,-1,3
 274 1637 274 1637 458 1637 c 2,4,-1
 1548 1637 l 2,5,6
 1728 1637 1728 1637 1857.5 1507.5 c 128,-1,7
 1987 1378 1987 1378 1987 1194 c 2,8,-1
 1987 104 l 2,9,10
 1987 -76 1987 -76 1857.5 -205.5 c 128,-1,11
 1728 -335 1728 -335 1548 -335 c 2,12,-1
 458 -335 l 2,13,14
 274 -335 274 -335 144.5 -205.5 c 128,-1,15
 15 -76 15 -76 15 104 c 1,16,-1
 15 104 l 1,0,-1
1688 1120 m 0,17,18
 1680 1134 1680 1134 1663 1147 c 128,-1,19
 1646 1160 1646 1160 1634 1157 c 1,20,-1
 1578 1120 l 1,21,-1
 1574 1127 l 1,22,-1
 1573 1126 l 1,23,24
 1572 1129 1572 1129 1571 1131 c 0,25,26
 1567 1136 1567 1136 1563 1137.5 c 128,-1,27
 1559 1139 1559 1139 1554 1136 c 0,28,29
 1550 1133 1550 1133 1549 1128.5 c 128,-1,30
 1548 1124 1548 1124 1551 1119 c 0,31,32
 1553 1114 1553 1114 1558 1113 c 128,-1,33
 1563 1112 1563 1112 1567 1113 c 1,34,-1
 1537 1093 l 1,35,-1
 1532 1100 l 1,36,-1
 1532 1100 l 1,37,38
 1532 1102 1532 1102 1530 1104 c 0,39,40
 1527 1109 1527 1109 1522 1110.5 c 128,-1,41
 1517 1112 1517 1112 1513 1110 c 0,42,43
 1510 1107 1510 1107 1509 1102 c 128,-1,44
 1508 1097 1508 1097 1510 1092 c 0,45,46
 1513 1088 1513 1088 1518 1086 c 128,-1,47
 1523 1084 1523 1084 1526 1087 c 1,48,-1
 1498 1068 l 1,49,-1
 1494 1075 l 1,50,-1
 1493 1074 l 1,51,52
 1493 1076 1493 1076 1491 1078 c 0,53,54
 1489 1083 1489 1083 1484 1084.5 c 128,-1,55
 1479 1086 1479 1086 1475 1084 c 0,56,57
 1470 1082 1470 1082 1469 1077 c 128,-1,58
 1468 1072 1468 1072 1472 1067 c 0,59,60
 1475 1062 1475 1062 1479.5 1060.5 c 128,-1,61
 1484 1059 1484 1059 1488 1062 c 1,62,-1
 1456 1041 l 1,63,-1
 1454 1033 l 1,64,-1
 1449 1024 l 1,65,-1
 1446 1022 l 1,66,-1
 1485 956 l 1,67,-1
 1489 958 l 1,68,-1
 1499 957 l 1,69,-1
 1506 955 l 1,70,-1
 1540 974 l 1,71,72
 1536 971 1536 971 1535 966.5 c 128,-1,73
 1534 962 1534 962 1537 956 c 0,74,75
 1539 952 1539 952 1544 950 c 128,-1,76
 1549 948 1549 948 1553 951 c 0,77,78
 1558 954 1558 954 1559 958.5 c 128,-1,79
 1560 963 1560 963 1557 969 c 0,80,81
 1555 970 1555 970 1553 972 c 1,82,-1
 1554 973 l 1,83,-1
 1551 979 l 1,84,-1
 1581 996 l 1,85,86
 1577 993 1577 993 1576 988.5 c 128,-1,87
 1575 984 1575 984 1578 978 c 0,88,89
 1581 974 1581 974 1585.5 972 c 128,-1,90
 1590 970 1590 970 1595 973 c 0,91,92
 1598 976 1598 976 1599 980.5 c 128,-1,93
 1600 985 1600 985 1597 991 c 0,94,95
 1596 992 1596 992 1595 994 c 1,96,-1
 1596 994 l 1,97,-1
 1591 1001 l 1,98,-1
 1624 1019 l 1,99,100
 1620 1016 1620 1016 1619 1011 c 128,-1,101
 1618 1006 1618 1006 1621 1001 c 0,102,103
 1624 997 1624 997 1628.5 995 c 128,-1,104
 1633 993 1633 993 1638 996 c 0,105,106
 1642 998 1642 998 1643 1003 c 128,-1,107
 1644 1008 1644 1008 1640 1013 c 0,108,109
 1639 1015 1639 1015 1638 1017 c 1,110,-1
 1638 1017 l 1,111,-1
 1635 1024 l 1,112,-1
 1695 1055 l 1,113,114
 1702 1066 1702 1066 1698.5 1086 c 128,-1,115
 1695 1106 1695 1106 1688 1120 c 0,17,18
1609 1114 m 0,116,117
 1610 1112 1610 1112 1610 1108.5 c 128,-1,118
 1610 1105 1610 1105 1606 1103 c 2,119,-1
 1593 1094 l 1,120,-1
 1584 1110 l 1,121,-1
 1596 1117 l 2,122,123
 1599 1119 1599 1119 1603 1118 c 128,-1,124
 1607 1117 1607 1117 1609 1114 c 0,116,117
1644 1055 m 0,125,126
 1645 1052 1645 1052 1645 1048 c 128,-1,127
 1645 1044 1645 1044 1640 1041 c 2,128,-1
 1628 1035 l 1,129,-1
 1619 1050 l 1,130,-1
 1632 1057 l 2,131,132
 1637 1059 1637 1059 1639.5 1058 c 128,-1,133
 1642 1057 1642 1057 1644 1055 c 0,125,126
1574 1103 m 1,134,-1
 1583 1087 l 1,135,-1
 1553 1067 l 1,136,-1
 1543 1083 l 1,137,-1
 1574 1103 l 1,134,-1
1609 1045 m 1,138,-1
 1617 1029 l 1,139,-1
 1585 1012 l 1,140,-1
 1575 1028 l 1,141,-1
 1609 1045 l 1,138,-1
1533 1076 m 1,142,-1
 1543 1060 l 1,143,-1
 1514 1041 l 1,144,-1
 1504 1057 l 1,145,-1
 1533 1076 l 1,142,-1
1565 1022 m 1,146,-1
 1574 1006 l 1,147,-1
 1545 990 l 1,148,-1
 1535 1006 l 1,149,-1
 1565 1022 l 1,146,-1
1495 1051 m 1,150,-1
 1504 1034 l 1,151,-1
 1502 1033 l 2,152,153
 1495 1028 1495 1028 1490 1030.5 c 128,-1,154
 1485 1033 1485 1033 1484 1038 c 128,-1,155
 1483 1043 1483 1043 1490 1048 c 2,156,-1
 1495 1051 l 1,150,-1
1524 1001 m 1,157,-1
 1534 984 l 1,158,-1
 1529 982 l 2,159,160
 1522 978 1522 978 1518 981 c 128,-1,161
 1514 984 1514 984 1514 990 c 128,-1,162
 1514 996 1514 996 1521 999 c 2,163,-1
 1524 1001 l 1,157,-1
1439 1018 m 1,164,-1
 1000 769 l 1,165,166
 943 844 943 844 892.5 857.5 c 128,-1,167
 842 871 842 871 800 850 c 0,168,169
 756 825 756 825 725 785 c 0,170,171
 702 758 702 758 685 748 c 0,172,173
 650 734 650 734 600 741 c 0,174,175
 558 746 558 746 506.5 741 c 128,-1,176
 455 736 455 736 394 699 c 1,177,178
 289 625 289 625 299 527 c 128,-1,179
 309 429 309 429 366 338 c 1,180,181
 418 244 418 244 499 188 c 128,-1,182
 580 132 580 132 697 189 c 1,183,184
 757 224 757 224 786.5 267 c 128,-1,185
 816 310 816 310 832 349 c 0,186,187
 849 397 849 397 878 420 c 0,188,189
 896 430 896 430 931 437 c 0,190,191
 980 446 980 446 1024 472 c 0,192,193
 1062 498 1062 498 1074.5 549.5 c 128,-1,194
 1087 601 1087 601 1048 686 c 1,195,-1
 1477 951 l 1,196,-1
 1468 946 l 1,197,-1
 1429 1012 l 1,198,-1
 1439 1018 l 1,164,-1
1361 973 m 1,199,-1
 1402 905 l 1,200,-1
 1392 899 l 1,201,-1
 1352 968 l 1,202,-1
 1361 973 l 1,199,-1
1281 927 m 1,203,-1
 1323 856 l 1,204,-1
 1312 850 l 1,205,-1
 1270 921 l 1,206,-1
 1281 927 l 1,203,-1
1206 885 m 1,207,-1
 1250 812 l 1,208,-1
 1240 806 l 1,209,-1
 1196 879 l 1,210,-1
 1206 885 l 1,207,-1
1142 849 m 1,211,-1
 1187 772 l 1,212,-1
 1177 767 l 1,213,-1
 1132 843 l 1,214,-1
 1142 849 l 1,211,-1
1082 815 m 1,215,-1
 1128 736 l 1,216,-1
 1119 730 l 1,217,-1
 1072 809 l 1,218,-1
 1082 815 l 1,215,-1
1028 785 m 1,219,-1
 1076 704 l 1,220,-1
 1066 698 l 1,221,-1
 1018 778 l 1,222,-1
 1028 785 l 1,219,-1
982 758 m 1,223,-1
 1031 676 l 1,224,-1
 1020 670 l 1,225,-1
 971 752 l 1,226,-1
 982 758 l 1,223,-1
939 735 m 1,227,-1
 989 649 l 1,228,-1
 978 643 l 1,229,-1
 928 728 l 1,230,-1
 939 735 l 1,227,-1
901 713 m 1,231,-1
 952 627 l 1,232,-1
 942 621 l 1,233,-1
 891 706 l 1,234,-1
 901 713 l 1,231,-1
868 694 m 1,235,-1
 920 607 l 1,236,-1
 910 601 l 1,237,-1
 858 688 l 1,238,-1
 868 694 l 1,235,-1
900 595 m 1,239,240
 898 545 898 545 854 516 c 0,241,242
 819 497 819 497 782 506 c 128,-1,243
 745 515 745 515 724 550 c 0,244,245
 704 585 704 585 713.5 621.5 c 128,-1,246
 723 658 723 658 757 679 c 0,247,248
 803 705 803 705 849 683 c 1,249,-1
 827 671 l 1,250,251
 796 679 796 679 767 663 c 0,252,253
 740 646 740 646 732.5 616.5 c 128,-1,254
 725 587 725 587 741 560 c 256,255,256
 757 533 757 533 786.5 525.5 c 128,-1,257
 816 518 816 518 843 533 c 0,258,259
 872 551 872 551 879 582 c 1,260,-1
 900 595 l 1,239,240
864 633 m 0,261,262
 865 632 865 632 865 631 c 1,263,264
 865 631 865 631 865 631 c 1,265,266
 866 630 866 630 866 629 c 1,267,268
 867 629 867 629 867 628 c 1,269,-1
 867 628 l 1,270,271
 868 627 868 627 869 625 c 2,272,-1
 870 623 l 2,273,274
 870 621 870 621 870 620 c 0,275,276
 873 613 873 613 874 605 c 0,277,278
 874 601 874 601 874 598 c 0,279,280
 874 593 874 593 873 587 c 0,281,282
 873 585 873 585 872 584 c 0,283,284
 871 580 871 580 870 577 c 1,285,-1
 870 577 l 1,286,287
 863 553 863 553 841 539 c 0,288,289
 815 525 815 525 788.5 531.5 c 128,-1,290
 762 538 762 538 746 564 c 0,291,292
 732 589 732 589 739 615.5 c 128,-1,293
 746 642 746 642 771 657 c 0,294,295
 793 671 793 671 818 665 c 1,296,-1
 818 665 l 1,297,298
 820 665 820 665 821 665 c 0,299,300
 823 664 823 664 825 664 c 0,301,302
 832 662 832 662 838 658 c 0,303,304
 840 657 840 657 842 657 c 1,305,306
 842 656 842 656 844 655 c 2,307,-1
 845 655 l 2,308,309
 846 654 846 654 848 653 c 0,310,311
 851 649 851 649 856 645 c 1,312,-1
 856 645 l 1,313,314
 856 643 856 643 858 642 c 2,315,316
 858 642 858 642 859 641 c 2,317,-1
 860 640 l 1,318,-1
 861 638 l 2,319,320
 862 637 862 637 863 636 c 1,321,322
 863 636 863 636 863 636 c 1,323,324
 863 635 863 635 863 635 c 2,325,326
 864 634 864 634 864 633 c 0,261,262
529 595 m 2,327,-1
 670 357 l 2,328,329
 671 354 671 354 669.5 351 c 128,-1,330
 668 348 668 348 664 345 c 2,331,-1
 636 329 l 2,332,333
 633 327 633 327 629 327 c 128,-1,334
 625 327 625 327 623 329 c 2,335,-1
 483 568 l 2,336,337
 481 571 481 571 483 574 c 128,-1,338
 485 577 485 577 488 579 c 2,339,-1
 515 596 l 2,340,341
 520 598 520 598 523.5 598 c 128,-1,342
 527 598 527 598 529 595 c 2,327,-1
EndSplineSet
EndChar

StartChar: S
Encoding: 83 83 54
Width: 2002
Flags: W
LayerCount: 2
Fore
SplineSet
15 104 m 1,0,-1
 15 1194 l 2,1,2
 15 1378 15 1378 144.5 1507.5 c 128,-1,3
 274 1637 274 1637 458 1637 c 2,4,-1
 1548 1637 l 2,5,6
 1728 1637 1728 1637 1857.5 1507.5 c 128,-1,7
 1987 1378 1987 1378 1987 1194 c 2,8,-1
 1987 104 l 2,9,10
 1987 -76 1987 -76 1857.5 -205.5 c 128,-1,11
 1728 -335 1728 -335 1548 -335 c 2,12,-1
 458 -335 l 2,13,14
 274 -335 274 -335 144.5 -205.5 c 128,-1,15
 15 -76 15 -76 15 104 c 1,16,-1
 15 104 l 1,0,-1
981 648 m 0,17,18
 934 647 934 647 903 615.5 c 128,-1,19
 872 584 872 584 872 539 c 0,20,21
 872 507 872 507 890 480 c 1,22,-1
 890 50 l 2,23,24
 890 32 890 32 900 19.5 c 128,-1,25
 910 7 910 7 924 7 c 2,26,-1
 973 7 l 2,27,28
 987 7 987 7 997.5 19.5 c 128,-1,29
 1008 32 1008 32 1008 50 c 2,30,-1
 1008 434 l 1,31,32
 1043 444 1043 444 1066.5 472.5 c 128,-1,33
 1090 501 1090 501 1090 539 c 0,34,35
 1090 557 1090 557 1084 573 c 1,36,37
 1092 551 1092 551 1092 527 c 1,38,39
 1159 561 1159 561 1174 638 c 2,40,-1
 1252 1108 l 1,41,42
 1262 1220 1262 1220 1164.5 1271 c 128,-1,43
 1067 1322 1067 1322 957.5 1302 c 128,-1,44
 848 1282 848 1282 824 1178 c 1,45,-1
 819 1151 l 1,46,-1
 1100 1120 l 2,47,48
 1103 1119 1103 1119 1106 1114.5 c 128,-1,49
 1109 1110 1109 1110 1108 1103 c 0,50,51
 1107 1097 1107 1097 1104 1093 c 128,-1,52
 1101 1089 1101 1089 1096 1089 c 2,53,-1
 814 1120 l 1,54,-1
 810 1094 l 1,55,-1
 1088 1064 l 2,56,57
 1092 1063 1092 1063 1094.5 1058.5 c 128,-1,58
 1097 1054 1097 1054 1097 1048 c 0,59,60
 1096 1041 1096 1041 1092.5 1037 c 128,-1,61
 1089 1033 1089 1033 1085 1034 c 2,62,-1
 804 1063 l 1,63,-1
 800 1036 l 1,64,-1
 1079 1007 l 2,65,66
 1084 1006 1084 1006 1086.5 1001 c 128,-1,67
 1089 996 1089 996 1089 990 c 0,68,69
 1088 983 1088 983 1084.5 979 c 128,-1,70
 1081 975 1081 975 1077 976 c 2,71,-1
 795 1006 l 1,72,-1
 792 987 l 1,73,-1
 1072 957 l 2,74,75
 1076 956 1076 956 1078.5 951.5 c 128,-1,76
 1081 947 1081 947 1080 941 c 0,77,78
 1079 934 1079 934 1076 930 c 128,-1,79
 1073 926 1073 926 1068 927 c 2,80,-1
 787 956 l 1,81,-1
 746 708 l 2,82,83
 738 654 738 654 764.5 608.5 c 128,-1,84
 791 563 791 563 841 543 c 1,85,86
 842 546 842 546 842 550 c 0,87,88
 852 602 852 602 892.5 631 c 128,-1,89
 933 660 933 660 986 654 c 0,90,91
 1021 647 1021 647 1046 626 c 1,92,93
 1017 648 1017 648 981 648 c 0,17,18
EndSplineSet
EndChar

StartChar: T
Encoding: 84 84 55
Width: 2002
Flags: W
LayerCount: 2
Fore
SplineSet
15 104 m 1,0,-1
 15 1194 l 2,1,2
 15 1378 15 1378 144.5 1507.5 c 128,-1,3
 274 1637 274 1637 458 1637 c 2,4,-1
 1548 1637 l 2,5,6
 1728 1637 1728 1637 1857.5 1507.5 c 128,-1,7
 1987 1378 1987 1378 1987 1194 c 2,8,-1
 1987 104 l 2,9,10
 1987 -76 1987 -76 1857.5 -205.5 c 128,-1,11
 1728 -335 1728 -335 1548 -335 c 2,12,-1
 458 -335 l 2,13,14
 274 -335 274 -335 144.5 -205.5 c 128,-1,15
 15 -76 15 -76 15 104 c 1,16,-1
 15 104 l 1,0,-1
612 1089 m 0,17,18
 568 1087 568 1087 540 1054 c 0,19,20
 399 874 399 874 399 668.5 c 128,-1,21
 399 463 399 463 540 283 c 1,22,23
 708 93 708 93 947 72 c 128,-1,24
 1186 51 1186 51 1385 209 c 1,25,26
 1576 377 1576 377 1596.5 616 c 128,-1,27
 1617 855 1617 855 1459 1054 c 0,28,29
 1424 1098 1424 1098 1367 1091 c 1,30,31
 1312 1080 1312 1080 1292 1027 c 0,32,33
 1275 973 1275 973 1312 931 c 0,34,35
 1421 794 1421 794 1407 632.5 c 128,-1,36
 1393 471 1393 471 1262 355 c 1,37,38
 1126 247 1126 247 964 261 c 128,-1,39
 802 275 802 275 687 406 c 1,40,41
 491 669 491 669 687 931 c 0,42,43
 724 979 724 979 700 1034 c 0,44,45
 673 1088 673 1088 612 1089 c 0,17,18
997 1252 m 0,46,47
 958 1252 958 1252 930 1223 c 256,48,49
 902 1194 902 1194 902 1155 c 2,50,-1
 902 539 l 2,51,52
 904 484 904 484 950 455 c 0,53,54
 998 429 998 429 1047 455 c 1,55,56
 1093 484 1093 484 1094 539 c 2,57,-1
 1094 1155 l 2,58,59
 1094 1195 1094 1195 1067 1224 c 0,60,61
 1037 1252 1037 1252 997 1252 c 0,46,47
EndSplineSet
EndChar

StartChar: U
Encoding: 85 85 56
Width: 2002
Flags: W
LayerCount: 2
Fore
SplineSet
15 104 m 1,0,-1
 15 1194 l 2,1,2
 15 1378 15 1378 144.5 1507.5 c 128,-1,3
 274 1637 274 1637 458 1637 c 2,4,-1
 1548 1637 l 2,5,6
 1728 1637 1728 1637 1857.5 1507.5 c 128,-1,7
 1987 1378 1987 1378 1987 1194 c 2,8,-1
 1987 104 l 2,9,10
 1987 -76 1987 -76 1857.5 -205.5 c 128,-1,11
 1728 -335 1728 -335 1548 -335 c 2,12,-1
 458 -335 l 2,13,14
 274 -335 274 -335 144.5 -205.5 c 128,-1,15
 15 -76 15 -76 15 104 c 1,16,-1
 15 104 l 1,0,-1
836 1079 m 1,17,-1
 1471 1079 l 1,18,-1
 1471 956 l 1,19,-1
 836 956 l 1,20,-1
 836 1079 l 1,17,-1
1532 227 m 2,21,-1
 1532 1242 l 1,22,-1
 775 1242 l 1,23,-1
 775 276 l 1,24,25
 710 319 710 319 641 319 c 0,26,27
 466 319 466 319 466 200 c 0,28,29
 466 72 466 72 638 72 c 0,30,31
 836 72 836 72 836 226 c 2,32,-1
 836 834 l 1,33,-1
 1471 834 l 1,34,-1
 1471 277 l 1,35,36
 1406 320 1406 320 1337 320 c 0,37,38
 1162 320 1162 320 1162 201 c 0,39,40
 1162 72 1162 72 1334 72 c 0,41,42
 1532 72 1532 72 1532 227 c 2,21,-1
EndSplineSet
EndChar

StartChar: V
Encoding: 86 86 57
Width: 2002
Flags: W
LayerCount: 2
Fore
SplineSet
15 104 m 1,0,-1
 15 1194 l 2,1,2
 15 1378 15 1378 144.5 1507.5 c 128,-1,3
 274 1637 274 1637 458 1637 c 2,4,-1
 1548 1637 l 2,5,6
 1728 1637 1728 1637 1857.5 1507.5 c 128,-1,7
 1987 1378 1987 1378 1987 1194 c 2,8,-1
 1987 104 l 2,9,10
 1987 -76 1987 -76 1857.5 -205.5 c 128,-1,11
 1728 -335 1728 -335 1548 -335 c 2,12,-1
 458 -335 l 2,13,14
 274 -335 274 -335 144.5 -205.5 c 128,-1,15
 15 -76 15 -76 15 104 c 1,16,-1
 15 104 l 1,0,-1
950 143 m 0,17,18
 971 180 971 180 985.5 196 c 128,-1,19
 1000 212 1000 212 1000 212 c 1,20,21
 988 203 988 203 970.5 213 c 128,-1,22
 953 223 953 223 950.5 252 c 128,-1,23
 948 281 948 281 980 328 c 0,24,25
 1001 357 1001 357 1017.5 373.5 c 128,-1,26
 1034 390 1034 390 1047 397 c 128,-1,27
 1060 404 1060 404 1068.5 404.5 c 128,-1,28
 1077 405 1077 405 1083.5 401 c 128,-1,29
 1090 397 1090 397 1093.5 391.5 c 128,-1,30
 1097 386 1097 386 1098.5 382 c 128,-1,31
 1100 378 1100 378 1100 378 c 1,32,33
 1108 417 1108 417 1135 444.5 c 128,-1,34
 1162 472 1162 472 1187 490 c 0,35,36
 1199 498 1199 498 1207 505 c 0,37,38
 1266 562 1266 562 1262.5 618.5 c 128,-1,39
 1259 675 1259 675 1229 715 c 128,-1,40
 1199 755 1199 755 1183 766 c 1,41,-1
 1182 766 l 1,42,-1
 1405 1045 l 1,43,-1
 1413 1038 l 1,44,-1
 1439 1072 l 1,45,-1
 1460 1058 l 1,46,47
 1451 1036 1451 1036 1466 1023 c 0,48,49
 1475 1015 1475 1015 1488 1017.5 c 128,-1,50
 1501 1020 1501 1020 1511 1032 c 0,51,52
 1520 1044 1520 1044 1520 1056.5 c 128,-1,53
 1520 1069 1520 1069 1511 1077 c 0,54,55
 1503 1084 1503 1084 1492.5 1083 c 128,-1,56
 1482 1082 1482 1082 1472 1074 c 1,57,-1
 1453 1089 l 1,58,-1
 1492 1139 l 1,59,-1
 1514 1123 l 1,60,61
 1505 1101 1505 1101 1520 1089 c 0,62,63
 1529 1080 1529 1080 1542 1083 c 128,-1,64
 1555 1086 1555 1086 1565 1098 c 0,65,66
 1574 1109 1574 1109 1574 1122 c 128,-1,67
 1574 1135 1574 1135 1565 1143 c 0,68,69
 1557 1150 1557 1150 1546 1148.5 c 128,-1,70
 1535 1147 1535 1147 1526 1140 c 1,71,-1
 1506 1156 l 1,72,-1
 1530 1188 l 1,73,-1
 1538 1186 l 1,74,-1
 1540 1192 l 1,75,76
 1549 1185 1549 1185 1555.5 1181.5 c 128,-1,77
 1562 1178 1562 1178 1565.5 1177.5 c 128,-1,78
 1569 1177 1569 1177 1569 1177 c 1,79,-1
 1569 1177 l 1,80,-1
 1577 1170 l 1,81,-1
 1597 1200 l 1,82,-1
 1579 1216 l 1,83,-1
 1584 1235 l 1,84,-1
 1565 1245 l 1,85,-1
 1579 1274 l 2,86,87
 1578 1275 1578 1275 1577.5 1276.5 c 128,-1,88
 1577 1278 1577 1278 1576 1278.5 c 128,-1,89
 1575 1279 1575 1279 1574 1279.5 c 128,-1,90
 1573 1280 1573 1280 1572 1279.5 c 128,-1,91
 1571 1279 1571 1279 1571 1279 c 1,92,93
 1571 1281 1571 1281 1570 1282.5 c 128,-1,94
 1569 1284 1569 1284 1568 1284.5 c 128,-1,95
 1567 1285 1567 1285 1566 1285 c 128,-1,96
 1565 1285 1565 1285 1564.5 1285 c 128,-1,97
 1564 1285 1564 1285 1564 1285 c 1,98,99
 1564 1287 1564 1287 1563.5 1288.5 c 128,-1,100
 1563 1290 1563 1290 1562 1290 c 128,-1,101
 1561 1290 1561 1290 1560 1290.5 c 128,-1,102
 1559 1291 1559 1291 1557.5 1291 c 128,-1,103
 1556 1291 1556 1291 1556 1291 c 1,104,105
 1557 1294 1557 1294 1556 1295 c 128,-1,106
 1555 1296 1555 1296 1554.5 1296.5 c 128,-1,107
 1554 1297 1554 1297 1553 1297.5 c 128,-1,108
 1552 1298 1552 1298 1550.5 1298 c 128,-1,109
 1549 1298 1549 1298 1549 1298 c 1,110,111
 1550 1300 1550 1300 1549 1301.5 c 128,-1,112
 1548 1303 1548 1303 1547 1303.5 c 128,-1,113
 1546 1304 1546 1304 1545 1304.5 c 128,-1,114
 1544 1305 1544 1305 1543 1304.5 c 128,-1,115
 1542 1304 1542 1304 1542 1304 c 1,116,117
 1543 1307 1543 1307 1542 1308.5 c 128,-1,118
 1541 1310 1541 1310 1539.5 1310.5 c 128,-1,119
 1538 1311 1538 1311 1537 1311.5 c 128,-1,120
 1536 1312 1536 1312 1535 1311 c 2,121,-1
 1510 1294 l 1,122,-1
 1496 1311 l 1,123,-1
 1477 1303 l 1,124,-1
 1461 1317 l 1,125,-1
 1435 1293 l 1,126,-1
 1441 1286 l 1,127,-1
 1441 1286 l 1,128,129
 1441 1286 1441 1286 1442.5 1282.5 c 128,-1,130
 1444 1279 1444 1279 1448 1273.5 c 128,-1,131
 1452 1268 1452 1268 1461 1261 c 1,132,-1
 1455 1258 l 1,133,134
 1455 1258 1455 1258 1456.5 1255 c 128,-1,135
 1458 1252 1458 1252 1459 1248 c 2,136,-1
 1432 1219 l 1,137,-1
 1413 1236 l 1,138,139
 1419 1247 1419 1247 1418 1257 c 128,-1,140
 1417 1267 1417 1267 1410 1275 c 0,141,142
 1401 1283 1401 1283 1388 1280.5 c 128,-1,143
 1375 1278 1375 1278 1364 1267 c 0,144,145
 1355 1256 1355 1256 1354.5 1243 c 128,-1,146
 1354 1230 1354 1230 1362 1222 c 0,147,148
 1379 1209 1379 1209 1399 1221 c 1,149,-1
 1418 1204 l 1,150,-1
 1418 1204 l 1,151,-1
 1374 1156 l 1,152,-1
 1356 1173 l 1,153,154
 1363 1183 1363 1183 1362 1193 c 128,-1,155
 1361 1203 1361 1203 1353 1211 c 0,156,157
 1344 1219 1344 1219 1331 1217 c 128,-1,158
 1318 1215 1318 1215 1308 1204 c 0,159,160
 1299 1193 1299 1193 1298 1180 c 128,-1,161
 1297 1167 1297 1167 1307 1159 c 0,162,163
 1322 1145 1322 1145 1342 1158 c 1,164,-1
 1359 1140 l 1,165,-1
 1331 1108 l 1,166,-1
 1339 1102 l 1,167,-1
 1316 1078 l 1,168,-1
 1100 837 l 1,169,170
 1085 854 1085 854 1041 876.5 c 128,-1,171
 997 899 997 899 941.5 893.5 c 128,-1,172
 886 888 886 888 840 821 c 0,173,174
 834 812 834 812 827 800 c 0,175,176
 813 772 813 772 790 741 c 128,-1,177
 767 710 767 710 730 697 c 1,178,179
 730 697 730 697 734 696 c 128,-1,180
 738 695 738 695 744 692.5 c 128,-1,181
 750 690 750 690 754.5 684 c 128,-1,182
 759 678 759 678 760.5 669 c 128,-1,183
 762 660 762 660 757 646.5 c 128,-1,184
 752 633 752 633 737.5 614.5 c 128,-1,185
 723 596 723 596 698 571 c 0,186,187
 656 532 656 532 627 530 c 128,-1,188
 598 528 598 528 586 543.5 c 128,-1,189
 574 559 574 559 580 573 c 1,190,191
 580 573 580 573 567 556 c 128,-1,192
 554 539 554 539 519 514 c 0,193,194
 499 501 499 501 464.5 463 c 128,-1,195
 430 425 430 425 409 368 c 128,-1,196
 388 311 388 311 409 238.5 c 128,-1,197
 430 166 430 166 525 84 c 256,198,199
 620 2 620 2 694.5 -7.5 c 128,-1,200
 769 -17 769 -17 822.5 12.5 c 128,-1,201
 876 42 876 42 908.5 81.5 c 128,-1,202
 941 121 941 121 950 143 c 0,17,18
816 534 m 0,203,204
 808 527 808 527 801 532 c 0,205,206
 798 535 798 535 797.5 539.5 c 128,-1,207
 797 544 797 544 800 547 c 0,208,209
 802 550 802 550 806.5 550.5 c 128,-1,210
 811 551 811 551 815 548 c 0,211,212
 816 547 816 547 816 545 c 1,213,214
 818 556 818 556 811 563.5 c 128,-1,215
 804 571 804 571 790 568.5 c 128,-1,216
 776 566 776 566 758 545 c 0,217,218
 754 540 754 540 748 533 c 0,219,220
 723 502 723 502 688 466.5 c 128,-1,221
 653 431 653 431 624 420 c 1,222,223
 592 414 592 414 573 439.5 c 128,-1,224
 554 465 554 465 575 489 c 0,225,226
 578 493 578 493 583 493 c 128,-1,227
 588 493 588 493 591 491 c 0,228,229
 594 488 594 488 594 483.5 c 128,-1,230
 594 479 594 479 592 476 c 0,231,232
 589 472 589 472 584.5 471.5 c 128,-1,233
 580 471 580 471 577 475 c 0,234,235
 576 475 576 475 574 476 c 1,236,237
 566 453 566 453 582 436.5 c 128,-1,238
 598 420 598 420 626 433 c 0,239,240
 643 444 643 444 666 467 c 128,-1,241
 689 490 689 490 713 516 c 0,242,243
 742 550 742 550 763 569 c 0,244,245
 781 583 781 583 796.5 577.5 c 128,-1,246
 812 572 812 572 818.5 558.5 c 128,-1,247
 825 545 825 545 816 534 c 0,203,204
919 445 m 0,248,249
 929 456 929 456 943.5 451 c 128,-1,250
 958 446 958 446 965.5 432 c 128,-1,251
 973 418 973 418 962 398 c 0,252,253
 946 374 946 374 918 340 c 0,254,255
 895 313 895 313 875.5 287 c 128,-1,256
 856 261 856 261 849 242 c 0,257,258
 839 213 839 213 858 199 c 128,-1,259
 877 185 877 185 899 198 c 1,260,261
 897 199 897 199 896 199 c 0,262,263
 893 203 893 203 892.5 207 c 128,-1,264
 892 211 892 211 895 215 c 0,265,266
 898 218 898 218 902.5 218.5 c 128,-1,267
 907 219 907 219 910 216 c 256,268,269
 913 213 913 213 913.5 208.5 c 128,-1,270
 914 204 914 204 911 200 c 0,271,272
 890 175 890 175 862 190 c 128,-1,273
 834 205 834 205 836 237 c 1,274,275
 842 268 842 268 872.5 307.5 c 128,-1,276
 903 347 903 347 930 378 c 0,277,278
 935 384 935 384 940 389 c 0,279,280
 957 410 957 410 957.5 424.5 c 128,-1,281
 958 439 958 439 949.5 445 c 128,-1,282
 941 451 941 451 930 447 c 1,283,284
 932 447 932 447 934 445 c 0,285,286
 937 443 937 443 937 438.5 c 128,-1,287
 937 434 937 434 934 431 c 0,288,289
 932 428 932 428 928 427.5 c 128,-1,290
 924 427 924 427 921 430 c 0,291,292
 913 436 913 436 919 445 c 0,248,249
EndSplineSet
EndChar

StartChar: W
Encoding: 87 87 58
Width: 2002
Flags: W
LayerCount: 2
Fore
SplineSet
15 104 m 1,0,-1
 15 1194 l 2,1,2
 15 1378 15 1378 144.5 1507.5 c 128,-1,3
 274 1637 274 1637 458 1637 c 2,4,-1
 1548 1637 l 2,5,6
 1728 1637 1728 1637 1857.5 1507.5 c 128,-1,7
 1987 1378 1987 1378 1987 1194 c 2,8,-1
 1987 104 l 2,9,10
 1987 -76 1987 -76 1857.5 -205.5 c 128,-1,11
 1728 -335 1728 -335 1548 -335 c 2,12,-1
 458 -335 l 2,13,14
 274 -335 274 -335 144.5 -205.5 c 128,-1,15
 15 -76 15 -76 15 104 c 1,16,-1
 15 104 l 1,0,-1
324 326 m 1,17,-1
 324 326 l 1,18,19
 313 326 313 326 305.5 318 c 128,-1,20
 298 310 298 310 298 299 c 2,21,-1
 298 166 l 2,22,23
 298 155 298 155 305.5 147.5 c 128,-1,24
 313 140 313 140 324 140 c 2,25,-1
 532 140 l 2,26,27
 543 140 543 140 550.5 147.5 c 128,-1,28
 558 155 558 155 558 166 c 2,29,-1
 558 299 l 2,30,31
 558 310 558 310 550.5 318 c 128,-1,32
 543 326 543 326 532 326 c 1,33,34
 532 326 532 326 532 326 c 1,35,-1
 324 326 l 1,17,-1
610 326 m 1,36,-1
 610 326 l 1,37,38
 599 326 599 326 591 318 c 128,-1,39
 583 310 583 310 583 299 c 2,40,-1
 583 166 l 2,41,42
 583 155 583 155 591 147.5 c 128,-1,43
 599 140 599 140 610 140 c 2,44,-1
 817 140 l 2,45,46
 828 140 828 140 836 147.5 c 128,-1,47
 844 155 844 155 844 166 c 2,48,-1
 844 299 l 2,49,50
 844 310 844 310 836 318 c 128,-1,51
 828 326 828 326 817 326 c 1,52,53
 817 326 817 326 817 326 c 1,54,-1
 610 326 l 1,36,-1
895 326 m 1,55,-1
 895 326 l 1,56,57
 884 326 884 326 876 318 c 128,-1,58
 868 310 868 310 868 299 c 2,59,-1
 868 166 l 2,60,61
 868 155 868 155 876 147.5 c 128,-1,62
 884 140 884 140 895 140 c 2,63,-1
 1102 140 l 2,64,65
 1113 140 1113 140 1121 147.5 c 128,-1,66
 1129 155 1129 155 1129 166 c 2,67,-1
 1129 299 l 2,68,69
 1129 310 1129 310 1121 318 c 128,-1,70
 1113 326 1113 326 1102 326 c 1,71,72
 1102 326 1102 326 1102 326 c 1,73,-1
 895 326 l 1,55,-1
1181 326 m 1,74,-1
 1181 326 l 1,75,76
 1169 326 1169 326 1161.5 318 c 128,-1,77
 1154 310 1154 310 1154 299 c 2,78,-1
 1154 166 l 2,79,80
 1154 155 1154 155 1161.5 147.5 c 128,-1,81
 1169 140 1169 140 1181 140 c 2,82,-1
 1388 140 l 2,83,84
 1399 140 1399 140 1406.5 147.5 c 128,-1,85
 1414 155 1414 155 1414 166 c 2,86,-1
 1414 299 l 2,87,88
 1414 310 1414 310 1406.5 318 c 128,-1,89
 1399 326 1399 326 1388 326 c 1,90,91
 1388 326 1388 326 1388 326 c 1,92,-1
 1181 326 l 1,74,-1
1466 326 m 1,93,-1
 1466 326 l 1,94,95
 1455 326 1455 326 1447 318 c 128,-1,96
 1439 310 1439 310 1439 299 c 2,97,-1
 1439 166 l 2,98,99
 1439 155 1439 155 1447 147.5 c 128,-1,100
 1455 140 1455 140 1466 140 c 2,101,-1
 1673 140 l 2,102,103
 1684 140 1684 140 1692 147.5 c 128,-1,104
 1700 155 1700 155 1700 166 c 2,105,-1
 1700 299 l 2,106,107
 1700 310 1700 310 1692 318 c 128,-1,108
 1684 326 1684 326 1673 326 c 1,109,110
 1673 326 1673 326 1673 326 c 1,111,-1
 1466 326 l 1,93,-1
610 537 m 1,112,-1
 610 537 l 1,113,114
 599 537 599 537 591 529 c 128,-1,115
 583 521 583 521 583 510 c 2,116,-1
 583 377 l 2,117,118
 583 366 583 366 591 358.5 c 128,-1,119
 599 351 599 351 610 351 c 2,120,-1
 817 351 l 2,121,122
 828 351 828 351 836 358.5 c 128,-1,123
 844 366 844 366 844 377 c 2,124,-1
 844 510 l 2,125,126
 844 521 844 521 836 529 c 128,-1,127
 828 537 828 537 817 537 c 1,128,129
 817 537 817 537 817 537 c 1,130,-1
 610 537 l 1,112,-1
895 537 m 1,131,-1
 895 537 l 1,132,133
 884 537 884 537 876 529 c 128,-1,134
 868 521 868 521 868 510 c 2,135,-1
 868 377 l 2,136,137
 868 366 868 366 876 358.5 c 128,-1,138
 884 351 884 351 895 351 c 2,139,-1
 1102 351 l 2,140,141
 1113 351 1113 351 1121 358.5 c 128,-1,142
 1129 366 1129 366 1129 377 c 2,143,-1
 1129 510 l 2,144,145
 1129 521 1129 521 1121 529 c 128,-1,146
 1113 537 1113 537 1102 537 c 1,147,148
 1102 537 1102 537 1102 537 c 1,149,-1
 895 537 l 1,131,-1
1181 537 m 1,150,-1
 1181 537 l 1,151,152
 1169 537 1169 537 1161.5 529 c 128,-1,153
 1154 521 1154 521 1154 510 c 2,154,-1
 1154 377 l 2,155,156
 1154 366 1154 366 1161.5 358.5 c 128,-1,157
 1169 351 1169 351 1181 351 c 2,158,-1
 1388 351 l 2,159,160
 1399 351 1399 351 1406.5 358.5 c 128,-1,161
 1414 366 1414 366 1414 377 c 2,162,-1
 1414 510 l 2,163,164
 1414 521 1414 521 1406.5 529 c 128,-1,165
 1399 537 1399 537 1388 537 c 1,166,167
 1388 537 1388 537 1388 537 c 1,168,-1
 1181 537 l 1,150,-1
1466 537 m 1,169,-1
 1466 537 l 1,170,171
 1455 537 1455 537 1447 529 c 128,-1,172
 1439 521 1439 521 1439 510 c 2,173,-1
 1439 377 l 2,174,175
 1439 366 1439 366 1447 358.5 c 128,-1,176
 1455 351 1455 351 1466 351 c 2,177,-1
 1673 351 l 2,178,179
 1684 351 1684 351 1692 358.5 c 128,-1,180
 1700 366 1700 366 1700 377 c 2,181,-1
 1700 510 l 2,182,183
 1700 521 1700 521 1692 529 c 128,-1,184
 1684 537 1684 537 1673 537 c 1,185,186
 1673 537 1673 537 1673 537 c 1,187,-1
 1466 537 l 1,169,-1
610 748 m 1,188,-1
 610 748 l 1,189,190
 599 748 599 748 591 740 c 128,-1,191
 583 732 583 732 583 721 c 2,192,-1
 583 588 l 2,193,194
 583 577 583 577 591 569.5 c 128,-1,195
 599 562 599 562 610 562 c 2,196,-1
 817 562 l 2,197,198
 828 562 828 562 836 569.5 c 128,-1,199
 844 577 844 577 844 588 c 2,200,-1
 844 721 l 2,201,202
 844 732 844 732 836 740 c 128,-1,203
 828 748 828 748 817 748 c 1,204,205
 817 748 817 748 817 748 c 1,206,-1
 610 748 l 1,188,-1
895 748 m 1,207,-1
 895 748 l 1,208,209
 884 748 884 748 876 740 c 128,-1,210
 868 732 868 732 868 721 c 2,211,-1
 868 588 l 2,212,213
 868 577 868 577 876 569.5 c 128,-1,214
 884 562 884 562 895 562 c 2,215,-1
 1102 562 l 2,216,217
 1113 562 1113 562 1121 569.5 c 128,-1,218
 1129 577 1129 577 1129 588 c 2,219,-1
 1129 721 l 2,220,221
 1129 732 1129 732 1121 740 c 128,-1,222
 1113 748 1113 748 1102 748 c 1,223,224
 1102 748 1102 748 1102 748 c 1,225,-1
 895 748 l 1,207,-1
1181 748 m 1,226,-1
 1181 748 l 1,227,228
 1169 748 1169 748 1161.5 740 c 128,-1,229
 1154 732 1154 732 1154 721 c 2,230,-1
 1154 588 l 2,231,232
 1154 577 1154 577 1161.5 569.5 c 128,-1,233
 1169 562 1169 562 1181 562 c 2,234,-1
 1388 562 l 2,235,236
 1399 562 1399 562 1406.5 569.5 c 128,-1,237
 1414 577 1414 577 1414 588 c 2,238,-1
 1414 721 l 2,239,240
 1414 732 1414 732 1406.5 740 c 128,-1,241
 1399 748 1399 748 1388 748 c 1,242,243
 1388 748 1388 748 1388 748 c 1,244,-1
 1181 748 l 1,226,-1
895 959 m 1,245,-1
 895 959 l 1,246,247
 884 959 884 959 876 951 c 128,-1,248
 868 943 868 943 868 932 c 2,249,-1
 868 799 l 2,250,251
 868 788 868 788 876 780.5 c 128,-1,252
 884 773 884 773 895 773 c 2,253,-1
 1102 773 l 2,254,255
 1113 773 1113 773 1121 780.5 c 128,-1,256
 1129 788 1129 788 1129 799 c 2,257,-1
 1129 932 l 2,258,259
 1129 943 1129 943 1121 951 c 128,-1,260
 1113 959 1113 959 1102 959 c 1,261,262
 1102 959 1102 959 1102 959 c 1,263,-1
 895 959 l 1,245,-1
1181 959 m 1,264,-1
 1181 959 l 1,265,266
 1169 959 1169 959 1161.5 951 c 128,-1,267
 1154 943 1154 943 1154 932 c 2,268,-1
 1154 799 l 2,269,270
 1154 788 1154 788 1161.5 780.5 c 128,-1,271
 1169 773 1169 773 1181 773 c 2,272,-1
 1388 773 l 2,273,274
 1399 773 1399 773 1406.5 780.5 c 128,-1,275
 1414 788 1414 788 1414 799 c 2,276,-1
 1414 932 l 2,277,278
 1414 943 1414 943 1406.5 951 c 128,-1,279
 1399 959 1399 959 1388 959 c 1,280,281
 1388 959 1388 959 1388 959 c 1,282,-1
 1181 959 l 1,264,-1
895 1170 m 1,283,-1
 895 1170 l 1,284,285
 884 1170 884 1170 876 1162 c 128,-1,286
 868 1154 868 1154 868 1143 c 2,287,-1
 868 1010 l 2,288,289
 868 999 868 999 876 991.5 c 128,-1,290
 884 984 884 984 895 984 c 2,291,-1
 1102 984 l 2,292,293
 1113 984 1113 984 1121 991.5 c 128,-1,294
 1129 999 1129 999 1129 1010 c 2,295,-1
 1129 1143 l 2,296,297
 1129 1154 1129 1154 1121 1162 c 128,-1,298
 1113 1170 1113 1170 1102 1170 c 1,299,300
 1102 1170 1102 1170 1102 1170 c 1,301,-1
 895 1170 l 1,283,-1
EndSplineSet
EndChar

StartChar: X
Encoding: 88 88 59
Width: 2002
Flags: W
LayerCount: 2
Fore
SplineSet
15 104 m 1,0,-1
 15 1194 l 2,1,2
 15 1378 15 1378 144.5 1507.5 c 128,-1,3
 274 1637 274 1637 458 1637 c 2,4,-1
 1548 1637 l 2,5,6
 1728 1637 1728 1637 1857.5 1507.5 c 128,-1,7
 1987 1378 1987 1378 1987 1194 c 2,8,-1
 1987 104 l 2,9,10
 1987 -76 1987 -76 1857.5 -205.5 c 128,-1,11
 1728 -335 1728 -335 1548 -335 c 2,12,-1
 458 -335 l 2,13,14
 274 -335 274 -335 144.5 -205.5 c 128,-1,15
 15 -76 15 -76 15 104 c 1,16,-1
 15 104 l 1,0,-1
1641 750 m 0,17,18
 1631 758 1631 758 1568 799 c 128,-1,19
 1505 840 1505 840 1417.5 887.5 c 128,-1,20
 1330 935 1330 935 1248 962 c 0,21,22
 1244 963 1244 963 1240.5 962 c 128,-1,23
 1237 961 1237 961 1237.5 957 c 128,-1,24
 1238 953 1238 953 1245 945 c 0,25,26
 1248 941 1248 941 1254 934 c 0,27,28
 1271 918 1271 918 1290 896 c 128,-1,29
 1309 874 1309 874 1317 860 c 0,30,31
 1323 845 1323 845 1320.5 825 c 128,-1,32
 1318 805 1318 805 1314 785 c 0,33,34
 1313 780 1313 780 1312 777 c 0,35,36
 1312 774 1312 774 1311 771 c 0,37,38
 1305 751 1305 751 1300.5 699.5 c 128,-1,39
 1296 648 1296 648 1310 570 c 1,40,41
 1294 554 1294 554 1294 532 c 1,42,-1
 1275 531 l 2,43,44
 1274 531 1274 531 1272.5 530 c 128,-1,45
 1271 529 1271 529 1272 527 c 2,46,-1
 1272 525 l 2,47,48
 1272 524 1272 524 1273.5 523 c 128,-1,49
 1275 522 1275 522 1276 522 c 2,50,-1
 1295 523 l 1,51,52
 1296 516 1296 516 1300 509 c 0,53,54
 1311 488 1311 488 1333 482 c 1,55,56
 1341 460 1341 460 1351 437 c 1,57,58
 1346 424 1346 424 1347 412 c 1,59,-1
 1326 409 l 2,60,61
 1324 409 1324 409 1323 408 c 128,-1,62
 1322 407 1322 407 1322 405 c 2,63,-1
 1322 404 l 2,64,65
 1322 402 1322 402 1323.5 401.5 c 128,-1,66
 1325 401 1325 401 1327 401 c 2,67,-1
 1349 403 l 1,68,69
 1350 397 1350 397 1353 392 c 0,70,71
 1363 371 1363 371 1386 365 c 1,72,73
 1395 349 1395 349 1405 332 c 1,74,75
 1392 317 1392 317 1393 297 c 1,76,-1
 1366 295 l 2,77,78
 1365 294 1365 294 1363.5 293 c 128,-1,79
 1362 292 1362 292 1363 291 c 2,80,-1
 1363 289 l 2,81,82
 1363 288 1363 288 1364.5 287 c 128,-1,83
 1366 286 1366 286 1367 286 c 2,84,-1
 1394 288 l 1,85,86
 1395 281 1395 281 1399 273 c 0,87,88
 1400 272 1400 272 1401 270 c 2,89,90
 1401 270 1401 270 1402 269 c 1,91,92
 1389 258 1389 258 1372.5 260 c 128,-1,93
 1356 262 1356 262 1342 287 c 0,94,95
 1339 293 1339 293 1331 308 c 0,96,97
 1330 314 1330 314 1328 320 c 0,98,99
 1324 326 1324 326 1317 330 c 1,100,101
 1290 376 1290 376 1244 453 c 0,102,103
 1243 455 1243 455 1242 457 c 0,104,105
 1240 460 1240 460 1238 463 c 0,106,107
 1184 553 1184 553 1119 660 c 1,108,109
 1130 655 1130 655 1142 660 c 1,110,-1
 1152 644 l 1,111,112
 1139 629 1139 629 1148 613 c 0,113,114
 1152 605 1152 605 1160.5 601 c 128,-1,115
 1169 597 1169 597 1178 600 c 1,116,-1
 1320 365 l 2,117,118
 1320 364 1320 364 1321.5 364 c 128,-1,119
 1323 364 1323 364 1325 364 c 2,120,-1
 1328 366 l 2,121,122
 1329 368 1329 368 1329.5 369 c 128,-1,123
 1330 370 1330 370 1329 371 c 2,124,-1
 1188 604 l 1,125,126
 1196 611 1196 611 1197.5 620.5 c 128,-1,127
 1199 630 1199 630 1195 638 c 0,128,129
 1190 648 1190 648 1180 651 c 128,-1,130
 1170 654 1170 654 1161 650 c 1,131,-1
 1151 666 l 1,132,133
 1163 681 1163 681 1155 696 c 0,134,135
 1150 706 1150 706 1139.5 709 c 128,-1,136
 1129 712 1129 712 1119 707 c 0,137,138
 1105 700 1105 700 1105 683 c 1,139,140
 1097 696 1097 696 1089 708 c 1,141,142
 1099 714 1099 714 1101.5 724.5 c 128,-1,143
 1104 735 1104 735 1099 744 c 0,144,145
 1094 754 1094 754 1083.5 757 c 128,-1,146
 1073 760 1073 760 1063 755 c 1,147,148
 1063 755 1063 755 1063 755 c 1,149,150
 1062 754 1062 754 1062 754 c 1,151,152
 1061 756 1061 756 1060 757 c 0,153,154
 1058 760 1058 760 1056 764 c 1,155,156
 1062 768 1062 768 1063.5 774 c 128,-1,157
 1065 780 1065 780 1062 786 c 0,158,159
 1058 793 1058 793 1051 795 c 128,-1,160
 1044 797 1044 797 1038 794 c 1,161,162
 1035 797 1035 797 1034 800 c 0,163,164
 1033 801 1033 801 1033 802 c 0,165,166
 1042 808 1042 808 1045 818 c 128,-1,167
 1048 828 1048 828 1042 838 c 0,168,169
 1037 848 1037 848 1026.5 851 c 128,-1,170
 1016 854 1016 854 1006 849 c 2,171,172
 1006 849 1006 849 1005 848 c 1,173,174
 1005 848 1005 848 1005 848 c 1,175,176
 1001 855 1001 855 997 861 c 1,177,178
 1006 868 1006 868 1008.5 877.5 c 128,-1,179
 1011 887 1011 887 1006 896 c 0,180,181
 1001 906 1001 906 990.5 909 c 128,-1,182
 980 912 980 912 970 907 c 0,183,184
 969 907 969 907 969 907 c 257,185,186
 969 907 969 907 969 906 c 1,187,188
 894 1028 894 1028 841.5 1115 c 128,-1,189
 789 1202 789 1202 776 1221 c 0,190,191
 759 1244 759 1244 738.5 1252 c 128,-1,192
 718 1260 718 1260 699.5 1258 c 128,-1,193
 681 1256 681 1256 672 1251 c 0,194,195
 669 1249 669 1249 667 1248 c 0,196,197
 655 1243 655 1243 644.5 1233 c 128,-1,198
 634 1223 634 1223 619 1194 c 0,199,200
 612 1177 612 1177 593.5 1158 c 128,-1,201
 575 1139 575 1139 536 1132 c 1,202,-1
 544 1110 l 1,203,-1
 534 1135 l 1,204,-1
 500 1125 l 1,205,-1
 478 1118 l 1,206,-1
 461 1114 l 1,207,208
 461 1114 461 1114 462 1113 c 1,209,-1
 445 1108 l 1,210,-1
 445 1108 l 1,211,-1
 428 1103 l 1,212,213
 428 1103 428 1103 420 1093 c 128,-1,214
 412 1083 412 1083 400 1069 c 128,-1,215
 388 1055 388 1055 374 1043.5 c 128,-1,216
 360 1032 360 1032 348 1027 c 1,217,-1
 350 1020 l 1,218,-1
 549 1092 l 1,219,-1
 548 1097 l 2,220,221
 550 1098 550 1098 562 1101.5 c 128,-1,222
 574 1105 574 1105 588.5 1111 c 128,-1,223
 603 1117 603 1117 613 1127 c 0,224,225
 627 1143 627 1143 635.5 1154.5 c 128,-1,226
 644 1166 644 1166 651 1178 c 0,227,228
 658 1192 658 1192 675.5 1199.5 c 128,-1,229
 693 1207 693 1207 710 1190 c 0,230,231
 724 1174 724 1174 801.5 1030 c 128,-1,232
 879 886 879 886 977 700.5 c 128,-1,233
 1075 515 1075 515 1150 372 c 0,234,235
 1204 268 1204 268 1224 232 c 0,236,237
 1251 181 1251 181 1285 153.5 c 128,-1,238
 1319 126 1319 126 1355 118 c 1,239,240
 1356 106 1356 106 1362 94 c 0,241,242
 1374 72 1374 72 1398 64.5 c 128,-1,243
 1422 57 1422 57 1444 69 c 0,244,245
 1464 79 1464 79 1472 100 c 128,-1,246
 1480 121 1480 121 1473 142 c 1,247,248
 1523 175 1523 175 1542 234.5 c 128,-1,249
 1561 294 1561 294 1526 361 c 0,250,251
 1494 420 1494 420 1469.5 509 c 128,-1,252
 1445 598 1445 598 1473 679 c 0,253,254
 1482 704 1482 704 1496 717 c 128,-1,255
 1510 730 1510 730 1542 733.5 c 128,-1,256
 1574 737 1574 737 1638 732 c 0,257,258
 1648 733 1648 733 1649 737.5 c 128,-1,259
 1650 742 1650 742 1641 750 c 0,17,18
EndSplineSet
EndChar

StartChar: Y
Encoding: 89 89 60
Width: 2002
Flags: W
LayerCount: 2
Fore
SplineSet
15 104 m 1,0,-1
 15 1194 l 2,1,2
 15 1378 15 1378 144.5 1507.5 c 128,-1,3
 274 1637 274 1637 458 1637 c 2,4,-1
 1548 1637 l 2,5,6
 1728 1637 1728 1637 1857.5 1507.5 c 128,-1,7
 1987 1378 1987 1378 1987 1194 c 2,8,-1
 1987 104 l 2,9,10
 1987 -76 1987 -76 1857.5 -205.5 c 128,-1,11
 1728 -335 1728 -335 1548 -335 c 2,12,-1
 458 -335 l 2,13,14
 274 -335 274 -335 144.5 -205.5 c 128,-1,15
 15 -76 15 -76 15 104 c 1,16,-1
 15 104 l 1,0,-1
505 137 m 0,17,18
 557 90 557 90 599.5 64 c 128,-1,19
 642 38 642 38 650 47 c 0,20,21
 653 50 653 50 653.5 57 c 128,-1,22
 654 64 654 64 647 73 c 0,23,24
 636 87 636 87 633 135.5 c 128,-1,25
 630 184 630 184 665 247 c 0,26,27
 694 294 694 294 788 412 c 1,28,29
 751 356 751 356 811 302 c 0,30,31
 841 274 841 274 870 269 c 1,32,33
 867 265 867 265 862.5 262 c 128,-1,34
 858 259 858 259 855 256.5 c 128,-1,35
 852 254 852 254 850 253 c 256,36,37
 848 252 848 252 839 254.5 c 128,-1,38
 830 257 830 257 818 265 c 0,39,40
 815 267 815 267 809 267 c 128,-1,41
 803 267 803 267 800 266 c 0,42,43
 798 264 798 264 799 262 c 128,-1,44
 800 260 800 260 800 258 c 0,45,46
 801 257 801 257 802 257 c 0,47,48
 803 255 803 255 811.5 248.5 c 128,-1,49
 820 242 820 242 834.5 236 c 128,-1,50
 849 230 849 230 869 231 c 0,51,52
 911 233 911 233 937 265 c 0,53,54
 937 267 937 267 936 269 c 128,-1,55
 935 271 935 271 933 273 c 1,56,57
 931 271 931 271 926.5 269 c 128,-1,58
 922 267 922 267 919 268 c 0,59,60
 917 268 917 268 916 269 c 128,-1,61
 915 270 915 270 914 271 c 1,62,63
 928 277 928 277 938 288 c 0,64,65
 939 289 939 289 945 295 c 1,66,67
 956 296 956 296 965 304.5 c 128,-1,68
 974 313 974 313 978 318 c 0,69,70
 979 319 979 319 980 319 c 1,71,72
 975 320 975 320 974 318 c 0,73,74
 973 318 973 318 971 317 c 0,75,76
 969 315 969 315 967.5 313.5 c 128,-1,77
 966 312 966 312 965 312 c 0,78,79
 962 311 962 311 959 311 c 1,80,81
 998 354 998 354 1067 430 c 128,-1,82
 1136 506 1136 506 1194 569 c 1,83,-1
 1251 517 l 2,84,85
 1253 515 1253 515 1259.5 518 c 128,-1,86
 1266 521 1266 521 1273 529 c 0,87,88
 1280 536 1280 536 1282.5 543.5 c 128,-1,89
 1285 551 1285 551 1283 553 c 2,90,-1
 1260 574 l 2,91,92
 1259 575 1259 575 1259 577.5 c 128,-1,93
 1259 580 1259 580 1261 582 c 2,94,-1
 1266 587 l 2,95,96
 1267 588 1267 588 1269.5 588.5 c 128,-1,97
 1272 589 1272 589 1273 588 c 2,98,-1
 1296 567 l 2,99,100
 1298 565 1298 565 1305 568.5 c 128,-1,101
 1312 572 1312 572 1319 580 c 0,102,103
 1326 587 1326 587 1328.5 594.5 c 128,-1,104
 1331 602 1331 602 1329 604 c 2,105,-1
 1306 624 l 2,106,107
 1305 626 1305 626 1305 628 c 128,-1,108
 1305 630 1305 630 1307 633 c 2,109,-1
 1312 638 l 2,110,111
 1313 639 1313 639 1315.5 639.5 c 128,-1,112
 1318 640 1318 640 1319 639 c 2,113,-1
 1342 618 l 2,114,115
 1344 616 1344 616 1351 619.5 c 128,-1,116
 1358 623 1358 623 1365 631 c 0,117,118
 1372 638 1372 638 1374.5 645 c 128,-1,119
 1377 652 1377 652 1375 654 c 2,120,-1
 1331 695 l 1,121,-1
 1331 695 l 1,122,-1
 1440 814 l 2,123,124
 1462 839 1462 839 1446 867 c 0,125,126
 1447 868 1447 868 1447 868 c 2,127,128
 1457 881 1457 881 1470.5 897 c 128,-1,129
 1484 913 1484 913 1492 924 c 0,130,131
 1517 961 1517 961 1509 1001 c 128,-1,132
 1501 1041 1501 1041 1462 1071 c 0,133,134
 1451 1080 1451 1080 1440 1086 c 1,135,136
 1526 1181 1526 1181 1526 1181 c 1,137,138
 1535 1179 1535 1179 1542.5 1185 c 128,-1,139
 1550 1191 1550 1191 1554 1196 c 0,140,141
 1556 1198 1556 1198 1558 1198 c 0,142,143
 1561 1197 1561 1197 1564 1199 c 128,-1,144
 1567 1201 1567 1201 1570 1204 c 0,145,146
 1571 1206 1571 1206 1572 1206 c 256,147,148
 1573 1206 1573 1206 1575 1206 c 0,149,150
 1578 1206 1578 1206 1580.5 1206.5 c 128,-1,151
 1583 1207 1583 1207 1585 1208 c 0,152,153
 1586 1209 1586 1209 1589.5 1211.5 c 128,-1,154
 1593 1214 1593 1214 1597 1217 c 0,155,156
 1597 1221 1597 1221 1590.5 1230.5 c 128,-1,157
 1584 1240 1584 1240 1572 1250 c 0,158,159
 1562 1260 1562 1260 1552 1265.5 c 128,-1,160
 1542 1271 1542 1271 1538 1271 c 0,161,162
 1535 1267 1535 1267 1532.5 1263.5 c 128,-1,163
 1530 1260 1530 1260 1530 1258 c 0,164,165
 1529 1256 1529 1256 1529 1253.5 c 128,-1,166
 1529 1251 1529 1251 1529 1248 c 0,167,168
 1529 1247 1529 1247 1529 1245 c 1,169,170
 1528 1245 1528 1245 1527 1243 c 0,171,172
 1525 1240 1525 1240 1523 1236.5 c 128,-1,173
 1521 1233 1521 1233 1523 1230 c 0,174,175
 1522 1229 1522 1229 1520 1227 c 0,176,177
 1516 1222 1516 1222 1511 1214 c 128,-1,178
 1506 1206 1506 1206 1509 1197 c 1,179,-1
 1416 1095 l 1,180,181
 1388 1101 1388 1101 1365.5 1094 c 128,-1,182
 1343 1087 1343 1087 1328 1073 c 0,183,184
 1302 1049 1302 1049 1244 989 c 128,-1,185
 1186 929 1186 929 1123 863 c 1,186,-1
 1110 874 l 1,187,188
 1114 880 1114 880 1115 884 c 0,189,190
 1116 885 1116 885 1115.5 885.5 c 128,-1,191
 1115 886 1115 886 1115 887 c 256,192,193
 1115 888 1115 888 1115 888 c 2,194,195
 1115 890 1115 890 1115 890 c 2,196,197
 1116 891 1116 891 1115.5 892 c 128,-1,198
 1115 893 1115 893 1115 894 c 0,199,200
 1114 895 1114 895 1115 896 c 1,201,-1
 1110 900 l 2,202,203
 1109 900 1109 900 1108 901 c 1,204,205
 1107 900 1107 900 1106 900.5 c 128,-1,206
 1105 901 1105 901 1105 900 c 0,207,208
 1095 895 1095 895 1086 885 c 0,209,210
 1076 875 1076 875 1072 864 c 0,211,212
 1071 863 1071 863 1071.5 862 c 128,-1,213
 1072 861 1072 861 1072 860 c 256,214,215
 1072 859 1072 859 1072 858 c 2,216,-1
 1077 854 l 1,217,218
 1077 854 1077 854 1079 854 c 2,219,220
 1079 854 1079 854 1080.5 853.5 c 128,-1,221
 1082 853 1082 853 1083 855 c 2,222,223
 1083 855 1083 855 1084 855 c 256,224,225
 1085 855 1085 855 1086 855 c 256,226,227
 1087 855 1087 855 1087.5 855 c 128,-1,228
 1088 855 1088 855 1089 856 c 0,229,230
 1093 857 1093 857 1098 861 c 1,231,-1
 1111 850 l 1,232,233
 1093 830 1093 830 1076 813 c 1,234,-1
 1064 824 l 1,235,236
 1068 829 1068 829 1069 833 c 0,237,238
 1070 834 1070 834 1069.5 834.5 c 128,-1,239
 1069 835 1069 835 1069 836 c 0,240,241
 1069 838 1069 838 1069 838 c 2,242,243
 1069 839 1069 839 1069 840 c 1,244,245
 1070 840 1070 840 1069.5 841 c 128,-1,246
 1069 842 1069 842 1069 844 c 1,247,248
 1068 844 1068 844 1069 845 c 1,249,-1
 1064 850 l 1,250,251
 1063 849 1063 849 1063 849 c 2,252,253
 1061 849 1061 849 1060 849.5 c 128,-1,254
 1059 850 1059 850 1059 849 c 0,255,256
 1049 844 1049 844 1039 834 c 0,257,258
 1030 824 1030 824 1026 814 c 0,259,260
 1025 812 1025 812 1025.5 811 c 128,-1,261
 1026 810 1026 810 1026 810 c 2,262,263
 1026 809 1026 809 1026 808 c 2,264,-1
 1031 804 l 1,265,266
 1031 804 1031 804 1033 804 c 1,267,268
 1033 803 1033 803 1034.5 802.5 c 128,-1,269
 1036 802 1036 802 1037 804 c 0,270,271
 1037 805 1037 805 1038 804 c 1,272,273
 1039 805 1039 805 1040 804 c 0,274,275
 1041 804 1041 804 1041.5 804 c 128,-1,276
 1042 804 1042 804 1043 805 c 0,277,278
 1047 806 1047 806 1052 811 c 1,279,-1
 1064 800 l 1,280,281
 1045 780 1045 780 1029 763 c 1,282,-1
 1018 773 l 1,283,284
 1022 779 1022 779 1023 783 c 2,285,286
 1023 783 1023 783 1023 784 c 128,-1,287
 1023 785 1023 785 1023 785 c 2,288,289
 1023 787 1023 787 1023 787 c 2,290,291
 1023 788 1023 788 1023 789 c 0,292,293
 1024 790 1024 790 1024 791 c 128,-1,294
 1024 792 1024 792 1023 793 c 256,295,296
 1022 794 1022 794 1023 794 c 1,297,-1
 1018 799 l 2,298,299
 1017 799 1017 799 1017 799 c 2,300,301
 1016 799 1016 799 1014.5 799 c 128,-1,302
 1013 799 1013 799 1013 799 c 1,303,304
 1003 793 1003 793 993 783 c 0,305,306
 984 773 984 773 980 763 c 0,307,308
 979 762 979 762 979.5 761 c 128,-1,309
 980 760 980 760 980 759 c 256,310,311
 980 758 980 758 980 757 c 2,312,-1
 985 753 l 1,313,314
 985 753 985 753 987 753 c 1,315,316
 987 752 987 752 988.5 752.5 c 128,-1,317
 990 753 990 753 991 753 c 1,318,319
 991 754 991 754 993 754 c 2,320,321
 993 754 993 754 994 753 c 0,322,323
 995 753 995 753 995.5 753 c 128,-1,324
 996 753 996 753 997 754 c 0,325,326
 1001 756 1001 756 1006 760 c 1,327,-1
 1018 750 l 1,328,329
 984 715 984 715 984 714 c 0,330,331
 979 712 979 712 972 708.5 c 128,-1,332
 965 705 965 705 960 702 c 128,-1,333
 955 699 955 699 953 698 c 0,334,335
 952 697 952 697 950.5 695.5 c 128,-1,336
 949 694 949 694 947 691 c 128,-1,337
 945 688 945 688 944 687 c 0,338,339
 944 685 944 685 946 682 c 128,-1,340
 948 679 948 679 951 676 c 1,341,342
 826 538 826 538 716.5 432 c 128,-1,343
 607 326 607 326 585 308 c 0,344,345
 547 275 547 275 514 267 c 128,-1,346
 481 259 481 259 457 263.5 c 128,-1,347
 433 268 433 268 427 273 c 0,348,349
 417 279 417 279 410.5 278 c 128,-1,350
 404 277 404 277 400 274 c 0,351,352
 393 264 393 264 422.5 225.5 c 128,-1,353
 452 187 452 187 505 137 c 0,17,18
1150 766 m 1,354,-1
 1163 781 l 1,355,-1
 1194 752 l 2,356,357
 1196 751 1196 751 1195.5 748.5 c 128,-1,358
 1195 746 1195 746 1194 745 c 2,359,-1
 1189 740 l 2,360,361
 1187 737 1187 737 1185 737 c 128,-1,362
 1183 737 1183 737 1181 738 c 2,363,-1
 1150 766 l 1,354,-1
1228 696 m 1,364,-1
 1207 714 l 2,365,366
 1206 716 1206 716 1206 718.5 c 128,-1,367
 1206 721 1206 721 1208 723 c 2,368,-1
 1212 728 l 2,369,370
 1214 729 1214 729 1216.5 729.5 c 128,-1,371
 1219 730 1219 730 1220 729 c 2,372,-1
 1242 709 l 1,373,374
 1239 707 1239 707 1236 705 c 128,-1,375
 1233 703 1233 703 1232 701 c 0,376,377
 1230 700 1230 700 1228 696 c 1,364,-1
1210 646 m 1,378,379
 1207 638 1207 638 1200 629 c 1,380,-1
 1162 663 l 2,381,382
 1160 665 1160 665 1160 667.5 c 128,-1,383
 1160 670 1160 670 1162 672 c 2,384,-1
 1166 677 l 2,385,386
 1168 678 1168 678 1170.5 678.5 c 128,-1,387
 1173 679 1173 679 1175 678 c 2,388,-1
 1210 646 l 1,378,379
1104 716 m 1,389,-1
 1117 730 l 1,390,-1
 1148 702 l 2,391,392
 1150 700 1150 700 1149.5 697.5 c 128,-1,393
 1149 695 1149 695 1148 694 c 2,394,-1
 1143 689 l 2,395,396
 1141 687 1141 687 1139 686.5 c 128,-1,397
 1137 686 1137 686 1135 688 c 2,398,-1
 1104 716 l 1,389,-1
1363 859 m 2,399,-1
 1313 804 l 1,400,401
 1314 821 1314 821 1306.5 830.5 c 128,-1,402
 1299 840 1299 840 1290 844 c 128,-1,403
 1281 848 1281 848 1276 848 c 1,404,405
 1276 848 1276 848 1276 848 c 1,406,407
 1274 849 1274 849 1272.5 850 c 128,-1,408
 1271 851 1271 851 1270 853 c 0,409,410
 1269 853 1269 853 1269 853 c 1,411,412
 1269 854 1269 854 1268.5 855.5 c 128,-1,413
 1268 857 1268 857 1268 859 c 128,-1,414
 1268 861 1268 861 1268 862 c 128,-1,415
 1268 863 1268 863 1268 863 c 1,416,-1
 1257 866 l 1,417,418
 1257 866 1257 866 1257 863 c 0,419,420
 1257 861 1257 861 1256.5 858.5 c 128,-1,421
 1256 856 1256 856 1256 855 c 0,422,423
 1258 849 1258 849 1262 846.5 c 128,-1,424
 1266 844 1266 844 1270 844 c 0,425,426
 1272 843 1272 843 1278.5 841 c 128,-1,427
 1285 839 1285 839 1291.5 834 c 128,-1,428
 1298 829 1298 829 1300.5 821 c 128,-1,429
 1303 813 1303 813 1296 801 c 0,430,431
 1292 794 1292 794 1282 788.5 c 128,-1,432
 1272 783 1272 783 1259 789 c 0,433,434
 1243 796 1243 796 1235 807 c 0,435,436
 1230 810 1230 810 1228 811 c 0,437,438
 1223 813 1223 813 1216 810 c 1,439,440
 1216 810 1216 810 1216 810 c 1,441,-1
 1217 800 l 1,442,443
 1217 800 1217 800 1218.5 800 c 128,-1,444
 1220 800 1220 800 1222 800.5 c 128,-1,445
 1224 801 1224 801 1226 800 c 0,446,447
 1231 798 1231 798 1232 797 c 1,448,449
 1230 795 1230 795 1227 793.5 c 128,-1,450
 1224 792 1224 792 1224 792 c 1,451,-1
 1239 777 l 1,452,453
 1239 777 1239 777 1240.5 778 c 128,-1,454
 1242 779 1242 779 1245 780 c 128,-1,455
 1248 781 1248 781 1252 782 c 0,456,457
 1259 778 1259 778 1268.5 776 c 128,-1,458
 1278 774 1278 774 1288 776 c 1,459,-1
 1267 753 l 1,460,-1
 1196 817 l 1,461,462
 1199 821 1199 821 1202 824 c 0,463,464
 1331 965 1331 965 1420 1064 c 1,465,466
 1433 1059 1433 1059 1447 1050 c 0,467,468
 1477 1027 1477 1027 1481.5 998 c 128,-1,469
 1486 969 1486 969 1471 944 c 0,470,471
 1468 939 1468 939 1459 927 c 128,-1,472
 1450 915 1450 915 1440.5 902.5 c 128,-1,473
 1431 890 1431 890 1425 883 c 1,474,475
 1407 889 1407 889 1390.5 880 c 128,-1,476
 1374 871 1374 871 1363 859 c 2,399,-1
1298 724 m 1,477,-1
 1291 731 l 1,478,479
 1291 731 1291 731 1292 732 c 0,480,481
 1298 739 1298 739 1313.5 756 c 128,-1,482
 1329 773 1329 773 1347.5 793.5 c 128,-1,483
 1366 814 1366 814 1380 829 c 128,-1,484
 1394 844 1394 844 1396 847 c 0,485,486
 1400 849 1400 849 1402.5 849.5 c 128,-1,487
 1405 850 1405 850 1409 849 c 0,488,489
 1409 848 1409 848 1411 849 c 1,490,-1
 1298 724 l 1,477,-1
1226 605 m 1,491,492
 1234 613 1234 613 1240 620 c 1,493,-1
 1252 609 l 2,494,495
 1253 606 1253 606 1253 603.5 c 128,-1,496
 1253 601 1253 601 1251 600 c 2,497,-1
 1247 595 l 2,498,499
 1245 593 1245 593 1242.5 592.5 c 128,-1,500
 1240 592 1240 592 1238 594 c 2,501,-1
 1226 605 l 1,491,492
942 344 m 1,502,503
 941 346 941 346 940 347 c 0,504,505
 937 351 937 351 937 356 c 128,-1,506
 937 361 937 361 944 370 c 0,507,508
 951 378 951 378 988 419 c 0,509,510
 991 421 991 421 993.5 420.5 c 128,-1,511
 996 420 996 420 997 419 c 2,512,-1
 999 417 l 2,513,514
 1001 416 1001 416 1001.5 413.5 c 128,-1,515
 1002 411 1002 411 1001 408 c 2,516,-1
 942 344 l 1,502,503
819 402 m 0,517,518
 823 406 823 406 895.5 486 c 128,-1,519
 968 566 968 566 1071 680 c 1,520,-1
 1168 592 l 1,521,-1
 1022 432 l 2,522,523
 1019 430 1019 430 1017 430.5 c 128,-1,524
 1015 431 1015 431 1013 432 c 2,525,-1
 1011 434 l 2,526,527
 1010 435 1010 435 1009.5 437.5 c 128,-1,528
 1009 440 1009 440 1010 443 c 0,529,530
 1042 478 1042 478 1075 514.5 c 128,-1,531
 1108 551 1108 551 1131.5 577 c 128,-1,532
 1155 603 1155 603 1155 603 c 1,533,-1
 1130 625 l 1,534,-1
 1078 568 l 1,535,536
 1079 585 1079 585 1066 596 c 0,537,538
 1055 606 1055 606 1040.5 605.5 c 128,-1,539
 1026 605 1026 605 1016 594 c 256,540,541
 1006 583 1006 583 1006.5 568 c 128,-1,542
 1007 553 1007 553 1018 544 c 0,543,544
 1031 532 1031 532 1048 536 c 1,545,-1
 914 387 l 2,546,547
 910 383 910 383 905 372.5 c 128,-1,548
 900 362 900 362 901.5 348 c 128,-1,549
 903 334 903 334 919 320 c 1,550,-1
 916 317 l 2,551,552
 913 318 913 318 909.5 320 c 128,-1,553
 906 322 906 322 905 325 c 1,554,555
 905 323 905 323 904 322 c 0,556,557
 903 320 903 320 902.5 315.5 c 128,-1,558
 902 311 902 311 905 306 c 1,559,560
 904 306 904 306 903 305 c 1,561,562
 898 311 898 311 892 320.5 c 128,-1,563
 886 330 886 330 883 336 c 1,564,565
 881 334 881 334 879.5 333 c 128,-1,566
 878 332 878 332 876.5 331.5 c 128,-1,567
 875 331 875 331 875 330 c 0,568,569
 876 327 876 327 880.5 319 c 128,-1,570
 885 311 885 311 891 301 c 1,571,572
 863 297 863 297 830 327 c 1,573,574
 791 372 791 372 819 402 c 0,517,518
1062 552 m 0,575,576
 1055 544 1055 544 1043.5 543 c 128,-1,577
 1032 542 1032 542 1024 550 c 0,578,579
 1016 557 1016 557 1015.5 568.5 c 128,-1,580
 1015 580 1015 580 1022 588 c 0,581,582
 1030 597 1030 597 1041 597 c 128,-1,583
 1052 597 1052 597 1060 590 c 0,584,585
 1069 582 1069 582 1069.5 571 c 128,-1,586
 1070 560 1070 560 1062 552 c 0,575,576
EndSplineSet
EndChar

StartChar: Z
Encoding: 90 90 61
Width: 2002
Flags: W
LayerCount: 2
Fore
SplineSet
15 104 m 1,0,-1
 15 1194 l 2,1,2
 15 1378 15 1378 144.5 1507.5 c 128,-1,3
 274 1637 274 1637 458 1637 c 2,4,-1
 1548 1637 l 2,5,6
 1728 1637 1728 1637 1857.5 1507.5 c 128,-1,7
 1987 1378 1987 1378 1987 1194 c 2,8,-1
 1987 104 l 2,9,10
 1987 -76 1987 -76 1857.5 -205.5 c 128,-1,11
 1728 -335 1728 -335 1548 -335 c 2,12,-1
 458 -335 l 2,13,14
 274 -335 274 -335 144.5 -205.5 c 128,-1,15
 15 -76 15 -76 15 104 c 1,16,-1
 15 104 l 1,0,-1
1019 59 m 2,17,18
 1162 59 1162 59 1293 141 c 1,19,-1
 1095 484 l 1,20,21
 1051 457 1051 457 1005 457 c 2,22,-1
 998 457 l 2,23,24
 945 457 945 457 900 486 c 1,25,-1
 704 142 l 1,26,27
 835 59 835 59 994 59 c 2,28,-1
 1019 59 l 2,17,18
892 817 m 0,29,30
 898 821 898 821 905 825 c 1,31,-1
 708 1168 l 1,32,33
 690 1156 690 1156 673 1144 c 0,34,35
 404 939 404 939 404 668 c 2,36,-1
 404 654 l 1,37,-1
 802 654 l 1,38,-1
 802 659 l 2,39,40
 802 748 802 748 892 817 c 0,29,30
1503 955 m 1,41,42
 1407 1090 1407 1090 1291 1164 c 1,43,-1
 1094 823 l 1,44,45
 1134 800 1134 800 1166 753 c 0,46,47
 1196 709 1196 709 1197 654 c 1,48,-1
 1595 654 l 1,49,50
 1593 820 1593 820 1503 955 c 1,41,42
996 804 m 0,51,52
 953 804 953 804 916 778 c 0,53,54
 849 725 849 725 849 657 c 2,55,-1
 849 652 l 2,56,57
 849 616 849 616 868 581 c 1,58,59
 921 504 921 504 997 504 c 2,60,-1
 1004 504 l 2,61,62
 1047 504 1047 504 1086 533 c 0,63,64
 1149 584 1149 584 1149 651 c 0,65,66
 1149 694 1149 694 1126 729 c 0,67,68
 1073 804 1073 804 996 804 c 0,51,52
999 1355 m 0,69,70
 821 1355 821 1355 653 1264.5 c 128,-1,71
 485 1174 485 1174 391.5 1005.5 c 128,-1,72
 298 837 298 837 298 654 c 256,73,74
 298 471 298 471 390.5 304.5 c 128,-1,75
 483 138 483 138 650 45.5 c 128,-1,76
 817 -47 817 -47 999 -47 c 256,77,78
 1181 -47 1181 -47 1348 45.5 c 128,-1,79
 1515 138 1515 138 1607.5 304.5 c 128,-1,80
 1700 471 1700 471 1700 654 c 256,81,82
 1700 837 1700 837 1605.5 1005.5 c 128,-1,83
 1511 1174 1511 1174 1343 1264.5 c 128,-1,84
 1175 1355 1175 1355 999 1355 c 0,69,70
369 654 m 256,85,86
 369 819 369 819 453.5 970 c 128,-1,87
 538 1121 538 1121 688.5 1202.5 c 128,-1,88
 839 1284 839 1284 999 1284 c 0,89,90
 1157 1284 1157 1284 1307.5 1202.5 c 128,-1,91
 1458 1121 1458 1121 1543.5 970 c 128,-1,92
 1629 819 1629 819 1629 654 c 256,93,94
 1629 489 1629 489 1545.5 340 c 128,-1,95
 1462 191 1462 191 1312.5 107.5 c 128,-1,96
 1163 24 1163 24 999 24 c 256,97,98
 835 24 835 24 685.5 107.5 c 128,-1,99
 536 191 536 191 452.5 340 c 128,-1,100
 369 489 369 489 369 654 c 256,85,86
EndSplineSet
EndChar

StartChar: a
Encoding: 97 97 68
Width: 2000
Flags: W
LayerCount: 2
Fore
SplineSet
100 -391 m 1,0,-1
 100 -391 l 1,1,-1
 1900 648 l 1,2,-1
 100 1687 l 1,3,-1
 100 -391 l 1,0,-1
EndSplineSet
EndChar

StartChar: b
Encoding: 98 98 69
Width: 2000
Flags: W
LayerCount: 2
Fore
SplineSet
846 -387 m 1,0,-1
 846 -387 l 1,1,-1
 207 -387 l 1,2,-1
 207 1683 l 1,3,-1
 846 1683 l 1,4,-1
 846 -387 l 1,0,-1
1793 -387 m 1,5,-1
 1793 -387 l 1,6,-1
 1154 -387 l 1,7,-1
 1154 1683 l 1,8,-1
 1793 1683 l 1,9,-1
 1793 -387 l 1,5,-1
EndSplineSet
EndChar

StartChar: c
Encoding: 99 99 70
Width: 2001
Flags: W
LayerCount: 2
Fore
SplineSet
1000 1381 m 1,0,-1
 1000 1381 l 1,1,-1
 1982 649 l 1,2,-1
 1000 -82 l 1,3,-1
 1000 649 l 1,4,-1
 18 -82 l 1,5,-1
 18 1381 l 1,6,-1
 1000 649 l 1,7,-1
 1000 1381 l 1,0,-1
EndSplineSet
EndChar

StartChar: d
Encoding: 100 100 71
Width: 2000
Flags: W
LayerCount: 2
Fore
SplineSet
1000 653 m 1,0,-1
 1000 653 l 1,1,-1
 1983 1385 l 1,2,-1
 1983 -79 l 1,3,-1
 1000 653 l 1,4,-1
 1000 -79 l 1,5,-1
 17 653 l 1,6,-1
 1000 1385 l 1,7,-1
 1000 653 l 1,0,-1
EndSplineSet
EndChar

StartChar: e
Encoding: 101 101 72
Width: 2000
Flags: W
LayerCount: 2
Fore
SplineSet
843 1260 m 1,0,-1
 1668 653 l 1,1,-1
 843 45 l 1,2,-1
 843 1260 l 1,0,-1
20 45 m 1,3,-1
 20 1260 l 1,4,-1
 823 654 l 1,5,-1
 20 45 l 1,3,-1
1980 1260 m 1,6,-1
 1980 1260 l 1,7,-1
 1682 1260 l 1,8,-1
 1682 45 l 1,9,-1
 1980 45 l 1,10,-1
 1980 1260 l 1,6,-1
EndSplineSet
EndChar

StartChar: f
Encoding: 102 102 73
Width: 2000
Flags: W
LayerCount: 2
Fore
SplineSet
1185 646 m 25,0,-1
 1973 1264 l 1,1,-1
 1973 46 l 1,2,-1
 1185 646 l 25,0,-1
1157 44 m 1,3,-1
 331 653 l 1,4,-1
 1157 1262 l 1,5,-1
 1157 44 l 1,6,-1
 1157 44 l 1,3,-1
317 44 m 1,7,-1
 317 44 l 1,8,-1
 18 44 l 1,9,-1
 18 1262 l 1,10,-1
 317 1262 l 1,11,-1
 317 44 l 1,7,-1
EndSplineSet
EndChar

StartChar: g
Encoding: 103 103 74
Width: 2000
Flags: W
LayerCount: 2
Fore
SplineSet
1977 -331 m 1,0,-1
 1977 -331 l 1,1,-1
 23 -331 l 1,2,-1
 23 1624 l 1,3,-1
 1977 1624 l 1,4,-1
 1977 -331 l 1,0,-1
EndSplineSet
EndChar

StartChar: h
Encoding: 104 104 75
Width: 2000
Flags: W
LayerCount: 2
Fore
SplineSet
1983 195 m 1,0,-1
 1983 195 l 1,1,-1
 1983 -180 l 1,2,-1
 15 -180 l 1,3,-1
 15 195 l 1,4,-1
 1983 195 l 1,0,-1
15 397 m 1,5,-1
 15 397 l 1,6,-1
 1983 397 l 1,7,-1
 999 1486 l 1,8,-1
 15 397 l 1,5,-1
EndSplineSet
EndChar

StartChar: i
Encoding: 105 105 76
Width: 2000
Flags: W
LayerCount: 2
Fore
SplineSet
1000 1630 m 1,0,-1
 1000 1630 l 1,1,2
 593 1630 593 1630 306 1342.5 c 128,-1,3
 19 1055 19 1055 19 649 c 256,4,5
 19 243 19 243 306 -44 c 128,-1,6
 593 -331 593 -331 1000 -331 c 0,7,8
 1406 -331 1406 -331 1693 -44 c 128,-1,9
 1980 243 1980 243 1980 649 c 256,10,11
 1980 1055 1980 1055 1693 1342.5 c 128,-1,12
 1406 1630 1406 1630 1000 1630 c 1,0,-1
EndSplineSet
EndChar

StartChar: j
Encoding: 106 106 77
Width: 2000
Flags: W
LayerCount: 2
Fore
SplineSet
999 1633 m 1,0,-1
 999 1633 l 1,1,2
 1203 1633 1203 1633 1381 1556.5 c 128,-1,3
 1559 1480 1559 1480 1694 1345 c 128,-1,4
 1829 1210 1829 1210 1905.5 1032 c 128,-1,5
 1982 854 1982 854 1982 650 c 0,6,7
 1982 447 1982 447 1905.5 268.5 c 128,-1,8
 1829 90 1829 90 1694 -44.5 c 128,-1,9
 1559 -179 1559 -179 1381 -255.5 c 128,-1,10
 1203 -332 1203 -332 999 -332 c 0,11,12
 796 -332 796 -332 617.5 -255.5 c 128,-1,13
 439 -179 439 -179 304.5 -44.5 c 128,-1,14
 170 90 170 90 93.5 268.5 c 128,-1,15
 17 447 17 447 17 650 c 0,16,17
 17 854 17 854 93.5 1032 c 128,-1,18
 170 1210 170 1210 304.5 1345 c 128,-1,19
 439 1480 439 1480 617.5 1556.5 c 128,-1,20
 796 1633 796 1633 999 1633 c 1,0,-1
999 273 m 1,21,-1
 999 273 l 1,22,23
 1103 273 1103 273 1189 324 c 128,-1,24
 1275 375 1275 375 1326 460.5 c 128,-1,25
 1377 546 1377 546 1377 650 c 0,26,27
 1377 755 1377 755 1326 840.5 c 128,-1,28
 1275 926 1275 926 1189 977 c 128,-1,29
 1103 1028 1103 1028 999 1028 c 256,30,31
 895 1028 895 1028 809.5 977 c 128,-1,32
 724 926 724 926 673 840.5 c 128,-1,33
 622 755 622 755 622 650 c 0,34,35
 622 546 622 546 673 460.5 c 128,-1,36
 724 375 724 375 809.5 324 c 128,-1,37
 895 273 895 273 999 273 c 1,21,-1
1092 650 m 1,38,-1
 1092 650 l 1,39,40
 1092 689 1092 689 1065 716 c 128,-1,41
 1038 743 1038 743 999 743 c 0,42,43
 961 743 961 743 933.5 716 c 128,-1,44
 906 689 906 689 906 650 c 0,45,46
 906 612 906 612 933.5 584.5 c 128,-1,47
 961 557 961 557 999 557 c 0,48,49
 1038 557 1038 557 1065 584.5 c 128,-1,50
 1092 612 1092 612 1092 650 c 1,38,-1
EndSplineSet
EndChar

StartChar: k
Encoding: 107 107 78
Width: 2000
Flags: W
LayerCount: 2
Fore
SplineSet
1420 -247 m 0,1,2
 1420 -198 1420 -198 1293 -163 c 0,3,4
 1184 -134 1184 -134 1038 -130 c 1,5,-1
 1038 118 l 1,6,7
 1151 126 1151 126 1246 182 c 0,8,9
 1356 248 1356 248 1421.5 358.5 c 128,-1,10
 1487 469 1487 469 1487 603 c 2,11,-1
 1487 1090 l 1,12,-1
 1406 1090 l 1,13,-1
 1406 613 l 2,14,15
 1406 501 1406 501 1351.5 409 c 128,-1,16
 1297 317 1297 317 1205 262 c 128,-1,17
 1113 207 1113 207 1001 207 c 0,18,19
 888 207 888 207 796 262 c 128,-1,20
 704 317 704 317 649.5 409 c 128,-1,21
 595 501 595 501 595 613 c 2,22,-1
 595 1090 l 1,23,-1
 514 1090 l 1,24,-1
 514 603 l 2,25,26
 514 469 514 469 579.5 358.5 c 128,-1,27
 645 248 645 248 756 182 c 0,28,29
 838 133 838 133 935 121 c 1,30,-1
 935 -130 l 1,31,32
 788 -134 788 -134 680 -163 c 0,33,34
 553 -198 553 -198 553 -247 c 0,35,36
 553 -256 553 -256 557 -265 c 1,37,38
 553 -273 553 -273 553 -282 c 0,39,40
 553 -331 553 -331 679.5 -365.5 c 128,-1,41
 806 -400 806 -400 987 -400 c 0,42,43
 1166 -400 1166 -400 1293 -365.5 c 128,-1,44
 1420 -331 1420 -331 1420 -282 c 0,45,46
 1420 -273 1420 -273 1416 -265 c 1,47,0
 1420 -256 1420 -256 1420 -247 c 0,1,2
1001 263 m 0,48,49
 1099 263 1099 263 1180.5 311 c 128,-1,50
 1262 359 1262 359 1310 440.5 c 128,-1,51
 1358 522 1358 522 1358 620 c 2,52,-1
 1358 1337 l 2,53,54
 1358 1435 1358 1435 1310 1516 c 128,-1,55
 1262 1597 1262 1597 1180.5 1646 c 128,-1,56
 1099 1695 1099 1695 1001 1695 c 0,57,58
 902 1695 902 1695 821 1646 c 128,-1,59
 740 1597 740 1597 691.5 1516 c 128,-1,60
 643 1435 643 1435 643 1337 c 2,61,-1
 643 620 l 2,62,63
 643 522 643 522 691.5 440.5 c 128,-1,64
 740 359 740 359 821 311 c 128,-1,65
 902 263 902 263 1001 263 c 0,48,49
EndSplineSet
EndChar

StartChar: l
Encoding: 108 108 79
Width: 2000
Flags: W
LayerCount: 2
Fore
SplineSet
15 311 m 256,0,1
 15 398 15 398 44 475.5 c 128,-1,2
 73 553 73 553 125.5 614.5 c 128,-1,3
 178 676 178 676 249 717 c 1,4,-1
 249 -95 l 1,5,6
 178 -54 178 -54 125.5 8 c 128,-1,7
 73 70 73 70 44 147 c 128,-1,8
 15 224 15 224 15 311 c 256,0,1
1500 1335 m 1,9,-1
 1500 1335 l 1,10,11
 1545 1311 1545 1311 1587 1273.5 c 128,-1,12
 1629 1236 1629 1236 1663 1189 c 128,-1,13
 1697 1142 1697 1142 1717.5 1088 c 128,-1,14
 1738 1034 1738 1034 1738 978 c 2,15,-1
 1738 -95 l 1,16,-1
 1609 -95 l 1,17,-1
 1609 978 l 2,18,19
 1609 1016 1609 1016 1588 1058 c 128,-1,20
 1567 1100 1567 1100 1533 1139 c 128,-1,21
 1499 1178 1499 1178 1458.5 1209 c 128,-1,22
 1418 1240 1418 1240 1378 1257 c 0,23,24
 1236 1316 1236 1316 1117.5 1336 c 128,-1,25
 999 1356 999 1356 880.5 1336 c 128,-1,26
 762 1316 762 1316 620 1257 c 0,27,28
 580 1240 580 1240 539.5 1209 c 128,-1,29
 499 1178 499 1178 465 1139 c 128,-1,30
 431 1100 431 1100 410.5 1058 c 128,-1,31
 390 1016 390 1016 390 978 c 2,32,-1
 390 -95 l 1,33,-1
 261 -95 l 1,34,-1
 261 978 l 2,35,36
 261 1034 261 1034 281 1088 c 128,-1,37
 301 1142 301 1142 335 1189 c 128,-1,38
 369 1236 369 1236 411 1273.5 c 128,-1,39
 453 1311 453 1311 498 1335 c 0,40,41
 756 1474 756 1474 999.5 1474 c 128,-1,42
 1243 1474 1243 1474 1500 1335 c 1,9,-1
1749 717 m 1,43,44
 1820 676 1820 676 1872.5 614.5 c 128,-1,45
 1925 553 1925 553 1954 475.5 c 128,-1,46
 1983 398 1983 398 1984 311 c 0,47,48
 1984 224 1984 224 1954.5 147 c 128,-1,49
 1925 70 1925 70 1872.5 8 c 128,-1,50
 1820 -54 1820 -54 1749 -95 c 1,51,-1
 1749 717 l 1,43,44
523 786 m 2,52,53
 544 786 544 786 558.5 771.5 c 128,-1,54
 573 757 573 757 573 736 c 2,55,-1
 573 -113 l 2,56,57
 573 -134 573 -134 558.5 -149 c 128,-1,58
 544 -164 544 -164 523 -164 c 2,59,-1
 451 -164 l 2,60,61
 430 -164 430 -164 415 -149 c 128,-1,62
 400 -134 400 -134 400 -113 c 2,63,-1
 400 736 l 2,64,65
 400 757 400 757 415 771.5 c 128,-1,66
 430 786 430 786 451 786 c 2,67,-1
 523 786 l 2,52,53
1547 786 m 2,68,69
 1568 786 1568 786 1582.5 771.5 c 128,-1,70
 1597 757 1597 757 1597 736 c 2,71,-1
 1597 -113 l 2,72,73
 1597 -134 1597 -134 1582.5 -149 c 128,-1,74
 1568 -164 1568 -164 1547 -164 c 2,75,-1
 1474 -164 l 2,76,77
 1453 -164 1453 -164 1438.5 -149 c 128,-1,78
 1424 -134 1424 -134 1424 -113 c 2,79,-1
 1424 736 l 2,80,81
 1424 757 1424 757 1438.5 771.5 c 128,-1,82
 1453 786 1453 786 1474 786 c 2,83,-1
 1547 786 l 2,68,69
EndSplineSet
EndChar

StartChar: m
Encoding: 109 109 80
Width: 2000
Flags: W
LayerCount: 2
Fore
SplineSet
750 938 m 1,0,-1
 1786 1146 l 1,1,-1
 1786 238 l 1,2,3
 1644 302 1644 302 1456 216 c 1,4,5
 1324 143 1324 143 1285 40 c 128,-1,6
 1246 -63 1246 -63 1297 -146 c 1,7,8
 1352 -227 1352 -227 1471.5 -248.5 c 128,-1,9
 1591 -270 1591 -270 1728 -204 c 1,10,11
 1918 -93 1918 -93 1916 58 c 1,12,-1
 1916 58 l 1,13,-1
 1916 1171 l 1,14,-1
 1916 1560 l 1,15,-1
 1916 1689 l 1,16,-1
 621 1430 l 1,17,-1
 621 912 l 1,18,-1
 621 109 l 1,19,20
 478 172 478 172 290 86 c 1,21,22
 158 14 158 14 119.5 -89 c 128,-1,23
 81 -192 81 -192 132 -275 c 1,24,25
 187 -356 187 -356 306.5 -377.5 c 128,-1,26
 426 -399 426 -399 562 -333 c 1,27,28
 752 -223 752 -223 750 -72 c 1,29,-1
 750 -72 l 1,30,-1
 750 938 l 1,0,-1
799 938 m 1024,31,-1
EndSplineSet
EndChar

StartChar: n
Encoding: 110 110 81
Width: 2000
Flags: W
LayerCount: 2
Fore
SplineSet
22 1022 m 1,0,-1
 22 283 l 1,1,-1
 575 283 l 1,2,-1
 1150 -350 l 1,3,-1
 1150 1648 l 1,4,-1
 582 1022 l 1,5,-1
 22 1022 l 1,0,-1
1743 767 m 1,6,-1
 1977 769 l 1,7,-1
 1978 534 l 1,8,-1
 1743 533 l 1,9,-1
 1743 297 l 1,10,-1
 1509 297 l 1,11,-1
 1509 531 l 1,12,-1
 1274 530 l 1,13,-1
 1273 764 l 1,14,-1
 1509 766 l 1,15,-1
 1509 1001 l 1,16,-1
 1743 1001 l 1,17,-1
 1743 767 l 1,6,-1
EndSplineSet
EndChar

StartChar: o
Encoding: 111 111 82
Width: 2000
Flags: W
LayerCount: 2
Fore
SplineSet
22 1022 m 1,0,-1
 22 283 l 1,1,-1
 575 283 l 1,2,-1
 1150 -350 l 1,3,-1
 1150 1648 l 1,4,-1
 582 1022 l 1,5,-1
 22 1022 l 1,0,-1
1972 535 m 1,6,-1
 1266 535 l 1,7,-1
 1266 772 l 1,8,-1
 1972 772 l 1,9,-1
 1972 535 l 1,6,-1
EndSplineSet
EndChar

StartChar: p
Encoding: 112 112 83
Width: 1998
Flags: W
LayerCount: 2
Fore
SplineSet
926 1683 m 1,0,-1
 1049 1683 l 1,1,-1
 1061 1673 l 1,2,-1
 1061 1620 l 1,3,4
 1099 1545 1099 1545 1344 1459 c 1,5,6
 1684 1362 1684 1362 1684 1171 c 0,7,8
 1684 971 1684 971 1512 839 c 1,9,-1
 1506 839 l 1,10,-1
 1463 883 l 1,11,12
 1549 949 1549 949 1549 1067 c 0,13,14
 1549 1164 1549 1164 1227 1260 c 1,15,16
 1096 1319 1096 1319 1061 1355 c 1,17,-1
 1061 -115 l 2,18,19
 1061 -324 1061 -324 742 -387 c 1,20,-1
 662 -387 l 2,21,22
 318 -387 318 -387 318 -156 c 0,23,24
 318 24 318 24 619 57 c 1,25,-1
 652 57 l 2,26,27
 788 57 788 57 914 -33 c 1,28,-1
 914 1673 l 1,29,-1
 926 1683 l 1,0,-1
EndSplineSet
EndChar

StartChar: q
Encoding: 113 113 84
Width: 2000
Flags: W
LayerCount: 2
Fore
SplineSet
1288 1675 m 1,0,-1
 657 1042 l 1,1,-1
 13 1040 l 1,2,-1
 20 263 l 1,3,-1
 646 258 l 1,4,-1
 1285 -379 l 1,5,-1
 1288 1675 l 1,0,-1
1288 1675 m 1,6,-1
 657 1042 l 1,7,-1
 13 1040 l 1,8,-1
 20 263 l 1,9,-1
 646 258 l 1,10,-1
 1285 -379 l 1,11,-1
 1288 1675 l 1,6,-1
1401 1055 m 1,12,-1
 1383 940 l 1,13,14
 1458 917 1458 917 1505 840.5 c 128,-1,15
 1552 764 1552 764 1556 659 c 0,16,17
 1557 554 1557 554 1514.5 473 c 128,-1,18
 1472 392 1472 392 1398 361 c 1,19,-1
 1423 247 l 1,20,21
 1538 287 1538 287 1606 400.5 c 128,-1,22
 1674 514 1674 514 1672 662 c 0,23,24
 1666 810 1666 810 1592 917.5 c 128,-1,25
 1518 1025 1518 1025 1401 1055 c 1,26,-1
 1401 1055 l 1,12,-1
1444 1385 m 1,27,-1
 1428 1273 l 1,28,29
 1621 1232 1621 1232 1743 1068 c 128,-1,30
 1865 904 1865 904 1873 677 c 1,31,32
 1873 449 1873 449 1757 279.5 c 128,-1,33
 1641 110 1641 110 1450 59 c 1,34,-1
 1450 59 l 1,35,-1
 1470 -53 l 1,36,37
 1703 7 1703 7 1844.5 207.5 c 128,-1,38
 1986 408 1986 408 1986 679 c 1,39,40
 1977 949 1977 949 1828 1143 c 128,-1,41
 1679 1337 1679 1337 1444 1385 c 1,42,-1
 1444 1385 l 1,27,-1
EndSplineSet
EndChar

